<svg width="512" height="512" viewBox="0 0 512 512" fill="none" xmlns="http://www.w3.org/2000/svg">
<path d="M255.89 511.888C397.214 511.888 511.78 397.322 511.78 255.998C511.78 114.674 397.214 0.10791 255.89 0.10791C114.566 0.10791 0 114.674 0 255.998C0 397.322 114.566 511.888 255.89 511.888Z" fill="#E6E6E6"/>
<path d="M230.115 510.624L74.1689 353.622L411.206 140.623L511.577 241.628C511.789 246.278 512 251.138 512 255.998C512 397.363 397.471 511.892 256.106 511.892C247.442 511.892 238.779 511.469 230.326 510.624H230.115Z" fill="#CCCCCC"/>
<path d="M132.913 133.439H397.048C406.501 133.439 414.164 141.102 414.164 150.555V327.209C414.164 336.662 406.501 344.325 397.048 344.325H132.913C123.46 344.325 115.797 336.662 115.797 327.209V150.555C115.797 141.102 123.46 133.439 132.913 133.439Z" fill="#034A93"/>
<path d="M410.995 140.624C412.897 143.371 414.165 146.752 414.165 150.344V327.209C414.165 336.507 406.558 344.325 397.049 344.325H132.702C131.857 344.325 130.8 344.325 129.955 344.114L410.784 140.624H410.995Z" fill="#02376D"/>
<path d="M390.08 150.348H139.89V309.468H390.08V150.348Z" fill="#FDFDFD"/>
<path d="M264.98 337.779C271.282 337.779 276.391 332.67 276.391 326.368C276.391 320.066 271.282 314.957 264.98 314.957C258.678 314.957 253.569 320.066 253.569 326.368C253.569 332.67 258.678 337.779 264.98 337.779Z" fill="#FEFEFE"/>
<path d="M97.836 339.042L140.732 371.583C147.916 361.44 150.241 362.285 159.327 357.637C186.797 344.113 214.69 336.295 192.925 315.587C196.729 311.361 199.264 307.98 197.574 303.12C195.884 298.049 192.08 297.626 188.488 293.611C202.646 271.212 183.839 273.325 175.598 269.733C189.756 250.081 189.333 253.462 206.026 234.867C208.562 231.909 214.267 225.992 215.535 222.611C217.859 217.328 212.999 213.947 208.562 215.004C202.857 216.483 172.64 245.855 166.3 252.406C158.059 260.858 155.101 263.817 145.38 269.311C134.815 275.439 131.645 275.016 125.306 287.484C116.431 304.811 109.247 323.195 97.625 339.043H97.836V339.042Z" fill="#FFC130"/>
<path d="M91.074 331.224L148.55 374.965C149.607 375.81 149.818 377.501 148.973 378.557L135.027 396.73C134.182 397.787 132.491 397.998 131.435 397.153L73.959 353.412C72.902 352.567 72.691 350.876 73.536 349.82L87.482 331.647C88.327 330.59 90.017 330.379 91.074 331.224Z" fill="#006775"/>
<path d="M234.55 165.768H151.72V171.685H234.55V165.768Z" fill="#808080"/>
<path d="M234.55 181.408H151.72V187.325H234.55V181.408Z" fill="#808080"/>
<path d="M213.633 197.038H151.72V202.955H213.633V197.038Z" fill="#808080"/>
<path d="M248.643 197V178.091H256.214C257.606 178.091 258.766 178.297 259.695 178.71C260.625 179.122 261.323 179.694 261.791 180.427C262.259 181.153 262.493 181.99 262.493 182.938C262.493 183.677 262.345 184.326 262.05 184.886C261.754 185.44 261.348 185.896 260.831 186.253C260.32 186.604 259.735 186.853 259.077 187.001V187.185C259.797 187.216 260.471 187.419 261.099 187.795C261.733 188.17 262.247 188.696 262.641 189.374C263.035 190.045 263.232 190.845 263.232 191.774C263.232 192.777 262.982 193.673 262.484 194.461C261.991 195.243 261.262 195.861 260.295 196.317C259.329 196.772 258.138 197 256.722 197H248.643ZM252.641 193.732H255.901C257.015 193.732 257.827 193.519 258.338 193.094C258.849 192.664 259.104 192.091 259.104 191.377C259.104 190.854 258.978 190.392 258.726 189.992C258.473 189.592 258.113 189.278 257.646 189.05C257.184 188.823 256.633 188.709 255.993 188.709H252.641V193.732ZM252.641 186.004H255.605C256.153 186.004 256.639 185.908 257.064 185.717C257.495 185.52 257.833 185.243 258.08 184.886C258.332 184.529 258.458 184.102 258.458 183.603C258.458 182.92 258.215 182.369 257.729 181.95C257.249 181.532 256.565 181.322 255.679 181.322H252.641V186.004ZM272.167 197.277C270.733 197.277 269.492 196.972 268.446 196.363C267.406 195.747 266.602 194.892 266.036 193.796C265.47 192.694 265.187 191.417 265.187 189.964C265.187 188.5 265.47 187.219 266.036 186.124C266.602 185.022 267.406 184.166 268.446 183.557C269.492 182.941 270.733 182.634 272.167 182.634C273.601 182.634 274.838 182.941 275.878 183.557C276.925 184.166 277.731 185.022 278.297 186.124C278.864 187.219 279.147 188.5 279.147 189.964C279.147 191.417 278.864 192.694 278.297 193.796C277.731 194.892 276.925 195.747 275.878 196.363C274.838 196.972 273.601 197.277 272.167 197.277ZM272.185 194.23C272.838 194.23 273.382 194.045 273.819 193.676C274.256 193.301 274.586 192.79 274.807 192.143C275.035 191.497 275.149 190.762 275.149 189.937C275.149 189.112 275.035 188.376 274.807 187.73C274.586 187.084 274.256 186.573 273.819 186.197C273.382 185.822 272.838 185.634 272.185 185.634C271.527 185.634 270.973 185.822 270.523 186.197C270.08 186.573 269.745 187.084 269.517 187.73C269.295 188.376 269.184 189.112 269.184 189.937C269.184 190.762 269.295 191.497 269.517 192.143C269.745 192.79 270.08 193.301 270.523 193.676C270.973 194.045 271.527 194.23 272.185 194.23ZM288.112 197.277C286.678 197.277 285.438 196.972 284.391 196.363C283.351 195.747 282.548 194.892 281.981 193.796C281.415 192.694 281.132 191.417 281.132 189.964C281.132 188.5 281.415 187.219 281.981 186.124C282.548 185.022 283.351 184.166 284.391 183.557C285.438 182.941 286.678 182.634 288.112 182.634C289.546 182.634 290.783 182.941 291.824 183.557C292.87 184.166 293.676 185.022 294.243 186.124C294.809 187.219 295.092 188.5 295.092 189.964C295.092 191.417 294.809 192.694 294.243 193.796C293.676 194.892 292.87 195.747 291.824 196.363C290.783 196.972 289.546 197.277 288.112 197.277ZM288.131 194.23C288.783 194.23 289.328 194.045 289.765 193.676C290.202 193.301 290.531 192.79 290.753 192.143C290.98 191.497 291.094 190.762 291.094 189.937C291.094 189.112 290.98 188.376 290.753 187.73C290.531 187.084 290.202 186.573 289.765 186.197C289.328 185.822 288.783 185.634 288.131 185.634C287.472 185.634 286.918 185.822 286.469 186.197C286.025 186.573 285.69 187.084 285.462 187.73C285.241 188.376 285.13 189.112 285.13 189.937C285.13 190.762 285.241 191.497 285.462 192.143C285.69 192.79 286.025 193.301 286.469 193.676C286.918 194.045 287.472 194.23 288.131 194.23ZM301.214 192.919L301.223 188.201H301.795L306.338 182.818H310.853L304.75 189.946H303.817L301.214 192.919ZM297.65 197V178.091H301.583V197H297.65ZM306.513 197L302.34 190.823L304.962 188.044L311.121 197H306.513ZM334.69 178.091V197H331.237L323.01 185.099H322.872V197H318.874V178.091H322.382L330.544 189.983H330.711V178.091H334.69ZM344.327 197.277C342.893 197.277 341.652 196.972 340.606 196.363C339.566 195.747 338.762 194.892 338.196 193.796C337.63 192.694 337.347 191.417 337.347 189.964C337.347 188.5 337.63 187.219 338.196 186.124C338.762 185.022 339.566 184.166 340.606 183.557C341.652 182.941 342.893 182.634 344.327 182.634C345.761 182.634 346.998 182.941 348.039 183.557C349.085 184.166 349.891 185.022 350.458 186.124C351.024 187.219 351.307 188.5 351.307 189.964C351.307 191.417 351.024 192.694 350.458 193.796C349.891 194.892 349.085 195.747 348.039 196.363C346.998 196.972 345.761 197.277 344.327 197.277ZM344.345 194.23C344.998 194.23 345.543 194.045 345.98 193.676C346.417 193.301 346.746 192.79 346.968 192.143C347.195 191.497 347.309 190.762 347.309 189.937C347.309 189.112 347.195 188.376 346.968 187.73C346.746 187.084 346.417 186.573 345.98 186.197C345.543 185.822 344.998 185.634 344.345 185.634C343.687 185.634 343.133 185.822 342.683 186.197C342.24 186.573 341.905 187.084 341.677 187.73C341.455 188.376 341.345 189.112 341.345 189.937C341.345 190.762 341.455 191.497 341.677 192.143C341.905 192.79 342.24 193.301 342.683 193.676C343.133 194.045 343.687 194.23 344.345 194.23ZM356.307 197L352.447 182.818H356.427L358.624 192.347H358.753L361.043 182.818H364.949L367.275 192.291H367.395L369.556 182.818H373.526L369.676 197H365.512L363.074 188.081H362.899L360.461 197H356.307Z" fill="black"/>
<path d="M315 223C298.47 223 285 236.47 285 253C285 269.53 298.47 283 315 283C331.53 283 345 269.53 345 253C345 236.47 331.53 223 315 223ZM329.34 246.1L312.33 263.11C311.91 263.53 311.34 263.77 310.74 263.77C310.14 263.77 309.57 263.53 309.15 263.11L300.66 254.62C299.79 253.75 299.79 252.31 300.66 251.44C301.53 250.57 302.97 250.57 303.84 251.44L310.74 258.34L326.16 242.92C327.03 242.05 328.47 242.05 329.34 242.92C330.21 243.79 330.21 245.2 329.34 246.1Z" fill="#38C972"/>
</svg>
