<svg width="800" height="800" viewBox="0 0 800 800" fill="none" xmlns="http://www.w3.org/2000/svg">
<path d="M735.773 524.907C746.576 524.907 755.403 516.08 755.403 505.276V64.0317C755.403 53.228 746.576 44.4011 735.773 44.4011H64.6188C53.815 44.4011 44.9882 53.228 44.9882 64.0317V398.422H191.103C203.356 398.422 213.369 408.303 213.369 420.688V524.774H373.055C367.652 508.174 364.754 490.781 364.754 472.467C364.754 378.394 441.303 301.847 535.507 301.847C629.579 301.847 706.259 378.397 706.259 472.467C706.259 490.781 703.229 508.435 697.958 524.774H736.035V524.907H735.773Z" fill="white"/>
<path d="M220.484 480.505H364.754C364.621 477.87 364.491 475.367 364.491 472.6C364.491 378.527 441.04 301.979 535.244 301.979C629.317 301.979 705.997 378.529 705.997 472.6C705.997 472.6 705.997 472.6 705.997 472.732C709.29 468.78 711.397 463.905 711.397 458.372V111.068C711.397 98.8152 701.517 88.8022 689.132 88.8022H111.392C99.1395 88.8022 89.1265 98.6828 89.1265 111.068V376.42C89.1265 383.402 92.42 389.991 97.9533 394.206" fill="#56B9F5"/>
<path d="M645.651 167.59H154.74C142.487 167.59 132.474 157.709 132.474 145.324C132.474 132.939 142.354 123.058 154.74 123.058H645.784C658.037 123.058 668.05 132.939 668.05 145.324C668.05 157.709 658.037 167.59 645.651 167.59Z" fill="#02376D"/>
<path d="M645.651 261.4H154.74C142.487 261.4 132.474 251.519 132.474 239.134C132.474 226.881 142.354 216.868 154.74 216.868H645.784C658.037 216.868 668.05 226.748 668.05 239.134C667.919 251.517 658.037 261.4 645.651 261.4Z" fill="#02376D"/>
<path d="M355.794 355.47H154.74C142.487 355.47 132.474 345.59 132.474 333.205C132.474 320.952 142.354 310.939 154.74 310.939H355.796C368.049 310.939 378.062 320.819 378.062 333.205C377.93 345.457 368.047 355.47 355.794 355.47Z" fill="#02376D"/>
<path d="M735.773 0H64.6187C29.1788 0 0.323975 28.8549 0.323975 64.0318V398.553C0.323975 419.37 10.2045 439.396 26.939 451.781L165.676 555.867C177.138 564.563 191.368 569.306 205.73 569.306H394.664C408.499 589.464 426.813 606.46 447.762 619.108V777.475C447.234 795.526 469.369 808.305 485.181 793.55L534.983 746.118L584.785 793.55C601.913 808.833 623.52 793.022 622.204 777.475V619.108C643.283 606.46 661.467 589.464 675.301 569.306H735.644C771.086 569.306 799.676 540.451 799.676 505.274V64.0318C800.067 28.8549 771.212 0 735.773 0ZM168.704 502.639L89.1264 442.954H168.704V502.639ZM578.063 725.566L550.395 699.346C541.831 691.178 528.392 691.178 519.695 699.346L492.159 725.433V637.685C505.861 641.241 520.223 643.218 534.979 643.218C549.734 643.218 564.096 641.374 577.798 637.685V725.433H578.061V725.566H578.063ZM535.111 598.689C465.546 598.689 409.022 542.034 409.022 472.6C409.022 403.165 465.676 346.511 535.111 346.511C604.676 346.511 661.2 403.165 661.2 472.6C661.2 542.034 604.809 598.689 535.111 598.689ZM755.666 505.144C755.666 515.947 746.839 524.774 736.035 524.774H697.563C702.964 508.174 705.864 490.781 705.864 472.467C705.864 378.395 629.314 301.847 535.111 301.847C440.908 301.847 364.358 378.397 364.358 472.467C364.358 490.781 367.389 508.435 372.659 524.774H213.106V420.688C213.106 408.436 203.225 398.423 190.84 398.423H44.7252V64.0318C44.7252 53.228 53.552 44.4012 64.3558 44.4012H735.771C746.574 44.4012 755.401 53.228 755.401 64.0318V505.142L755.666 505.144Z" fill="#02376D"/>
<path d="M492.292 637.819V725.698L519.828 699.611C528.392 691.443 541.831 691.443 550.527 699.611L578.063 725.698V637.819C564.361 641.376 549.999 643.353 535.244 643.353C520.356 643.22 505.993 641.243 492.292 637.819Z" fill="#FF9E0D"/>
<path d="M535.111 346.511C465.546 346.511 409.022 403.165 409.022 472.6C409.022 542.035 465.676 598.689 535.111 598.689C604.676 598.689 661.2 542.035 661.2 472.6C661.2 403.165 604.809 346.511 535.111 346.511Z" fill="#FF9E0D"/>
<path d="M168.705 442.954H89.1265L168.705 502.639V442.954Z" fill="white"/>
</svg>
