<svg width="401" height="311" viewBox="0 0 401 311" fill="none" xmlns="http://www.w3.org/2000/svg">
<path d="M383.2 31.1V31.3V38V51.7V65.4V65.6V198.3V232.6H229.8H222.1L202 252.7L181.9 232.6H170.9H20.9V198.3V65.5V65.3V51.6V37.9V31.2V31H3.19995V255.2H20.9H170.9V255.7C170.9 272 184.1 285.2 200.4 285.2C201 285.2 201.5 285.1 202.1 285C217.6 284.1 229.9 271.4 229.9 255.7V255.2H397.6V31.1H383.2Z" fill="#147EEB"/>
<path d="M200.4 288.3C183.3 288.3 169.2 275.1 167.9 258.4H3.20001C1.40001 258.4 0 257 0 255.2V31.0999C0 29.2999 1.40001 27.8999 3.20001 27.8999H20.9C22.7 27.8999 24.1 29.2999 24.1 31.0999V229.3H182C182.8 229.3 183.7 229.6 184.3 230.2C193.8 239.7 199.2 245 202.1 248.2L220.1 230.2C220.7 229.6 221.5 229.3 222.3 229.3H380V31.2999C380 29.4999 381.4 27.8999 383.2 27.8999H397.5C399.3 27.8999 400.7 29.2999 400.7 31.0999V255.3C400.7 257.1 399.3 258.5 397.5 258.5H232.8C231.3 274.7 218.4 287.3 202.1 288.3C201.3 288.3 200.8 288.3 200.4 288.3ZM6.40002 252H170.9C172.7 252 174.1 253.4 174.1 255.2C174.1 270.2 185.9 282 200.4 282C200.6 282 200.7 282 200.9 281.9C201.2 281.9 201.6 281.8 201.9 281.8C215.8 281 226.7 269.5 226.7 255.7C226.7 253.9 228.1 252.1 229.9 252.1H394.4V34.1999H386.4V232.4C386.4 234.2 385 235.6 383.2 235.6H223.5L204.3 254.8C203.2 255.9 201.5 256 200.3 255.2C200.1 255.1 199.9 254.9 199.8 254.7C199 253.8 184.5 239.4 180.7 235.6H20.9C19.1 235.6 17.7 234.2 17.7 232.4V34.1999H6.40002V252Z" fill="black"/>
<path d="M222.2 3.69995L202 23.8V58V60.5V94.8V218.3V252.6L222.2 232.4H229.8H383.2V198.2V65.5V65.3V51.6V37.8999V31.2V31.1V17.3V3.69995H222.2Z" fill="#F1F2F2"/>
<path d="M202 255.8C201.6 255.8 201.2 255.7 200.8 255.6C199.6 255.1 198.8 253.9 198.8 252.7V23.8C198.8 23 199.1 22.1 199.7 21.5L219.8 1.39999C220.4 0.799994 221.2 0.5 222 0.5H383C384.8 0.5 386.2 1.9 386.2 3.7V232.5C386.2 234.3 384.8 235.7 383 235.7H223.3L204.1 254.9C203.7 255.4 202.9 255.8 202 255.8ZM205.2 25.1V244.9L219.9 230.2C220.5 229.6 221.3 229.3 222.1 229.3H380V6.8H223.5L205.2 25.1Z" fill="black"/>
<path d="M350.968 40.4H238.032C236.326 40.4 235 39 235 37.2C235 35.4 236.326 34 238.032 34H350.968C352.674 34 354 35.4 354 37.2C354 38.9 352.674 40.4 350.968 40.4Z" fill="#9B9B9B"/>
<path d="M350.968 68.4H238.032C236.326 68.4 235 67 235 65.2C235 63.4 236.326 62 238.032 62H350.968C352.674 62 354 63.4 354 65.2C354 67 352.674 68.4 350.968 68.4Z" fill="#9B9B9B"/>
<path d="M350.968 96.4H238.032C236.326 96.4 235 95 235 93.2C235 91.4 236.326 90 238.032 90H350.968C352.674 90 354 91.4 354 93.2C354 95 352.674 96.4 350.968 96.4Z" fill="#9B9B9B"/>
<path d="M350.968 124.4H238.032C236.326 124.4 235 123 235 121.2C235 119.4 236.326 118 238.032 118H350.968C352.674 118 354 119.4 354 121.2C354 123 352.674 124.4 350.968 124.4Z" fill="#9B9B9B"/>
<path d="M302.979 153H238.021C236.322 153 235 151.469 235 149.5C235 147.531 236.322 146 238.021 146H302.979C304.678 146 306 147.531 306 149.5C306 151.469 304.678 153 302.979 153Z" fill="#9B9B9B"/>
<path d="M181.9 3.69995H20.8999V17.3999V31.1V31.3V38V51.7V65.3999V65.6V198.3V232.6H170.9H181.9C181.9 232.6 202.1 252.7 202 252.7V218.4V94.8V60.5V58V23.7C202.1 23.8 181.9 3.69995 181.9 3.69995Z" fill="white"/>
<path d="M202 255.8C201.1 255.8 200.3 255.4 199.7 254.8C198.8 253.9 184.4 239.5 180.6 235.7H20.9C19.1 235.7 17.7 234.3 17.7 232.5V3.7C17.7 1.9 19.1 0.5 20.9 0.5H181.9C182.7 0.5 183.6 0.799994 184.2 1.39999C201.2 18.4 204.9 22 205.2 23.8V24C205.2 24.1 205.2 24.1 205.2 24.2V252.6C205.2 254.1 204.1 255.4 202.7 255.7C202.5 255.7 202.2 255.8 202 255.8ZM23.9999 229.3H181.9C182.7 229.3 183.6 229.6 184.2 230.2C191.2 237.2 195.8 241.8 198.9 244.9V25.1C195.6 21.8 184 10.2 180.6 6.8H23.9999V229.3Z" fill="black"/>
<path d="M131.2 129.7C131.2 141.4 121.7 150.8 110.1 150.8C98.4 150.8 89 141.3 89 129.7V53.1C89 41.4 98.5 32 110.1 32C121.8 32 131.2 41.5 131.2 53.1V129.7Z" fill="#02376D"/>
<path d="M131.2 186.4C131.2 198.1 121.7 207.5 110.1 207.5C98.4 207.5 89 198 89 186.4C89 174.7 98.5 165.3 110.1 165.3C121.8 165.2 131.2 174.7 131.2 186.4Z" fill="#02376D"/>
<path d="M340.9 168.4C336 168.4 331.7 170.8 329 174.5C327.5 168.1 321.7 163.3 314.8 163.3C309.7 163.3 305.2 165.9 302.6 169.9C300.7 164.1 295.2 159.8 288.7 159.8C284.1 159.8 279.9 162 277.2 165.4V115.9C277.2 107.9 270.7 101.3 262.7 101.3C254.7 101.3 248.1 107.8 248.1 115.9V198.4C233.7 207.1 235.5 222.1 235.5 222.1V222.6C235.5 222.6 235.5 223.2 235.5 224.2C235.5 229.3 236.6 241.9 246.2 250L262.9 267.2C263.2 267.9 263.9 269.8 264.5 272.6C265 274.5 265.5 280 265.8 283.7L265.9 284.6H342.6V269.2C345.3 267.1 355.3 258.4 355.3 245.8V183C355.5 174.9 349 168.4 340.9 168.4Z" fill="white"/>
<path d="M342.8 287.8H266.1C264.5 287.8 263.1 286.5 262.9 284.9L262.8 284C262.5 280.8 262 275 261.6 273.4C261.1 271.4 260.6 269.8 260.3 269L244.1 252.3C233.6 243.6 232.5 229.8 232.5 224.3C232.5 223.2 232.5 222.5 232.5 222.5C232.5 221.9 230.8 206.5 245.1 196.8V116C245.1 106.2 253.1 98.3 262.9 98.3C272.7 98.3 280.6 106.3 280.6 116V158.7C283.1 157.4 285.9 156.6 288.9 156.6C294.9 156.6 300.3 159.5 303.5 164.3C306.7 161.6 310.7 160.1 314.9 160.1C321.3 160.1 327.1 163.5 330.2 168.8C333.3 166.5 337 165.2 340.9 165.2C350.7 165.2 358.6 173.2 358.6 183V245.9C358.6 258.4 350 267.3 345.9 270.8V284.7C346 286.4 344.5 287.8 342.8 287.8ZM269 281.5H339.6V269.3C339.6 268.3 340.1 267.4 340.8 266.8C342.7 265.3 352.3 257.3 352.3 245.9V183C352.3 176.7 347.2 171.6 340.9 171.6C337.2 171.6 333.8 173.4 331.6 176.4C330.9 177.4 329.6 177.9 328.4 177.7C327.2 177.5 326.2 176.5 325.9 175.3C324.7 170.1 320.1 166.6 314.8 166.6C311 166.6 307.4 168.5 305.3 171.7C304.6 172.7 303.4 173.3 302.2 173.1C301 172.9 300 172.1 299.6 170.9C298.1 166.2 293.7 163 288.8 163C285.3 163 282 164.6 279.8 167.4C279 168.5 277.5 168.9 276.3 168.4C275 168 274.2 166.7 274.2 165.4V115.9C274.2 109.6 269.1 104.5 262.8 104.5C256.5 104.5 251.4 109.6 251.4 115.9V198.4C251.4 199.5 250.8 200.5 249.9 201.1C237.4 208.7 238.8 221.6 238.9 221.7C238.9 221.9 238.9 222.1 238.9 222.4C238.9 222.9 238.8 223.4 238.8 224.2C238.8 228.8 239.7 240.3 248.4 247.5L265.3 264.9C265.6 265.2 265.8 265.6 266 266C266.3 266.7 267 268.8 267.8 271.8C268.2 273.6 268.6 277.1 269 281.5Z" fill="black"/>
<path d="M354.2 284.6H342.8H266.1H254.9V307.6H354.2V284.6Z" fill="white"/>
<path d="M354.2 310.8H254.9C253.1 310.8 251.7 309.4 251.7 307.6V284.6C251.7 282.8 253.1 281.4 254.9 281.4H354.2C356 281.4 357.4 282.8 357.4 284.6V307.6C357.4 309.4 356 310.8 354.2 310.8ZM258.1 304.4H351V287.8H258.1V304.4Z" fill="#231F20"/>
<path d="M270 128.5H255.4C253.6 128.5 252.2 127.1 252.2 125.3C252.2 123.5 253.6 122.1 255.4 122.1H270C271.8 122.1 273.2 123.5 273.2 125.3C273.2 127 271.7 128.5 270 128.5Z" fill="black"/>
<path d="M248.3 220.2C246.5 220.2 245.1 218.8 245.1 217V198.5C245.1 196.7 246.5 195.3 248.3 195.3C250.1 195.3 251.5 196.7 251.5 198.5V217C251.5 218.8 250 220.2 248.3 220.2Z" fill="black"/>
<path d="M277.4 200C275.6 200 274.2 198.6 274.2 196.8V165.4C274.2 163.6 275.6 162.2 277.4 162.2C279.2 162.2 280.6 163.6 280.6 165.4V196.8C280.6 198.6 279.2 200 277.4 200Z" fill="black"/>
<path d="M302.7 200C300.9 200 299.5 198.6 299.5 196.8V169.9C299.5 168.1 300.9 166.7 302.7 166.7C304.5 166.7 305.9 168.1 305.9 169.9V196.8C305.9 198.6 304.5 200 302.7 200Z" fill="black"/>
<path d="M329.1 200C327.3 200 325.9 198.6 325.9 196.8V174.5C325.9 172.7 327.3 171.3 329.1 171.3C330.9 171.3 332.3 172.7 332.3 174.5V196.8C332.3 198.6 330.8 200 329.1 200Z" fill="black"/>
</svg>
