<svg width="371" height="107" viewBox="0 0 371 107" fill="none" xmlns="http://www.w3.org/2000/svg">
<path d="M72.2052 0H5.94998C2.66586 0 0 2.71636 0 6.05914V63.7463C0 85.6936 17.5323 103.546 39.0804 103.546C60.6286 103.546 78.1552 85.6936 78.1552 63.7463V6.05914C78.1552 2.72206 75.4837 0 72.2052 0ZM75.3078 63.7463C75.3078 84.0934 59.0574 100.642 39.0804 100.642C19.1035 100.642 2.84737 84.0934 2.84737 63.7463V53.0232H7.84445C6.85184 49.2533 6.56256 45.2272 7.13544 41.0359C9.02991 27.175 21.5481 16.133 35.2858 15.9622C50.521 15.7743 63.907 29.0714 61.9445 44.9026C62.9881 48.1258 67.2819 50.5118 68.5127 53.0232H75.3078V63.7463Z" fill="white"/>
<path d="M21.2879 72.1177V79.7144C21.3976 79.8283 21.5072 79.9441 21.6169 80.0618C27.0847 79.7429 51.4973 80.4775 53.9362 80.0618C56.8233 79.5664 58.3094 76.2805 58.4512 73.5015C59.3871 72.505 60.323 71.5084 61.2645 70.5118C61.5481 67.1804 61.8317 63.849 62.1153 60.5176C62.7506 59.5837 66.2956 55.717 66.4318 55.4038C66.8061 54.5781 66.721 53.7922 66.3524 53.0234H64.3274C64.6848 53.5986 64.8663 54.1624 64.7301 54.7148C64.56 55.4095 59.0694 60.6429 60.9356 62.3115C60.5442 64.9367 60.1528 67.562 59.7558 70.1872L58.7745 71.497C55.5244 73.0061 57.6344 77.6245 53.0174 78.268C49.5574 78.752 29.0529 77.9035 23.1824 78.268C23.2051 68.7806 23.4603 72.1291 18.3384 67.6303C14.0901 63.9003 11.1066 58.6726 9.62616 53.0234H7.82812C9.79633 60.7397 14.6516 67.374 21.2766 72.1234L21.2879 72.1177Z" fill="white"/>
<path d="M39.5899 49.5985C39.5388 49.5586 39.38 49.5643 39.0624 49.5586C38.5859 49.5586 38.342 49.5586 38.0074 49.6155C37.8712 49.6383 37.6841 49.6782 37.4742 49.7465C37.3267 49.9401 37.1679 50.1395 37.0034 50.3559C36.8446 50.5609 36.6914 50.7659 36.5326 50.9709C35.5173 52.2977 34.5474 53.6189 33.6172 54.9287H35.54C36.4192 53.636 37.2983 52.3376 38.1775 51.0449C39.8111 52.4857 40.3953 50.1679 39.5899 49.6042V49.5985Z" fill="white"/>
<path d="M43.8497 39.6722C43.8497 39.6722 44.0539 39.4159 44.0653 39.3191C44.2751 37.0242 41.7341 37.3203 42.0744 39.3191C42.1481 39.7576 42.4204 39.8146 42.4317 39.8487C42.5452 40.3214 42.3466 47.8498 42.4317 49.4329C43.9462 51.3064 44.5531 52.0524 45.3415 53.0262H47.2189C46.1696 51.7107 45.6478 51.0559 43.8554 48.8122C43.9575 45.8851 43.7193 42.5423 43.8554 39.6722H43.8497Z" fill="white"/>
<path d="M62.2084 48.6363C58.3231 43.7218 61.3746 41.6375 59.4972 35.1C56.4456 24.4737 45.4815 17.4522 34.8748 17.7597C22.0106 18.1299 10.122 28.7049 8.76067 41.8653C8.37497 45.5725 8.71529 49.3823 9.70223 53.0212H11.8066C12.0448 49.6784 11.9257 44.1204 12.0845 43.4484C13.2359 41.6945 15.2552 40.0772 15.1474 37.6455C17.1288 35.0829 19.1103 32.5184 21.0917 29.952H24.2964C25.6955 27.9285 27.0965 25.9069 28.4994 23.8872H35.1187L37.1096 26.0853H44.7271C45.6347 27.4407 52.9289 35.6296 53.0934 36.3244C53.1445 36.5465 53.0537 37.3323 53.0934 37.731C52.2502 37.7462 51.4069 37.7613 50.5637 37.7765C50.6715 31.8654 47.2002 33.3404 46.7918 33.1183C46.5649 32.862 46.7521 32.19 46.684 31.8427C46.6103 31.4326 44.0125 27.6855 43.6608 27.5773H35.6859C34.8313 28.6897 33.9767 29.804 33.1221 30.9201L29.5601 31.0055C27.4728 33.5568 25.5102 36.256 23.474 38.8756C22.6061 39.9861 20.7854 41.2901 21.8007 42.4348C22.1127 42.7821 22.7139 42.7992 23.0826 42.5202C23.525 42.1899 23.4002 41.3983 23.7576 40.9826C24.6141 40.0886 29.6849 32.8335 30.1273 32.6741C30.3428 32.5944 31.2787 32.731 31.6928 32.6741L31.8005 32.8051C30.7569 34.2401 29.6111 35.5898 28.7376 37.2014C28.6885 38.3441 28.6412 39.4868 28.5958 40.6296C27.5862 41.9317 26.5785 43.2358 25.5726 44.5418C22.7971 44.5722 20.0197 44.6007 17.2404 44.6272C17.0135 44.4507 17.7962 43.289 17.9154 43.0897C18.6641 41.871 27.9322 29.6502 28.7036 28.8928C28.732 28.8643 29.1404 28.9782 29.3786 28.4999C29.8267 27.5887 29.1914 26.4327 28.3463 26.6092C27.9889 26.6833 26.4972 29.2003 26.1058 29.7299C24.8182 31.4725 16.1797 42.4803 15.9245 43.3573C15.7827 43.8357 15.9131 44.5532 15.8167 44.6329C14.4894 44.8892 14.1378 43.9666 13.3947 44.1944C12.7027 44.4051 12.4418 46.0224 13.2529 46.478C13.8655 46.8197 15.0566 46.1249 15.8507 46.4324C15.8394 47.355 15.828 48.2775 15.8167 49.2001C14.2455 49.4848 12.6177 48.2661 12.3624 49.7695C11.9484 52.2012 14.4497 50.7034 15.7827 51.0907C15.794 51.905 15.7997 52.5087 15.8054 53.0155H17.229C17.229 52.5314 17.2347 51.9791 17.2461 51.0451H26.6446C28.1648 49.2001 29.683 47.3531 31.1993 45.5042C32.7648 45.4738 34.3303 45.4454 35.8958 45.4188C36.3155 45.2878 36.8997 45.0259 37.0755 44.5133C37.5009 43.2605 34.9145 42.1386 34.3643 39.7469C33.9276 37.8506 34.5118 35.026 36.0376 34.69C36.8146 34.5192 43.4453 34.7811 45.2603 34.7356C45.4021 36.9166 45.0845 44.2855 45.1866 45.1113C45.3624 46.5122 49.4463 51.0793 50.3822 52.4973C50.3652 52.6567 50.3538 52.8276 50.3425 53.0155H51.8399C51.8399 52.4631 51.8286 52.0759 51.8059 51.9677C50.5958 50.3845 49.3858 48.8014 48.1758 47.2183C48.9982 45.7719 51.3578 43.6933 51.4485 43.437C51.7718 42.5316 51.216 41.5749 50.4899 41.7229C50.0702 41.8084 47.8922 45.2593 47.359 45.8573C47.2002 45.8857 46.6953 45.0771 46.684 45.0202C46.5592 44.4222 46.7748 36.5977 46.684 34.821C49.9738 34.2971 48.8904 36.6547 49.14 39.5248C50.4824 39.54 51.8229 39.5552 53.1615 39.5703V52.5827C53.0877 52.7365 53.0367 52.8788 52.997 53.0155H54.7894C54.7043 52.8447 54.5852 52.6169 54.5852 52.5827C54.3867 50.1454 54.7326 42.9131 54.5852 39.6615C56.4853 39.4735 57.5743 39.4621 58.6407 41.5977V49.9518C57.5743 51.3868 56.9221 52.2638 56.3605 53.0212H58.1812C58.3117 52.8447 58.4478 52.6624 58.601 52.4574C58.601 52.6567 58.6123 52.839 58.6237 53.0212H66.3944C65.4698 51.5918 63.3712 50.1112 62.1971 48.6306L62.2084 48.6363ZM45.1923 32.9873C44.937 33.4315 37.4953 32.7424 36.4006 32.8563C33.2299 33.1809 31.9877 38.1751 33.4454 41.2503C33.8879 42.1899 34.767 42.7935 35.1924 43.7559H30.8476C28.4087 46.5919 27.5976 47.5315 26.0774 49.2969C23.1242 49.2513 20.1691 49.2076 17.212 49.1659C17.2234 48.213 17.2347 47.2601 17.2461 46.3072H25.93C26.2986 46.2103 30.0138 41.3869 30.0933 40.9029V37.6512C32.0785 34.9235 34.0694 32.1843 36.0376 29.4338C36.7296 29.4965 37.4159 29.3826 38.1022 29.3484C39.7811 29.2516 41.4771 29.4224 43.156 29.3484C43.6495 29.9179 45.6857 32.1331 45.1866 32.9987L45.1923 32.9873ZM57.9374 38.5282C56.905 37.6968 55.7196 37.8676 54.5568 37.8676C54.4093 36.6091 54.7837 36.3528 54.1654 35.2766C53.74 34.5362 46.5195 25.943 45.1582 24.246H37.4669L35.5441 22.1389H27.9946C26.5236 24.189 25.0527 26.241 23.5817 28.2949H20.6606C19.6397 29.4623 13.7748 36.6888 13.65 37.5715C13.4855 38.7218 14.3023 38.1068 12.1923 40.8687C12.2036 39.4754 12.2149 38.084 12.2263 36.6945C15.3062 32.6855 18.3805 28.6479 21.5171 24.6958C21.6532 24.8211 22.2658 24.8211 22.3736 24.7813C22.6118 24.6958 25.3571 20.8747 25.9356 20.4761H44.7328C49.1343 25.7645 53.5358 31.053 57.9374 36.3415V38.5396V38.5282Z" fill="white"/>
<path d="M27.8661 57.031C27.815 57.0139 27.7186 57.031 27.6505 57.031C26.5388 57.0823 26.6182 59.2064 25.8014 59.4057C24.7124 59.6734 24.4174 57.8283 23.5213 57.3841C21.5852 57.4297 19.651 57.4733 17.7188 57.5151C19.8666 60.1688 22.0144 62.8206 24.1622 65.4706H28.9324C29.2614 64.4113 28.1553 63.392 29.0742 62.572C29.6981 62.0139 30.5603 62.5378 30.6737 63.2325C30.8155 64.0469 30.2426 64.7416 30.4241 65.5617C31.4451 65.7781 32.2903 65.0321 32.9879 65.3851C33.4927 65.6414 33.7933 66.9056 33.2375 67.3612V71.6664C34.0316 72.6402 33.1921 74.1777 32.1314 73.7335C30.9063 73.2153 31.7968 71.8771 31.8138 71.7575C31.9613 70.6926 31.8365 68.5058 31.8875 67.2758L30.3561 67.2302C30.3674 68.1698 30.2256 71.729 30.322 72.196C30.3618 72.3953 31.3487 72.9705 30.322 74.8326C31.638 74.8782 32.9558 74.9218 34.2755 74.9636C34.2868 71.6683 34.2982 68.371 34.3095 65.0719C33.4644 64.1949 28.3141 57.162 27.8661 57.031Z" fill="white"/>
<path d="M48.9032 55.1397V61.2046C50.5424 63.5394 49.7029 66.1248 49.9014 69.0291C49.9468 69.143 50.8997 69.1145 51.1493 68.9835C51.7278 68.6874 58.6194 59.0178 59.7992 57.7764C59.283 55.9769 58.7498 54.8778 58.6421 53.0213H58.1997C56.5661 55.2138 56.4186 55.4074 54.5242 57.9529C54.6206 59.2969 54.303 61.2729 54.7397 62.2581C54.8531 63.6704 53.3047 64.143 52.8169 62.9585C52.3858 61.9221 53.0778 61.495 53.1005 61.3754C53.2139 60.8344 52.9587 58.3003 53.1742 57.3322C54.8475 55.0771 55.4998 54.2001 56.3789 53.0156H54.8021C54.8475 53.1067 54.8815 53.1808 54.8815 53.1979C55.1141 55.0657 52.3688 55.1113 53.0041 53.0156H51.8526C51.864 55.2195 51.7562 60.1568 51.8186 61.552C51.8186 61.6658 52.4369 62.9016 51.501 63.528C51.1663 63.7558 50.6785 63.7102 50.3609 63.4426C49.4987 62.7194 50.3098 61.495 50.3269 61.3754C50.4687 60.2194 50.2248 55.4643 50.3609 53.0156H47.2129C47.644 53.5566 48.1658 54.2115 48.9032 55.134V55.1397Z" fill="white"/>
<path d="M25.3617 57.0325C26.5925 55.8138 27.6986 54.4243 28.7933 53.0234H17.2336C17.2336 53.7353 17.2223 54.2934 17.2109 55.6715C19.5989 56.1555 24.0401 54.6578 25.3617 57.0325Z" fill="white"/>
<path d="M30.8012 53.0234C30.1546 53.8036 29.8086 54.2193 28.6855 55.5803C31.0338 58.5416 33.3839 61.5009 35.7359 64.4584V74.9195C37.0405 74.8891 38.3451 74.8607 39.6496 74.8341V65.9561C34.4597 60.922 32.1512 58.0006 32.724 57.1919C32.8545 57.004 33.1381 56.9357 33.5749 56.9699C36.0535 59.7602 38.5266 62.5506 41.0052 65.341V74.9252L43.4612 75.0562C43.4272 73.5414 43.7789 71.5255 43.1436 70.3524C43.24 68.1314 46.7624 69.4982 48.3789 68.9913C48.4129 67.188 48.4489 65.3866 48.4867 63.5871C48.1539 63.2074 47.8212 62.8259 47.4884 62.4424V55.6715C46.4788 54.4243 45.8719 53.6726 45.3444 53.0234H34.8397C35.6849 54.3161 36.5357 55.6088 37.3808 56.9015C37.4205 57.0951 39.3944 59.4357 39.695 59.7602C40.3813 60.5063 41.5327 61.3434 41.5838 61.4743C41.9525 62.4254 41.2321 63.5017 40.4097 63.1884C40.1034 63.0746 36.5754 58.1373 35.9571 57.5165C36.4392 56.0188 36.9157 54.5211 37.3978 53.0234H30.8126H30.8012Z" fill="white"/>
<path d="M26.0116 72.4971L28.893 72.4516V67.2637L23.5897 67.1327C21.0145 63.9247 18.4394 60.7167 15.8643 57.5087C15.836 55.1113 15.8303 54.5076 15.8133 53.0156H11.8088C11.7407 53.9382 11.65 54.6956 11.5195 55.134C16.3483 60.9198 21.1771 66.7075 26.0059 72.4971H26.0116Z" fill="white"/>
<path d="M32.3022 49.6805C32.3533 49.6406 32.5121 49.6463 32.8297 49.6406C33.3062 49.6406 33.5501 49.6406 33.8847 49.6976C34.0209 49.7203 34.208 49.7602 34.4179 49.8286C34.5654 50.0222 34.7242 50.2215 34.8887 50.4379C35.0475 50.6429 35.2007 50.8479 35.3595 51.0529C36.3748 52.3798 37.3447 53.7009 38.2749 55.0107H36.3521C35.4729 53.718 34.5937 52.4196 33.7146 51.1269C32.081 52.5677 31.4968 50.25 32.3022 49.6862V49.6805Z" fill="white"/>
<path d="M39.7193 56.8709C39.6683 56.9108 39.5095 56.9051 39.1918 56.9108C38.7154 56.9108 38.4715 56.9108 38.1368 56.8538C38.0007 56.8311 37.8135 56.7912 37.6037 56.7229C37.4562 56.5292 37.2974 56.3299 37.1329 56.1135C36.8776 55.7832 36.6848 55.5327 36.6621 55.4985C36.1743 54.8607 35.2781 53.4484 35.0059 53.0156C35.4199 53.0156 35.8397 53.0213 36.2537 53.027C36.94 53.8243 37.6263 54.6272 38.307 55.4245C39.9405 53.9837 40.5248 56.3015 39.7193 56.8652V56.8709Z" fill="white"/>
<path d="M32.1282 56.8709C32.1793 56.9108 32.3381 56.9051 32.6557 56.9108C33.1322 56.9108 33.3761 56.9108 33.7107 56.8538C33.8468 56.8311 34.034 56.7912 34.2439 56.7229C34.3914 56.5292 34.5502 56.3299 34.7147 56.1135C34.9699 55.7832 35.1628 55.5327 35.1855 55.4985C35.6733 54.8607 36.5694 53.4484 36.8417 53.0156C36.3369 53.027 35.8321 53.0327 35.3216 53.0441C34.726 53.8414 34.1305 54.6329 33.5349 55.4302C31.9013 53.9894 31.3171 56.3072 32.1225 56.8709H32.1282Z" fill="white"/>
<path d="M39.0469 46.5454C39.0469 46.5454 38.8427 46.8017 38.8314 46.8985C38.6215 49.1935 41.1626 48.8973 40.8223 46.8985C40.7485 46.46 40.4763 46.4031 40.4649 46.3689C40.3515 45.8962 40.55 38.3679 40.4649 36.7848C38.9505 34.9112 38.3436 34.1652 37.5552 33.1914H35.6777C36.7271 34.5069 37.2489 35.1618 39.0413 37.4055C38.9392 40.3325 39.1774 43.6753 39.0413 46.5454H39.0469Z" fill="white"/>
<path d="M102.96 26.9204H96.4707V15.793H128.915C142.193 15.793 151.478 25.1152 151.478 38.9475C151.478 52.7799 142.193 62.404 128.915 62.404H116.034V86.9594H102.954V26.9204H102.96ZM126.521 51.174C133.906 51.174 138.104 46.362 138.104 38.9475C138.104 31.5331 133.912 26.9204 126.725 26.9204H116.045V51.174H126.527H126.521Z" fill="white"/>
<path d="M161.764 48.8762C161.764 47.3728 160.965 46.6724 159.569 46.6724H155.576V35.8468H167.158C171.651 35.8468 173.948 37.7488 173.948 42.0597V45.0665C173.948 46.9685 173.749 48.2726 173.749 48.2726H173.948C176.245 40.9549 182.331 35.1406 190.119 35.1406C191.219 35.1406 192.416 35.3399 192.416 35.3399V47.8682C192.416 47.8682 191.117 47.6689 189.319 47.6689C183.931 47.6689 177.737 50.7782 175.44 58.392C174.742 60.8977 174.339 63.7052 174.339 66.712V86.9566H161.759V48.8705L161.764 48.8762Z" fill="white"/>
<path d="M221.775 34.6385C236.352 34.6385 244.338 45.3616 244.338 58.8922C244.338 60.3956 244.038 63.6017 244.038 63.6017H208.894C209.892 72.622 216.483 77.3315 224.168 77.3315C232.353 77.3315 238.445 71.6198 238.445 71.6198L243.737 80.4408C243.737 80.4408 235.949 88.1571 223.272 88.1571C206.398 88.1571 195.916 75.9307 195.916 61.3921C195.916 45.6577 206.5 34.6328 221.775 34.6328V34.6385ZM231.361 54.7863C231.162 48.6702 226.965 44.4618 221.775 44.4618C215.286 44.4618 210.692 48.3684 209.296 54.7863H231.361Z" fill="white"/>
<path d="M256.606 48.8695C256.606 47.3661 255.806 46.6657 254.411 46.6657H250.418V35.8401H261.7C266.39 35.8401 268.086 37.9471 268.086 40.7489V42.7534H268.285C268.285 42.7534 272.579 34.6328 284.456 34.6328C298.233 34.6328 307.116 45.5609 307.116 61.3921C307.116 77.2233 297.133 88.1571 283.753 88.1571C273.668 88.1571 269.175 81.4431 269.175 81.4431H268.977C268.977 81.4431 269.175 83.2483 269.175 85.8508V107.001H256.595V48.8638L256.606 48.8695ZM281.467 77.434C288.455 77.434 294.348 71.7223 294.348 61.5971C294.348 51.472 289.158 45.5609 281.671 45.5609C275.08 45.5609 268.892 50.3729 268.892 61.6996C268.892 69.6152 273.083 77.434 281.472 77.434H281.467Z" fill="white"/>
<path d="M332.765 50.88L319.589 29.3314C318.29 27.1275 317.49 26.9282 315.295 26.9282H312.3V15.8008H320.485C325.278 15.8008 327.172 16.9055 329.572 21.0114L336.361 32.8393C338.658 36.9508 340.853 41.461 340.853 41.461H341.052C341.052 41.461 342.946 36.9508 345.346 32.8393L352.232 21.0114C354.625 16.803 356.627 15.8008 361.415 15.8008H369.503V26.9282H366.508C364.313 26.9282 363.513 27.23 362.214 29.3314L348.936 50.88L371 86.9615H356.327L345.346 68.2203C342.952 64.012 340.853 59.9004 340.853 59.9004H340.655C340.655 59.9004 338.76 64.1088 336.361 68.2203L325.482 86.9615H310.809L332.771 50.88H332.765Z" fill="white"/>
</svg>
