<svg xmlns="http://www.w3.org/2000/svg" width="117" height="117" viewBox="0 0 117 117" fill="none">
<g clip-path="url(#clip0_2469_21955)">
<path d="M41.0891 91.7295L23.634 101.251C22.6097 101.809 21.6891 102.496 20.8326 103.244C31.0094 111.825 44.1465 117.001 58.5 117.001C72.7475 117.001 85.8007 111.902 95.9488 103.438C95.0128 102.648 93.9973 101.937 92.8715 101.376L74.1802 92.0319C71.7651 90.8244 70.2397 88.3563 70.2397 85.6565V78.323C70.7651 77.7248 71.3656 76.9566 72.008 76.0493C74.5555 72.451 76.4827 68.4928 77.8182 64.3404C80.2156 63.6009 81.9817 61.3867 81.9817 58.7553V50.9274C81.9817 49.2055 81.2156 47.6668 80.0258 46.5896V35.2737C80.0258 35.2737 82.3503 17.6641 58.5022 17.6641C34.6541 17.6641 36.9786 35.2737 36.9786 35.2737V46.5896C35.7865 47.6668 35.0227 49.2055 35.0227 50.9274V58.7553C35.0227 60.8172 36.1066 62.6318 37.7292 63.6804C39.6851 72.1949 44.8066 78.323 44.8066 78.323V85.4755C44.8044 88.0804 43.3783 90.48 41.0891 91.7295Z" fill="#E7ECED"/>
<path d="M59.4999 0.00871134C27.1969 -0.543175 0.560604 25.1968 0.0087171 57.4999C-0.304755 75.8159 7.85875 92.2776 20.8568 103.225C21.7067 102.483 22.6184 101.803 23.6317 101.251L41.0868 91.7301C43.376 90.4806 44.8021 88.081 44.8021 85.4717V78.3192C44.8021 78.3192 39.6783 72.1911 37.7247 63.6766C36.1043 62.628 35.0182 60.8156 35.0182 58.7515V50.9236C35.0182 49.2017 35.7842 47.663 36.9741 46.5858V35.2699C36.9741 35.2699 34.6495 17.6603 58.4977 17.6603C82.3458 17.6603 80.0213 35.2699 80.0213 35.2699V46.5858C81.2133 47.663 81.9771 49.2017 81.9771 50.9236V58.7515C81.9771 61.3829 80.2111 63.5971 77.8137 64.3366C76.4782 68.489 74.551 72.4472 72.0035 76.0455C71.3611 76.9528 70.7606 77.721 70.2352 78.3192V85.6527C70.2352 88.3525 71.7606 90.8228 74.1757 92.0281L92.867 101.373C93.9884 101.933 95.0017 102.642 95.9355 103.43C108.541 92.9178 116.684 77.2 116.987 59.4999C117.543 27.1969 91.8051 0.560598 59.4999 0.00871134Z" fill="#99ABB4"/>
</g>
<defs>
<clipPath id="clip0_2469_21955">
<rect width="117" height="117" fill="white"/>
</clipPath>
</defs>
</svg>