<svg id="Artwork" xmlns="http://www.w3.org/2000/svg" viewBox="0 0 1616.59 700" width="1616.59" height="700">
  <defs>
    <style>
      .cls-1 {
        fill: #0660b2;
      }
    </style>
  </defs>
  <path class="cls-1" d="m380.28,459.57l-12.24-7.84v-102.6h-10.68v95.75l-5.71-3.66c-1.75-1.12-4.01-1.12-5.76,0l-5.38,3.44v-95.54h-10.68v102.38l-12.57,8.05v-108s-10.67,0-10.67,0v117.73c0,.43.05.81.16,1.26.03.12.06.23.09.34.13.4.28.75.45,1.06.04.06.08.12.12.18l.17.25c.06.1.13.21.21.3l36.84,45.1c1.02,1.25,2.53,1.96,4.14,1.96s3.12-.72,4.14-1.96l36.84-45.1c.05-.1.08-.16.11-.21.27-.36.48-.73.64-1.14l.07-.16c.03-.07.06-.14.09-.21.2-.59.29-1.13.29-1.65v-54.06s0-63.7,0-63.7h-10.68v108Zm-19.94,32.25h-.18s-23.04-.11-23.04-.11l-17.26-21.13,28.91-18.53.2.13,28.71,18.4-17.35,21.24Z" />
  <g>
    <path class="cls-1" d="m524.25,76.39H175c-17.29,0-31.35,14.07-31.35,31.35v298.61c0,113.59,92.41,206.01,205.99,206.01s205.97-92.42,205.97-206.01V107.75c0-17.29-14.06-31.35-31.35-31.35Zm-174.61,520.97c-105.31,0-190.99-85.68-190.99-191.01v-55.52h147.55v-111.89c0-3.16,2.56-5.71,5.72-5.71h31.99v-57h-43.23c-3.16,0-5.71-2.56-5.71-5.71s2.56-5.71,5.71-5.71h97.89c3.16,0,5.71,2.55,5.71,5.71s-2.56,5.71-5.71,5.71h-43.23v57.01h30.28c1.52,0,2.97.6,4.04,1.67,1.07,1.07,1.67,2.53,1.67,4.04v111.89s149.26,0,149.26,0v55.52c0,105.32-85.67,191.01-190.96,191.01Z" />
    <polygon class="cls-1" points="317.63 350.84 379.9 350.84 379.9 332.43 355.92 332.43 355.92 321 379.91 321 379.91 305.72 346.97 305.72 346.97 294.29 379.91 294.29 379.91 279 355.92 279.01 355.92 267.58 379.91 267.57 379.91 244.67 317.63 244.67 317.63 350.84" />
  </g>
  <g>
    <path class="cls-1" d="m670.13,154.47h-14.02v-23.95h70.12c28.7,0,48.76,20.07,48.76,49.84s-20.07,50.49-48.76,50.49h-27.83v52.86h-28.26v-129.24Zm50.92,52.21c15.97,0,25.03-10.36,25.03-26.32s-9.06-25.89-24.6-25.89h-23.09v52.21h22.65Z" />
    <path class="cls-1" d="m802.61,201.73c0-3.24-1.73-4.75-4.75-4.75h-8.63v-23.3h25.03c9.71,0,14.67,4.1,14.67,13.38v6.47c0,4.1-.43,6.9-.43,6.9h.43c4.96-15.75,18.12-28.26,34.95-28.26,2.37,0,4.96.43,4.96.43v26.97s-2.8-.43-6.69-.43c-11.65,0-25.03,6.69-29.99,23.09-1.51,5.39-2.37,11.44-2.37,17.91v43.58h-27.19v-81.99Z" />
    <path class="cls-1" d="m937.67,171.09c31.5,0,48.76,23.09,48.76,52.21,0,3.24-.65,10.14-.65,10.14h-75.95c2.16,19.42,16.4,29.56,33.01,29.56,17.69,0,30.85-12.3,30.85-12.3l11.44,18.99s-16.83,16.61-44.23,16.61c-36.46,0-59.12-26.32-59.12-57.61,0-33.87,22.87-57.61,55.88-57.61Zm20.71,43.37c-.43-13.16-9.49-22.22-20.71-22.22-14.02,0-23.95,8.41-26.97,22.22h47.68Z" />
    <path class="cls-1" d="m1018.37,201.73c0-3.24-1.73-4.75-4.75-4.75h-8.63v-23.3h24.38c10.14,0,13.81,4.53,13.81,10.57v4.31h.43s9.28-17.48,34.95-17.48c29.77,0,48.98,23.52,48.98,57.61s-21.58,57.61-50.49,57.61c-21.79,0-31.5-14.46-31.5-14.46h-.43s.43,3.88.43,9.49v45.53h-27.19v-125.14Zm53.72,61.49c15.1,0,27.83-12.3,27.83-34.09s-11.22-34.52-27.4-34.52c-14.24,0-27.62,10.36-27.62,34.74,0,17.05,9.06,33.87,27.19,33.87Z" />
    <path class="cls-1" d="m670.13,375.03h-14.02v-23.95h62.35c47.25,0,78.1,28.05,78.1,76.38s-30.85,76.81-78.1,76.81h-33.66c-10.36,0-14.67-4.31-14.67-14.67v-114.57Zm33.01,105.29h13.81c30.64,0,50.27-18.34,50.27-52.86s-20.07-52.43-50.27-52.43h-18.56v100.54c0,3.02,1.73,4.75,4.75,4.75Z" />
    <path class="cls-1" d="m876.61,391.64c33.66,0,60.41,23.95,60.41,57.61s-26.75,57.61-60.41,57.61-60.2-23.73-60.2-57.61,26.75-57.61,60.2-57.61Zm0,91.91c17.91,0,32.8-13.81,32.8-34.31s-14.89-34.31-32.8-34.31-32.58,14.02-32.58,34.31,14.89,34.31,32.58,34.31Z" />
    <path class="cls-1" d="m1016.42,391.64c14.24,0,39.92,5.83,39.92,24.81v12.95h-24.17v-6.04c0-6.04-9.06-8.63-15.75-8.63-18.99,0-32.58,14.46-32.58,34.31,0,22.44,16.61,33.87,34.31,33.87,18.77,0,32.58-14.89,32.58-14.89l11.44,18.99s-16.4,19.85-46.39,19.85c-36.25,0-59.55-25.68-59.55-57.61s22.44-57.61,60.2-57.61Z" />
    <path class="cls-1" d="m1089.13,416.03h-14.24v-21.79h14.89v-29.99h26.75v29.99h25.03v21.79h-25.03v44.45c0,18.12,14.24,20.71,21.79,20.71,3.02,0,4.96-.43,4.96-.43v23.95s-3.45.65-8.41.65c-15.32,0-45.74-4.53-45.74-41.43v-47.9Z" />
    <path class="cls-1" d="m1221.4,391.64c33.66,0,60.41,23.95,60.41,57.61s-26.75,57.61-60.41,57.61-60.2-23.73-60.2-57.61,26.75-57.61,60.2-57.61Zm0,91.91c17.91,0,32.8-13.81,32.8-34.31s-14.89-34.31-32.8-34.31-32.58,14.02-32.58,34.31,14.89,34.31,32.58,34.31Z" />
    <path class="cls-1" d="m1312.01,422.28c0-3.24-1.73-4.75-4.75-4.75h-8.63v-23.3h25.03c9.71,0,14.67,4.1,14.67,13.38v6.47c0,4.1-.43,6.9-.43,6.9h.43c4.96-15.75,18.12-28.26,34.95-28.26,2.37,0,4.96.43,4.96.43v26.97s-2.8-.43-6.69-.43c-11.65,0-25.03,6.69-29.99,23.09-1.51,5.39-2.37,11.44-2.37,17.91v43.58h-27.19v-81.99Z" />
    <path class="cls-1" d="m1406.73,469.32s14.02,16.18,32.8,16.18c8.41,0,14.89-3.45,14.89-10.79,0-15.53-58.04-15.32-58.04-50.92,0-22.01,19.85-32.15,42.72-32.15,14.89,0,38.62,4.96,38.62,22.87v11.44h-24.17v-5.39c0-5.18-7.77-7.77-13.81-7.77-9.71,0-16.4,3.45-16.4,9.92,0,17.26,58.47,13.81,58.47,50.49,0,20.71-18.34,33.66-42.29,33.66-30.21,0-45.74-19.63-45.74-19.63l12.95-17.91Z" />
  </g>
</svg>