<svg width="139" height="40" viewBox="0 0 139 40" fill="none" xmlns="http://www.w3.org/2000/svg">
<g clip-path="url(#clip0_20053_42940)">
<path d="M17.3905 28.3989L16.4754 27.799V20.3198H15.6796V27.3191L15.2419 27.0391C15.1225 26.9591 14.9236 26.9591 14.8042 27.0391L14.4063 27.2791V20.3198H13.6106V27.799L12.6954 28.3989V20.3998H11.8997V29.1989L11.9394 29.2788L14.6451 32.5985C14.7247 32.6785 14.844 32.7585 14.9634 32.7585C15.0828 32.7585 15.2021 32.7185 15.2817 32.5985L17.9873 29.2788C18.0271 29.2388 18.0271 29.2388 18.0271 29.1989V20.3998H17.3507V28.3989H17.3905ZM15.9183 30.7587H14.2074L12.9342 29.1989L15.043 27.839L17.1518 29.1589L15.9183 30.7587Z" fill="#02376D"/>
<path d="M28.0156 0H2.3121C1.03886 0 0.0043532 1.03989 0.0043532 2.31975V24.4373C-0.19459 32.8764 6.45013 39.8356 14.8455 39.9956C23.2012 40.1956 30.1244 33.5163 30.3234 25.0773V2.35974C30.3234 1.07988 29.2889 0.0399956 28.0156 0ZM29.2093 24.4373C29.2093 32.2365 22.9227 38.5558 15.1639 38.5958C7.40506 38.5958 1.11844 32.2765 1.07865 24.4373V20.3578H11.941V12.0387C11.941 11.7987 12.1399 11.5987 12.3786 11.5987H14.7262V7.39919H11.5431C11.3044 7.39919 11.1054 7.19921 11.1054 6.95924C11.1054 6.71926 11.3044 6.51929 11.5431 6.51929H18.7448C18.9836 6.51929 19.1825 6.71926 19.1825 6.95924C19.1825 7.19921 18.9836 7.39919 18.7448 7.39919H15.5617V11.6387H17.7899C17.9093 11.6387 18.0286 11.6787 18.1082 11.7587C18.1878 11.8387 18.2276 11.9587 18.2276 12.0387V20.3178H29.2093V24.4373Z" fill="#02376D"/>
<path d="M13.6925 20.1996V20.3196H12.7773V12.4805H17.353V14.1603H15.6023V15.0002H17.353V16.1201H14.9259V16.96H17.353V18.0799H15.6023V18.9198H17.353V20.2396H16.4777V20.1196H15.6819V20.2396H14.4485V20.1196C14.4883 20.1996 13.6925 20.1996 13.6925 20.1996Z" fill="#02376D"/>
</g>
<path d="M38.6123 10.0641H36.1887V5.9043H48.3068C53.2664 5.9043 56.7344 9.38923 56.7344 14.5602C56.7344 19.7312 53.2664 23.329 48.3068 23.329H43.4956V32.5086H38.6102V10.0641H38.6123ZM47.4128 19.1309C50.1712 19.1309 51.7389 17.332 51.7389 14.5602C51.7389 11.7884 50.1733 10.0641 47.4891 10.0641H43.4998V19.1309H47.4149H47.4128Z" fill="#02376D"/>
<path d="M60.576 18.2715C60.576 17.7095 60.2773 17.4476 59.7561 17.4476H58.2646V13.4007H62.5907C64.2686 13.4007 65.1266 14.1117 65.1266 15.7233V16.8473C65.1266 17.5583 65.0525 18.0459 65.0525 18.0459H65.1266C65.9846 15.3103 68.2579 13.1367 71.1666 13.1367C71.5776 13.1367 72.0246 13.2112 72.0246 13.2112V17.8947C72.0246 17.8947 71.5395 17.8202 70.8679 17.8202C68.8553 17.8202 66.5418 18.9826 65.6838 21.8288C65.4232 22.7655 65.2728 23.815 65.2728 24.9391V32.5072H60.5739V18.2694L60.576 18.2715Z" fill="#02376D"/>
<path d="M82.9903 12.9489C88.4349 12.9489 91.4179 16.9575 91.4179 22.0157C91.4179 22.5777 91.3056 23.7763 91.3056 23.7763H78.179C78.5519 27.1484 81.0137 28.9089 83.8843 28.9089C86.9414 28.9089 89.2167 26.7737 89.2167 26.7737L91.1933 30.0713C91.1933 30.0713 88.2845 32.9559 83.5496 32.9559C77.2469 32.9559 73.3318 28.3852 73.3318 22.9503C73.3318 17.0682 77.285 12.9468 82.9903 12.9468V12.9489ZM86.5706 20.4808C86.4965 18.1944 84.9287 16.6212 82.9903 16.6212C80.5666 16.6212 78.8506 18.0816 78.3295 20.4808H86.5706Z" fill="#02376D"/>
<path d="M96.0006 18.2689C96.0006 17.7069 95.7018 17.445 95.1807 17.445H93.6892V13.3981H97.903C99.6551 13.3981 100.289 14.1858 100.289 15.2332V15.9825H100.363C100.363 15.9825 101.966 12.9468 106.403 12.9468C111.549 12.9468 114.866 17.032 114.866 22.9503C114.866 28.8685 111.138 32.9559 106.14 32.9559C102.373 32.9559 100.695 30.446 100.695 30.446H100.621C100.621 30.446 100.695 31.1208 100.695 32.0937V40.0002H95.9963V18.2668L96.0006 18.2689ZM105.286 28.9472C107.896 28.9472 110.097 26.812 110.097 23.0269C110.097 19.2418 108.159 17.032 105.362 17.032C102.901 17.032 100.589 18.8309 100.589 23.0652C100.589 26.0243 102.155 28.9472 105.288 28.9472H105.286Z" fill="#02376D"/>
<path d="M124.446 19.021L119.525 10.9654C119.039 10.1415 118.741 10.067 117.921 10.067H116.802V5.90723H119.859C121.65 5.90723 122.357 6.32022 123.253 7.85513L125.789 12.2768C126.647 13.8138 127.467 15.4998 127.467 15.4998H127.541C127.541 15.4998 128.249 13.8138 129.145 12.2768L131.717 7.85513C132.611 6.2819 133.359 5.90723 135.147 5.90723H138.168V10.067H137.049C136.229 10.067 135.931 10.1798 135.446 10.9654L130.486 19.021L138.727 32.5094H133.246L129.145 25.5033C128.251 23.9301 127.467 22.3931 127.467 22.3931H127.393C127.393 22.3931 126.685 23.9663 125.789 25.5033L121.726 32.5094H116.245L124.448 19.021H124.446Z" fill="#02376D"/>
<defs>
<clipPath id="clip0_20053_42940">
<rect width="30.1887" height="40" fill="white"/>
</clipPath>
</defs>
</svg>
