<svg width="2562" height="736" viewBox="0 0 2562 736" fill="none" xmlns="http://www.w3.org/2000/svg">
<g clip-path="url(#clip0_3023_136749)">
<path d="M498.613 0H41.0876C18.4091 0 0 18.684 0 41.6766V438.466C0 589.427 121.069 712.224 269.87 712.224C418.67 712.224 539.7 589.427 539.7 438.466V41.6766C539.7 18.7232 521.252 0 498.613 0ZM520.038 438.466C520.038 578.42 407.821 692.247 269.87 692.247C131.919 692.247 19.6625 578.42 19.6625 438.466V364.71H54.1698C47.3153 338.779 45.3178 311.086 49.2738 282.257C62.356 186.918 148.8 110.968 243.666 109.793C348.872 108.5 441.31 199.962 427.757 308.854C434.964 331.024 464.615 347.436 473.114 364.71H520.038V438.466Z" fill="white"/>
<path d="M147.04 496.045V548.298C147.797 549.081 148.555 549.878 149.312 550.687C187.07 548.494 355.651 553.546 372.493 550.687C392.43 547.279 402.692 524.678 403.671 505.564C410.134 498.709 416.597 491.854 423.099 484.999C425.057 462.085 427.015 439.171 428.974 416.256C433.361 409.833 457.841 383.236 458.781 381.082C461.366 375.402 460.778 369.997 458.233 364.709H444.249C446.717 368.665 447.97 372.543 447.03 376.342C445.855 381.121 407.94 417.118 420.827 428.595C418.124 446.652 415.422 464.709 412.68 482.767L405.904 491.776C383.46 502.156 398.031 533.922 366.148 538.349C342.255 541.678 200.662 535.842 160.122 538.349C160.279 473.092 162.042 496.124 126.673 465.179C97.3356 439.523 76.733 403.565 66.5101 364.709H54.0938C67.6852 417.784 101.213 463.417 146.962 496.084L147.04 496.045Z" fill="white"/>
<path d="M273.315 341.169C272.962 340.895 271.865 340.934 269.672 340.895C266.382 340.895 264.698 340.895 262.387 341.286C261.447 341.443 260.154 341.717 258.705 342.187C257.686 343.519 256.59 344.89 255.454 346.378C254.357 347.788 253.3 349.199 252.203 350.609C245.192 359.735 238.494 368.823 232.07 377.832H245.348C251.419 368.94 257.491 360.009 263.562 351.118C274.842 361.028 278.876 345.086 273.315 341.208V341.169Z" fill="white"/>
<path d="M302.813 272.857C302.813 272.857 304.223 271.094 304.301 270.428C305.75 254.643 288.203 256.68 290.553 270.428C291.062 273.444 292.942 273.836 293.021 274.071C293.804 277.322 292.433 329.105 293.021 339.994C303.478 352.881 307.669 358.012 313.114 364.71H326.079C318.832 355.662 315.229 351.157 302.852 335.724C303.557 315.591 301.912 292.598 302.852 272.857H302.813Z" fill="white"/>
<path d="M429.639 334.51C402.809 300.706 423.882 286.37 410.917 241.403C389.844 168.312 314.132 120.016 240.887 122.131C152.053 124.677 69.9565 197.416 60.5561 287.937C57.8927 313.436 60.2428 339.641 67.058 364.67H81.5895C83.2346 341.678 82.412 303.448 83.5087 298.826C91.4599 286.762 105.404 275.638 104.66 258.912C118.342 241.286 132.025 223.646 145.708 205.994H167.838C177.5 192.075 187.174 178.17 196.862 164.278H242.571L256.319 179.397H308.922C315.189 188.72 365.56 245.046 366.696 249.825C367.048 251.352 366.422 256.758 366.696 259.5C360.873 259.604 355.05 259.709 349.227 259.813C349.971 219.155 326 229.3 323.18 227.772C321.613 226.009 322.906 221.387 322.436 218.998C321.926 216.178 303.987 190.404 301.559 189.66H246.488C240.587 197.311 234.685 204.975 228.784 212.653L204.186 213.24C189.772 230.788 176.22 249.355 162.159 267.373C156.166 275.011 143.593 283.981 150.604 291.854C152.758 294.243 156.91 294.361 159.456 292.441C162.511 290.17 161.65 284.725 164.117 281.866C170.032 275.716 205.048 225.814 208.103 224.717C209.592 224.169 216.054 225.109 218.914 224.717L219.658 225.618C212.451 235.489 204.539 244.772 198.507 255.857C198.167 263.717 197.841 271.577 197.528 279.437C190.556 288.394 183.597 297.364 176.651 306.347C157.485 306.556 138.305 306.751 119.113 306.934C117.546 305.72 122.951 297.729 123.774 296.358C128.944 287.976 192.945 203.918 198.272 198.708C198.468 198.512 201.288 199.296 202.933 196.005C206.027 189.738 201.64 181.787 195.804 183.001C193.337 183.51 183.035 200.823 180.333 204.466C171.442 216.452 111.788 292.167 110.026 298.199C109.046 301.49 109.947 306.425 109.281 306.973C100.116 308.736 97.6877 302.391 92.5566 303.957C87.7781 305.407 85.9763 316.531 91.5774 319.664C95.8076 322.015 104.033 317.236 109.516 319.351C109.438 325.697 109.36 332.042 109.281 338.388C98.4319 340.346 87.1906 331.964 85.428 342.305C82.5687 359.03 99.8419 348.728 109.046 351.392C109.125 356.993 109.164 361.145 109.203 364.631H119.034C119.034 361.302 119.074 357.502 119.152 351.079H184.054C194.551 338.388 205.035 325.684 215.506 312.966C226.316 312.757 237.127 312.562 247.937 312.379C250.836 311.478 254.87 309.676 256.084 306.151C259.022 297.534 241.161 289.817 237.362 273.366C234.346 260.322 238.38 240.894 248.917 238.583C254.283 237.408 300.07 239.21 312.604 238.896C313.583 253.898 311.39 304.584 312.095 310.264C313.309 319.899 341.51 351.314 347.973 361.067C347.856 362.164 347.777 363.339 347.699 364.631H358.04C358.04 360.832 357.961 358.168 357.805 357.424C349.449 346.535 341.093 335.646 332.737 324.757C338.416 314.807 354.71 300.51 355.337 298.748C357.57 292.52 353.731 285.939 348.717 286.958C345.819 287.545 330.778 311.282 327.097 315.395C326 315.591 322.514 310.029 322.436 309.637C321.574 305.524 323.062 251.705 322.436 239.484C345.153 235.88 337.672 252.097 339.395 271.838C348.665 271.943 357.922 272.047 367.166 272.152V361.654C366.657 362.712 366.304 363.691 366.03 364.631H378.407C377.82 363.456 376.997 361.889 376.997 361.654C375.626 344.89 378.015 295.144 376.997 272.778C390.118 271.486 397.639 271.407 405.002 286.096V343.558C397.639 353.429 393.134 359.461 389.257 364.67H401.83C402.731 363.456 403.671 362.203 404.728 360.793C404.728 362.164 404.807 363.417 404.885 364.67H458.545C452.161 354.839 437.669 344.655 429.561 334.471L429.639 334.51ZM312.134 226.871C310.372 229.926 258.983 225.187 251.423 225.97C229.528 228.203 220.95 262.555 231.017 283.707C234.072 290.17 240.143 294.322 243.081 300.941H213.078C196.235 320.448 190.634 326.911 180.137 339.053C159.743 338.74 139.337 338.44 118.917 338.153C118.995 331.598 119.074 325.044 119.152 318.489H179.119C181.665 317.823 207.32 284.647 207.868 281.317V258.951C221.577 240.189 235.325 221.348 248.917 202.429C253.695 202.86 258.434 202.077 263.174 201.842C274.768 201.176 286.479 202.351 298.073 201.842C301.48 205.759 315.542 220.996 312.095 226.95L312.134 226.871ZM400.145 264.983C393.017 259.265 384.831 260.44 376.801 260.44C375.783 251.783 378.368 250.021 374.099 242.617C371.161 237.525 321.3 178.418 311.899 166.746H258.787L245.509 152.253H193.376C183.218 166.354 173.061 180.468 162.903 194.595H142.731C135.681 202.625 95.1809 252.332 94.3192 258.403C93.1833 266.315 98.8236 262.085 84.2529 281.082C84.3313 271.499 84.4096 261.928 84.4879 252.371C105.756 224.795 126.986 197.024 148.646 169.84C149.586 170.702 153.816 170.702 154.56 170.428C156.205 169.84 175.163 143.557 179.158 140.815H308.962C339.356 177.191 369.751 213.567 400.145 249.942V265.062V264.983Z" fill="white"/>
<path d="M192.432 392.285C192.079 392.167 191.413 392.285 190.943 392.285C183.266 392.637 183.814 407.247 178.174 408.618C170.654 410.459 168.617 397.768 162.429 394.713C149.059 395.027 135.703 395.327 122.359 395.614C137.191 413.867 152.023 432.107 166.855 450.334H199.795C202.067 443.049 194.429 436.037 200.774 430.397C205.083 426.558 211.036 430.162 211.82 434.941C212.799 440.542 208.843 445.321 210.096 450.961C217.147 452.449 222.983 447.318 227.801 449.747C231.286 451.509 233.362 460.205 229.524 463.339V492.951C235.007 499.649 229.211 510.225 221.886 507.17C213.426 503.605 219.575 494.4 219.693 493.578C220.711 486.253 219.849 471.212 220.202 462.751L209.626 462.438C209.705 468.901 208.726 493.382 209.391 496.594C209.666 497.965 216.481 501.921 209.391 514.729C218.478 515.043 227.579 515.343 236.692 515.63C236.77 492.964 236.848 470.285 236.927 447.592C231.091 441.56 195.526 393.186 192.432 392.285Z" fill="white"/>
<path d="M337.711 379.28V420.996C349.031 437.056 343.234 454.839 344.605 474.815C344.918 475.599 351.498 475.403 353.222 474.502C357.217 472.465 404.807 405.955 412.954 397.416C409.389 385.038 405.707 377.478 404.963 364.709H401.908C390.628 379.789 389.609 381.121 376.527 398.63C377.193 407.874 374.999 421.466 378.015 428.242C378.799 437.957 368.106 441.208 364.737 433.06C361.761 425.931 366.539 422.994 366.696 422.171C367.479 418.45 365.717 401.019 367.205 394.361C378.76 378.849 383.264 372.817 389.335 364.67H378.446C378.76 365.297 378.995 365.806 378.995 365.923C380.601 378.771 361.643 379.084 366.03 364.67H358.079C358.157 379.829 357.413 413.789 357.844 423.385C357.844 424.169 362.113 432.669 355.65 436.977C353.339 438.544 349.971 438.231 347.777 436.39C341.824 431.415 347.425 422.994 347.542 422.171C348.522 414.22 346.837 381.513 347.777 364.67H326.039C329.016 368.391 332.619 372.896 337.711 379.241V379.28Z" fill="white"/>
<path d="M175.199 392.285C183.698 383.902 191.336 374.345 198.896 364.709H119.071C119.071 369.605 118.992 373.444 118.914 382.923C135.404 386.252 166.073 375.951 175.199 392.285Z" fill="white"/>
<path d="M212.688 364.709C208.223 370.075 205.833 372.935 198.078 382.296C214.294 402.664 230.523 423.02 246.764 443.362V515.317C255.773 515.108 264.782 514.912 273.791 514.729V453.664C237.951 419.037 222.01 398.943 225.966 393.381C226.867 392.089 228.825 391.619 231.841 391.854C248.958 411.047 266.035 430.24 283.152 449.433V515.356L300.112 516.257C299.877 505.838 302.305 491.972 297.918 483.903C298.584 468.626 322.908 478.027 334.071 474.541C334.306 462.137 334.554 449.747 334.815 437.369C332.517 434.758 330.219 432.133 327.921 429.496V382.923C320.949 374.345 316.758 369.174 313.116 364.709H240.576C246.412 373.601 252.287 382.492 258.123 391.384C258.397 392.715 272.028 408.814 274.104 411.047C278.843 416.178 286.794 421.936 287.147 422.837C289.693 429.378 284.718 436.781 279.039 434.627C276.924 433.844 252.561 399.883 248.292 395.614C251.621 385.312 254.911 375.011 258.241 364.709H212.766H212.688Z" fill="white"/>
<path d="M179.63 498.67L199.527 498.356V462.673L162.905 461.772C145.122 439.706 127.34 417.641 109.558 395.575C109.362 379.084 109.323 374.932 109.205 364.67H81.5523C81.0823 371.015 80.4556 376.225 79.5547 379.241C112.9 419.038 146.245 458.847 179.591 498.67H179.63Z" fill="white"/>
<path d="M223.025 341.718C223.378 341.443 224.474 341.483 226.668 341.443C229.958 341.443 231.642 341.443 233.953 341.835C234.893 341.992 236.186 342.266 237.635 342.736C238.653 344.068 239.75 345.439 240.886 346.927C241.983 348.337 243.04 349.747 244.137 351.157C251.148 360.284 257.846 369.371 264.269 378.38H250.991C244.92 369.489 238.849 360.558 232.778 351.667C221.498 361.577 217.463 345.635 223.025 341.757V341.718Z" fill="white"/>
<path d="M274.26 391.188C273.907 391.462 272.811 391.423 270.617 391.462C267.327 391.462 265.643 391.462 263.332 391.07C262.392 390.914 261.099 390.639 259.65 390.169C258.632 388.838 257.535 387.467 256.399 385.978C254.636 383.706 253.305 381.983 253.148 381.748C249.78 377.361 243.591 367.647 241.711 364.67C244.57 364.67 247.469 364.709 250.328 364.748C255.067 370.232 259.807 375.755 264.507 381.239C275.787 371.329 279.822 387.271 274.26 391.149V391.188Z" fill="white"/>
<path d="M221.892 391.188C222.245 391.462 223.342 391.423 225.535 391.462C228.825 391.462 230.509 391.462 232.82 391.07C233.76 390.914 235.053 390.639 236.502 390.169C237.521 388.838 238.617 387.467 239.753 385.978C241.516 383.706 242.847 381.983 243.004 381.748C246.373 377.361 252.561 367.647 254.441 364.67C250.955 364.748 247.469 364.787 243.944 364.866C239.831 370.35 235.719 375.794 231.606 381.278C220.326 371.368 216.291 387.31 221.853 391.188H221.892Z" fill="white"/>
<path d="M269.633 320.173C269.633 320.173 268.223 321.936 268.145 322.602C266.696 338.387 284.243 336.351 281.893 322.602C281.384 319.586 279.504 319.194 279.425 318.959C278.642 315.708 280.013 263.926 279.425 253.036C268.967 240.15 264.776 235.018 259.332 228.32H246.367C253.613 237.369 257.217 241.873 269.594 257.306C268.889 277.439 270.534 300.432 269.594 320.173H269.633Z" fill="white"/>
<path d="M711.02 185.155H666.211V108.617H890.254C981.947 108.617 1046.07 172.738 1046.07 267.881C1046.07 363.025 981.947 429.222 890.254 429.222H801.303V598.122H710.98V185.155H711.02ZM873.725 351.979C924.722 351.979 953.706 318.881 953.706 267.881C953.706 216.882 924.761 185.155 875.135 185.155H801.381V351.979H873.764H873.725Z" fill="white"/>
<path d="M1117.08 336.155C1117.08 325.814 1111.55 320.997 1101.92 320.997H1074.34V246.535H1154.33C1185.35 246.535 1201.21 259.617 1201.21 289.269V309.951C1201.21 323.033 1199.84 332.003 1199.84 332.003H1201.21C1217.07 281.67 1259.1 241.678 1312.88 241.678C1320.48 241.678 1328.74 243.049 1328.74 243.049V329.222C1328.74 329.222 1319.77 327.851 1307.36 327.851C1270.15 327.851 1227.37 349.238 1211.51 401.608C1206.69 418.843 1203.91 438.153 1203.91 458.835V598.084H1117.04V336.116L1117.08 336.155Z" fill="white"/>
<path d="M1531.4 238.231C1632.06 238.231 1687.21 311.987 1687.21 405.055C1687.21 415.395 1685.13 437.448 1685.13 437.448H1442.45C1449.34 499.493 1494.85 531.886 1547.93 531.886C1604.45 531.886 1646.51 492.599 1646.51 492.599L1683.06 553.273C1683.06 553.273 1629.28 606.348 1541.74 606.348C1425.21 606.348 1352.83 522.251 1352.83 422.25C1352.83 314.024 1425.92 238.191 1531.4 238.191V238.231ZM1597.59 376.813C1596.22 334.745 1567.24 305.798 1531.4 305.798C1486.59 305.798 1454.86 332.669 1445.23 376.813H1597.59Z" fill="white"/>
<path d="M1771.97 336.155C1771.97 325.814 1766.45 320.996 1756.82 320.996H1729.24V246.534H1807.15C1839.54 246.534 1851.25 261.027 1851.25 280.299V294.087H1852.62C1852.62 294.087 1882.27 238.23 1964.29 238.23C2059.43 238.23 2120.77 313.397 2120.77 422.289C2120.77 531.181 2051.83 606.387 1959.43 606.387C1889.79 606.387 1858.77 560.206 1858.77 560.206H1857.4C1857.4 560.206 1858.77 572.623 1858.77 590.523V736H1771.9V336.116L1771.97 336.155ZM1943.65 532.63C1991.91 532.63 2032.6 493.343 2032.6 423.699C2032.6 354.055 1996.76 313.397 1945.06 313.397C1899.55 313.397 1856.81 346.496 1856.81 424.404C1856.81 478.85 1885.76 532.63 1943.69 532.63H1943.65Z" fill="white"/>
<path d="M2297.96 349.942L2206.98 201.724C2198.01 186.565 2192.48 185.194 2177.33 185.194H2156.65V108.656H2213.16C2246.26 108.656 2259.34 116.255 2275.91 144.497L2322.8 225.852C2338.66 254.133 2353.82 285.155 2353.82 285.155H2355.19C2355.19 285.155 2368.27 254.133 2384.84 225.852L2432.39 144.497C2448.92 115.55 2462.75 108.656 2495.8 108.656H2551.66V185.194H2530.98C2515.82 185.194 2510.3 187.27 2501.33 201.724L2409.63 349.942L2562 598.122H2460.67L2384.84 469.214C2368.31 440.268 2353.82 411.987 2353.82 411.987H2352.45C2352.45 411.987 2339.37 440.933 2322.8 469.214L2247.67 598.122H2146.34L2298 349.942H2297.96Z" fill="white"/>
</g>
<defs>
<clipPath id="clip0_3023_136749">
<rect width="2562" height="736" fill="white"/>
</clipPath>
</defs>
</svg>
