<svg width="139" height="40" viewBox="0 0 139 40" fill="none" xmlns="http://www.w3.org/2000/svg">
<path d="M26.9692 0H2.22236C0.995719 0 0 1.01546 0 2.2651V23.8304C0 32.035 6.54844 38.7089 14.5968 38.7089C22.6452 38.7089 29.1915 32.035 29.1915 23.8304V2.2651C29.1915 1.01759 28.1937 0 26.9692 0ZM28.128 23.8304C28.128 31.4368 22.0584 37.6232 14.5968 37.6232C7.13528 37.6232 1.06351 31.4368 1.06351 23.8304V19.8218H2.92996C2.55921 18.4125 2.45116 16.9074 2.66514 15.3405C3.37273 10.1589 8.04838 6.03104 13.1795 5.96718C18.8699 5.89692 23.8697 10.8678 23.1367 16.786C23.5265 17.9909 25.1303 18.8829 25.59 19.8218H28.128V23.8304Z" fill="#02376D"/>
<path d="M7.9531 26.9603V29.8002C7.99406 29.8428 8.03502 29.8861 8.07598 29.9301C10.1183 29.8108 19.2365 30.0855 20.1475 29.9301C21.2258 29.7449 21.7809 28.5165 21.8339 27.4776C22.1834 27.1051 22.533 26.7325 22.8847 26.36C22.9906 25.1146 23.0965 23.8692 23.2024 22.6238C23.4397 22.2747 24.7638 20.8292 24.8147 20.7121C24.9545 20.4034 24.9227 20.1097 24.785 19.8223H24.0287C24.1621 20.0373 24.2299 20.248 24.1791 20.4545C24.1155 20.7143 22.0648 22.6707 22.7618 23.2944C22.6156 24.2758 22.4694 25.2572 22.3211 26.2386L21.9546 26.7283C20.7407 27.2924 21.5288 29.0189 19.8043 29.2595C18.512 29.4404 10.8534 29.1232 8.6607 29.2595C8.66918 25.7128 8.76451 26.9646 6.85146 25.2828C5.26466 23.8884 4.1503 21.9341 3.59736 19.8223H2.92578C3.66092 22.7069 5.4744 25.187 7.94887 26.9624L7.9531 26.9603Z" fill="#02376D"/>
<path d="M14.7855 18.5422C14.7665 18.5273 14.7071 18.5295 14.5885 18.5273C14.4105 18.5273 14.3194 18.5273 14.1944 18.5486C14.1436 18.5571 14.0737 18.5721 13.9953 18.5976C13.9402 18.67 13.8809 18.7445 13.8195 18.8254C13.7601 18.902 13.7029 18.9787 13.6436 19.0553C13.2644 19.5513 12.9021 20.0452 12.5547 20.5349H13.2729C13.6013 20.0516 13.9296 19.5662 14.258 19.083C14.8681 19.6216 15.0864 18.7551 14.7855 18.5444V18.5422Z" fill="#02376D"/>
<path d="M16.378 14.8303C16.378 14.8303 16.4542 14.7345 16.4585 14.6984C16.5369 13.8404 15.5877 13.9511 15.7149 14.6984C15.7424 14.8623 15.8441 14.8836 15.8483 14.8963C15.8907 15.073 15.8166 17.8874 15.8483 18.4792C16.414 19.1796 16.6407 19.4585 16.9351 19.8225H17.6364C17.2445 19.3307 17.0495 19.0859 16.3801 18.2471C16.4182 17.1529 16.3292 15.9033 16.3801 14.8303H16.378Z" fill="#02376D"/>
<path d="M23.2359 18.181C21.7847 16.3438 22.9245 15.5647 22.2233 13.1208C21.0835 9.14831 16.9883 6.52344 13.0266 6.6384C8.22175 6.77677 3.78126 10.7301 3.27281 15.6498C3.12875 17.0357 3.25586 18.4599 3.62449 19.8203H4.41047C4.49945 18.5706 4.45496 16.4929 4.51428 16.2417C4.94435 15.586 5.69855 14.9814 5.6583 14.0724C6.39838 13.1144 7.13846 12.1557 7.87854 11.1963H9.07553C9.5981 10.4398 10.1214 9.68408 10.6454 8.92904H13.1177L13.8613 9.75078H16.7066C17.0455 10.2574 19.77 13.3187 19.8314 13.5785C19.8505 13.6615 19.8166 13.9553 19.8314 14.1043C19.5165 14.11 19.2015 14.1156 18.8865 14.1213C18.9268 11.9116 17.6302 12.4629 17.4777 12.3799C17.393 12.2841 17.4629 12.0329 17.4375 11.9031C17.4099 11.7498 16.4396 10.349 16.3083 10.3085H13.3296C13.0104 10.7244 12.6912 11.1409 12.372 11.5582L11.0415 11.5901C10.2619 12.5438 9.5289 13.5529 8.76834 14.5322C8.4442 14.9473 7.76414 15.4348 8.14336 15.8627C8.25988 15.9926 8.48445 15.999 8.62216 15.8947C8.7874 15.7712 8.74079 15.4753 8.87426 15.3199C9.19416 14.9856 11.0882 12.2735 11.2534 12.2139C11.3339 12.1841 11.6835 12.2352 11.8381 12.2139L11.8784 12.2628C11.4886 12.7993 11.0606 13.3038 10.7344 13.9063C10.716 14.3335 10.6983 14.7607 10.6814 15.1879C10.3043 15.6747 9.92789 16.1622 9.5522 16.6504C8.51552 16.6617 7.47814 16.6724 6.44005 16.6823C6.3553 16.6163 6.64767 16.182 6.69215 16.1075C6.9718 15.652 10.4335 11.0834 10.7216 10.8003C10.7322 10.7897 10.8848 10.8322 10.9737 10.6534C11.1411 10.3128 10.9038 9.88064 10.5882 9.94663C10.4547 9.97431 9.89752 10.9153 9.75134 11.1132C9.27043 11.7647 6.04388 15.8797 5.94854 16.2076C5.89558 16.3864 5.94431 16.6547 5.90829 16.6845C5.41255 16.7803 5.2812 16.4354 5.00367 16.5205C4.7452 16.5993 4.64775 17.2039 4.9507 17.3742C5.17951 17.5019 5.6244 17.2422 5.921 17.3572C5.91676 17.702 5.91253 18.0469 5.90829 18.3918C5.32145 18.4982 4.71343 18.0427 4.61809 18.6047C4.46344 19.5137 5.39772 18.9538 5.89558 19.0986C5.89982 19.403 5.90193 19.6287 5.90405 19.8181H6.43581C6.43581 19.6372 6.43793 19.4307 6.44217 19.0815H9.95261C10.5204 18.3918 11.0874 17.7013 11.6538 17.0102C12.2385 16.9988 12.8232 16.9882 13.408 16.9782C13.5647 16.9293 13.7829 16.8313 13.8486 16.6398C14.0075 16.1714 13.0415 15.752 12.836 14.8579C12.6728 14.149 12.891 13.0931 13.4609 12.9675C13.7512 12.9036 16.2278 13.0015 16.9057 12.9845C16.9587 13.7999 16.84 16.5546 16.8782 16.8633C16.9438 17.387 18.4692 19.0943 18.8187 19.6244C18.8124 19.684 18.8082 19.7479 18.8039 19.8181H19.3632C19.3632 19.6116 19.359 19.4669 19.3505 19.4264C18.8985 18.8346 18.4466 18.2428 17.9946 17.651C18.3018 17.1102 19.1831 16.3332 19.217 16.2374C19.3378 15.8989 19.1302 15.5413 18.859 15.5966C18.7022 15.6285 17.8887 16.9186 17.6896 17.1422C17.6302 17.1528 17.4417 16.8505 17.4375 16.8292C17.3908 16.6057 17.4713 13.6806 17.4375 13.0164C18.6662 12.8206 18.2616 13.7019 18.3548 14.7749C18.8562 14.7806 19.3569 14.7862 19.8568 14.7919V19.6563C19.8293 19.7138 19.8102 19.767 19.7954 19.8181H20.4649C20.4331 19.7543 20.3886 19.6691 20.3886 19.6563C20.3144 18.7452 20.4437 16.0415 20.3886 14.826C21.0983 14.7557 21.5051 14.7515 21.9034 15.5498V18.6728C21.5051 19.2093 21.2614 19.5371 21.0517 19.8203H21.7318C21.7805 19.7543 21.8313 19.6861 21.8885 19.6095C21.8885 19.684 21.8928 19.7521 21.897 19.8203H24.7994C24.4541 19.2859 23.6702 18.7324 23.2317 18.1789L23.2359 18.181ZM16.8803 12.3309C16.7849 12.497 14.0054 12.2394 13.5965 12.282C12.4122 12.4033 11.9483 14.2703 12.4928 15.4199C12.658 15.7712 12.9864 15.9968 13.1453 16.3566H11.5225C10.6115 17.4168 10.3085 17.768 9.74075 18.428C8.63769 18.411 7.53393 18.3946 6.42945 18.379C6.43369 18.0228 6.43793 17.6666 6.44217 17.3103H9.68567C9.82337 17.2741 11.211 15.471 11.2407 15.2901V14.0745C11.9822 13.0548 12.7258 12.0308 13.4609 11.0025C13.7194 11.026 13.9757 10.9834 14.2321 10.9706C14.8592 10.9344 15.4926 10.9983 16.1197 10.9706C16.304 11.1835 17.0646 12.0116 16.8782 12.3352L16.8803 12.3309ZM21.6407 14.4023C21.2551 14.0915 20.8123 14.1554 20.378 14.1554C20.3229 13.6849 20.4627 13.5891 20.2318 13.1867C20.0729 12.91 17.376 9.69756 16.8676 9.06316H13.9948L13.2766 8.27548H10.4568C9.90741 9.04187 9.358 9.80897 8.80859 10.5768H7.71753C7.33619 11.0132 5.14561 13.7147 5.099 14.0447C5.03757 14.4747 5.34264 14.2448 4.55454 15.2773C4.55877 14.7564 4.56301 14.2363 4.56725 13.7168C5.71762 12.2181 6.86588 10.7088 8.03744 9.23134C8.08828 9.27817 8.31708 9.27817 8.35734 9.26327C8.44632 9.23134 9.47169 7.80288 9.68779 7.65386H16.7087C18.3527 9.63085 19.9967 11.6079 21.6407 13.5848V14.4066V14.4023Z" fill="#02376D"/>
<path d="M10.4073 21.3192C10.3882 21.3129 10.3522 21.3192 10.3268 21.3192C9.91154 21.3384 9.9412 22.1325 9.63612 22.207C9.22936 22.307 9.1192 21.6173 8.78447 21.4512C8.06133 21.4683 7.33891 21.4846 6.61719 21.5002C7.41941 22.4922 8.22164 23.4836 9.02386 24.4742H10.8056C10.9284 24.0782 10.5153 23.6972 10.8585 23.3906C11.0916 23.182 11.4136 23.3778 11.456 23.6376C11.5089 23.942 11.295 24.2017 11.3627 24.5083C11.7441 24.5892 12.0597 24.3103 12.3203 24.4423C12.5089 24.5381 12.6212 25.0107 12.4135 25.181V26.7904C12.7101 27.1544 12.3966 27.7292 12.0004 27.5632C11.5428 27.3694 11.8754 26.8692 11.8818 26.8245C11.9369 26.4264 11.8903 25.6089 11.9093 25.1491L11.3373 25.132C11.3416 25.4833 11.2886 26.8138 11.3246 26.9884C11.3394 27.0629 11.7081 27.2779 11.3246 27.974C11.8161 27.9911 12.3083 28.0074 12.8012 28.023C12.8055 26.7911 12.8097 25.5585 12.814 24.3252C12.4983 23.9973 10.5746 21.3682 10.4073 21.3192Z" fill="#02376D"/>
<path d="M18.2641 20.6124V22.8797C18.8764 23.7525 18.5629 24.719 18.637 25.8047C18.654 25.8473 19.0099 25.8366 19.1031 25.7877C19.3192 25.677 21.8932 22.0622 22.3339 21.5981C22.1411 20.9254 21.9419 20.5145 21.9017 19.8205H21.7364C21.1263 20.6401 21.0712 20.7125 20.3636 21.6641C20.3996 22.1665 20.281 22.9052 20.4441 23.2735C20.4865 23.8014 19.9081 23.9781 19.7259 23.5353C19.5649 23.1479 19.8234 22.9882 19.8319 22.9435C19.8742 22.7413 19.7789 21.7939 19.8594 21.432C20.4844 20.589 20.728 20.2612 21.0564 19.8184H20.4674C20.4844 19.8524 20.4971 19.8801 20.4971 19.8865C20.584 20.5847 19.5586 20.6018 19.7959 19.8184H19.3658C19.37 20.6422 19.3298 22.4879 19.3531 23.0095C19.3531 23.0521 19.584 23.514 19.2344 23.7482C19.1094 23.8334 18.9272 23.8163 18.8086 23.7163C18.4866 23.4459 18.7895 22.9882 18.7959 22.9435C18.8489 22.5114 18.7578 20.7338 18.8086 19.8184H17.6328C17.7938 20.0206 17.9887 20.2654 18.2641 20.6103V20.6124Z" fill="#02376D"/>
<path d="M9.47405 21.321C9.93377 20.8654 10.3469 20.346 10.7558 19.8223H6.43816C6.43816 20.0884 6.43392 20.297 6.42969 20.8122C7.3216 20.9931 8.98042 20.4332 9.47405 21.321Z" fill="#02376D"/>
<path d="M11.5051 19.8223C11.2635 20.1139 11.1343 20.2693 10.7148 20.7781C11.5919 21.8851 12.4697 22.9914 13.3482 24.097V28.0077C13.8355 27.9964 14.3227 27.9857 14.81 27.9758V24.6569C12.8715 22.775 12.0093 21.6829 12.2233 21.3806C12.272 21.3103 12.3779 21.2848 12.541 21.2976C13.4668 22.3407 14.3905 23.3838 15.3163 24.427V28.0098L16.2337 28.0588C16.221 27.4925 16.3523 26.7389 16.115 26.3004C16.151 25.4701 17.4667 25.981 18.0705 25.7916C18.0832 25.1174 18.0966 24.444 18.1107 23.7713C17.9864 23.6294 17.8621 23.4867 17.7378 23.3434V20.8122C17.3607 20.346 17.1341 20.065 16.937 19.8223H13.0135C13.3291 20.3055 13.6469 20.7888 13.9626 21.272C13.9774 21.3444 14.7147 22.2194 14.827 22.3407C15.0833 22.6196 15.5134 22.9325 15.5324 22.9815C15.6701 23.337 15.4011 23.7394 15.0939 23.6223C14.9795 23.5797 13.6617 21.734 13.4308 21.5019C13.6109 20.942 13.7889 20.3822 13.9689 19.8223H11.5093H11.5051Z" fill="#02376D"/>
<path d="M9.71368 27.1012L10.7899 27.0841V25.1448L8.80906 25.0958C7.84724 23.8965 6.88541 22.6973 5.92359 21.498C5.913 20.6018 5.91088 20.3761 5.90452 19.8184H4.40883C4.3834 20.1632 4.34951 20.4464 4.30078 20.6103C6.10438 22.7732 7.90797 24.9368 9.71156 27.1012H9.71368Z" fill="#02376D"/>
<path d="M12.0637 18.5735C12.0828 18.5586 12.1421 18.5607 12.2608 18.5586C12.4387 18.5586 12.5298 18.5586 12.6548 18.5799C12.7057 18.5884 12.7756 18.6033 12.8539 18.6288C12.909 18.7012 12.9684 18.7757 13.0298 18.8566C13.0891 18.9333 13.1463 19.0099 13.2056 19.0866C13.5849 19.5826 13.9471 20.0765 14.2946 20.5661H13.5764C13.248 20.0829 12.9196 19.5975 12.5912 19.1142C11.9811 19.6528 11.7629 18.7864 12.0637 18.5756V18.5735Z" fill="#02376D"/>
<path d="M14.8347 21.2596C14.8157 21.2745 14.7563 21.2724 14.6377 21.2745C14.4598 21.2745 14.3687 21.2745 14.2437 21.2532C14.1928 21.2447 14.1229 21.2298 14.0445 21.2042C13.9894 21.1319 13.9301 21.0574 13.8687 20.9765C13.7733 20.853 13.7013 20.7593 13.6928 20.7465C13.5106 20.5081 13.1759 19.9802 13.0742 19.8184C13.2289 19.8184 13.3856 19.8205 13.5403 19.8226C13.7966 20.1207 14.053 20.4208 14.3072 20.7189C14.9174 20.1803 15.1356 21.0467 14.8347 21.2575V21.2596Z" fill="#02376D"/>
<path d="M11.9994 21.2596C12.0185 21.2745 12.0778 21.2724 12.1965 21.2745C12.3744 21.2745 12.4655 21.2745 12.5905 21.2532C12.6414 21.2447 12.7113 21.2298 12.7897 21.2042C12.8447 21.1319 12.9041 21.0574 12.9655 20.9765C13.0608 20.853 13.1329 20.7593 13.1413 20.7465C13.3235 20.5081 13.6583 19.9802 13.76 19.8184C13.5714 19.8226 13.3829 19.8247 13.1922 19.829C12.9697 20.127 12.7473 20.423 12.5248 20.721C11.9147 20.1824 11.6965 21.0488 11.9973 21.2596H11.9994Z" fill="#02376D"/>
<path d="M14.5826 17.4004C14.5826 17.4004 14.5064 17.4962 14.5021 17.5324C14.4237 18.3903 15.3729 18.2796 15.2457 17.5324C15.2182 17.3684 15.1165 17.3471 15.1123 17.3344C15.0699 17.1577 15.1441 14.3433 15.1123 13.7515C14.5466 13.0511 14.3199 12.7722 14.0255 12.4082H13.3242C13.7162 12.9 13.9111 13.1448 14.5805 13.9836C14.5424 15.0778 14.6314 16.3274 14.5805 17.4004H14.5826Z" fill="#02376D"/>
<path d="M38.4549 10.0641H36.0312V5.9043H48.1494C53.1089 5.9043 56.577 9.38923 56.577 14.5602C56.577 19.7312 53.1089 23.329 48.1494 23.329H43.3381V32.5086H38.4528V10.0641H38.4549ZM47.2553 19.1309C50.0137 19.1309 51.5814 17.332 51.5814 14.5602C51.5814 11.7884 50.0158 10.0641 47.3316 10.0641H43.3424V19.1309H47.2575H47.2553Z" fill="#02376D"/>
<path d="M60.4207 18.2715C60.4207 17.7095 60.122 17.4476 59.6008 17.4476H58.1094V13.4007H62.4355C64.1133 13.4007 64.9714 14.1117 64.9714 15.7233V16.8473C64.9714 17.5583 64.8972 18.0459 64.8972 18.0459H64.9714C65.8294 15.3103 68.1026 13.1367 71.0114 13.1367C71.4224 13.1367 71.8694 13.2112 71.8694 13.2112V17.8947C71.8694 17.8947 71.3842 17.8202 70.7126 17.8202C68.7 17.8202 66.3866 18.9826 65.5285 21.8288C65.268 22.7655 65.1175 23.815 65.1175 24.9391V32.5072H60.4186V18.2694L60.4207 18.2715Z" fill="#02376D"/>
<path d="M82.8343 12.9494C88.2789 12.9494 91.2619 16.958 91.2619 22.0162C91.2619 22.5782 91.1496 23.7767 91.1496 23.7767H78.023C78.3959 27.1488 80.8576 28.9094 83.7283 28.9094C86.7854 28.9094 89.0607 26.7742 89.0607 26.7742L91.0373 30.0718C91.0373 30.0718 88.1285 32.9564 83.3936 32.9564C77.0909 32.9564 73.1758 28.3857 73.1758 22.9507C73.1758 17.0687 77.129 12.9473 82.8343 12.9473V12.9494ZM86.4146 20.4813C86.3405 18.1949 84.7727 16.6217 82.8343 16.6217C80.4106 16.6217 78.6946 18.0821 78.1734 20.4813H86.4146Z" fill="#02376D"/>
<path d="M95.8426 18.2694C95.8426 17.7074 95.5439 17.4455 95.0227 17.4455H93.5312V13.3986H97.7451C99.4971 13.3986 100.131 14.1863 100.131 15.2337V15.983H100.205C100.205 15.983 101.808 12.9473 106.245 12.9473C111.391 12.9473 114.708 17.0325 114.708 22.9507C114.708 28.869 110.98 32.9564 105.982 32.9564C102.215 32.9564 100.537 30.4464 100.537 30.4464H100.463C100.463 30.4464 100.537 31.1213 100.537 32.0942V40.0007H95.8384V18.2673L95.8426 18.2694ZM105.128 28.9477C107.738 28.9477 109.939 26.8125 109.939 23.0274C109.939 19.2423 108.001 17.0325 105.204 17.0325C102.743 17.0325 100.431 18.8314 100.431 23.0657C100.431 26.0248 101.997 28.9477 105.13 28.9477H105.128Z" fill="#02376D"/>
<path d="M124.291 19.02L119.369 10.9644C118.884 10.1405 118.586 10.066 117.766 10.066H116.647V5.90625H119.704C121.494 5.90625 122.202 6.31925 123.098 7.85415L125.634 12.2758C126.492 13.8128 127.312 15.4989 127.312 15.4989H127.386C127.386 15.4989 128.094 13.8128 128.99 12.2758L131.562 7.85415C132.456 6.28093 133.204 5.90625 134.992 5.90625H138.013V10.066H136.894C136.074 10.066 135.775 10.1789 135.29 10.9644L130.331 19.02L138.572 32.5084H133.091L128.99 25.5023C128.096 23.9291 127.312 22.3921 127.312 22.3921H127.238C127.238 22.3921 126.53 23.9653 125.634 25.5023L121.571 32.5084H116.09L124.293 19.02H124.291Z" fill="#02376D"/>
</svg>
