<svg width="729" height="98" viewBox="0 0 729 98" fill="none" xmlns="http://www.w3.org/2000/svg">
<path d="M2.495 86.72C2.495 85.68 2.72 84.755 3.17 83.945C3.62 83.125 4.245 82.49 5.045 82.04C5.855 81.58 6.77 81.35 7.79 81.35C9.04 81.35 10.11 81.68 11 82.34C11.89 83 12.485 83.9 12.785 85.04H9.965C9.755 84.6 9.455 84.265 9.065 84.035C8.685 83.805 8.25 83.69 7.76 83.69C6.97 83.69 6.33 83.965 5.84 84.515C5.35 85.065 5.105 85.8 5.105 86.72C5.105 87.64 5.35 88.375 5.84 88.925C6.33 89.475 6.97 89.75 7.76 89.75C8.25 89.75 8.685 89.635 9.065 89.405C9.455 89.175 9.755 88.84 9.965 88.4H12.785C12.485 89.54 11.89 90.44 11 91.1C10.11 91.75 9.04 92.075 7.79 92.075C6.77 92.075 5.855 91.85 5.045 91.4C4.245 90.94 3.62 90.305 3.17 89.495C2.72 88.685 2.495 87.76 2.495 86.72ZM16.9208 85.025C17.2208 84.565 17.5958 84.205 18.0458 83.945C18.4958 83.675 18.9958 83.54 19.5458 83.54V86.255H18.8408C18.2008 86.255 17.7208 86.395 17.4008 86.675C17.0808 86.945 16.9208 87.425 16.9208 88.115V92H14.3558V83.63H16.9208V85.025ZM28.6618 87.68C28.6618 87.92 28.6468 88.17 28.6168 88.43H22.8118C22.8518 88.95 23.0168 89.35 23.3068 89.63C23.6068 89.9 23.9718 90.035 24.4018 90.035C25.0418 90.035 25.4868 89.765 25.7368 89.225H28.4668C28.3268 89.775 28.0718 90.27 27.7018 90.71C27.3418 91.15 26.8868 91.495 26.3368 91.745C25.7868 91.995 25.1718 92.12 24.4918 92.12C23.6718 92.12 22.9418 91.945 22.3018 91.595C21.6618 91.245 21.1618 90.745 20.8018 90.095C20.4418 89.445 20.2618 88.685 20.2618 87.815C20.2618 86.945 20.4368 86.185 20.7868 85.535C21.1468 84.885 21.6468 84.385 22.2868 84.035C22.9268 83.685 23.6618 83.51 24.4918 83.51C25.3018 83.51 26.0218 83.68 26.6518 84.02C27.2818 84.36 27.7718 84.845 28.1218 85.475C28.4818 86.105 28.6618 86.84 28.6618 87.68ZM26.0368 87.005C26.0368 86.565 25.8868 86.215 25.5868 85.955C25.2868 85.695 24.9118 85.565 24.4618 85.565C24.0318 85.565 23.6668 85.69 23.3668 85.94C23.0768 86.19 22.8968 86.545 22.8268 87.005H26.0368ZM29.505 87.8C29.505 86.94 29.665 86.185 29.985 85.535C30.315 84.885 30.76 84.385 31.32 84.035C31.88 83.685 32.505 83.51 33.195 83.51C33.785 83.51 34.3 83.63 34.74 83.87C35.19 84.11 35.535 84.425 35.775 84.815V83.63H38.34V92H35.775V90.815C35.525 91.205 35.175 91.52 34.725 91.76C34.285 92 33.77 92.12 33.18 92.12C32.5 92.12 31.88 91.945 31.32 91.595C30.76 91.235 30.315 90.73 29.985 90.08C29.665 89.42 29.505 88.66 29.505 87.8ZM35.775 87.815C35.775 87.175 35.595 86.67 35.235 86.3C34.885 85.93 34.455 85.745 33.945 85.745C33.435 85.745 33 85.93 32.64 86.3C32.29 86.66 32.115 87.16 32.115 87.8C32.115 88.44 32.29 88.95 32.64 89.33C33 89.7 33.435 89.885 33.945 89.885C34.455 89.885 34.885 89.7 35.235 89.33C35.595 88.96 35.775 88.455 35.775 87.815ZM44.8606 89.825V92H43.5556C42.6256 92 41.9006 91.775 41.3806 91.325C40.8606 90.865 40.6006 90.12 40.6006 89.09V85.76H39.5806V83.63H40.6006V81.59H43.1656V83.63H44.8456V85.76H43.1656V89.12C43.1656 89.37 43.2256 89.55 43.3456 89.66C43.4656 89.77 43.6656 89.825 43.9456 89.825H44.8606ZM54.1794 87.68C54.1794 87.92 54.1644 88.17 54.1344 88.43H48.3294C48.3694 88.95 48.5344 89.35 48.8244 89.63C49.1244 89.9 49.4894 90.035 49.9194 90.035C50.5594 90.035 51.0044 89.765 51.2544 89.225H53.9844C53.8444 89.775 53.5894 90.27 53.2194 90.71C52.8594 91.15 52.4044 91.495 51.8544 91.745C51.3044 91.995 50.6894 92.12 50.0094 92.12C49.1894 92.12 48.4594 91.945 47.8194 91.595C47.1794 91.245 46.6794 90.745 46.3194 90.095C45.9594 89.445 45.7794 88.685 45.7794 87.815C45.7794 86.945 45.9544 86.185 46.3044 85.535C46.6644 84.885 47.1644 84.385 47.8044 84.035C48.4444 83.685 49.1794 83.51 50.0094 83.51C50.8194 83.51 51.5394 83.68 52.1694 84.02C52.7994 84.36 53.2894 84.845 53.6394 85.475C53.9994 86.105 54.1794 86.84 54.1794 87.68ZM51.5544 87.005C51.5544 86.565 51.4044 86.215 51.1044 85.955C50.8044 85.695 50.4294 85.565 49.9794 85.565C49.5494 85.565 49.1844 85.69 48.8844 85.94C48.5944 86.19 48.4144 86.545 48.3444 87.005H51.5544ZM68.1313 92H65.5663L61.2763 85.505V92H58.7113V81.47H61.2763L65.5663 87.995V81.47H68.1313V92ZM77.8805 87.68C77.8805 87.92 77.8655 88.17 77.8355 88.43H72.0305C72.0705 88.95 72.2355 89.35 72.5255 89.63C72.8255 89.9 73.1905 90.035 73.6205 90.035C74.2605 90.035 74.7055 89.765 74.9555 89.225H77.6855C77.5455 89.775 77.2905 90.27 76.9205 90.71C76.5605 91.15 76.1055 91.495 75.5555 91.745C75.0055 91.995 74.3905 92.12 73.7105 92.12C72.8905 92.12 72.1605 91.945 71.5205 91.595C70.8805 91.245 70.3805 90.745 70.0205 90.095C69.6605 89.445 69.4805 88.685 69.4805 87.815C69.4805 86.945 69.6555 86.185 70.0055 85.535C70.3655 84.885 70.8655 84.385 71.5055 84.035C72.1455 83.685 72.8805 83.51 73.7105 83.51C74.5205 83.51 75.2405 83.68 75.8705 84.02C76.5005 84.36 76.9905 84.845 77.3405 85.475C77.7005 86.105 77.8805 86.84 77.8805 87.68ZM75.2555 87.005C75.2555 86.565 75.1055 86.215 74.8055 85.955C74.5055 85.695 74.1305 85.565 73.6805 85.565C73.2505 85.565 72.8855 85.69 72.5855 85.94C72.2955 86.19 72.1155 86.545 72.0455 87.005H75.2555ZM91.2487 83.63L88.9837 92H86.1487L84.8287 86.57L83.4637 92H80.6437L78.3637 83.63H80.9287L82.1137 89.615L83.5237 83.63H86.2387L87.6637 89.585L88.8337 83.63H91.2487ZM99.2156 92.105C98.4456 92.105 97.7556 91.98 97.1456 91.73C96.5356 91.48 96.0456 91.11 95.6756 90.62C95.3156 90.13 95.1256 89.54 95.1056 88.85H97.8356C97.8756 89.24 98.0106 89.54 98.2406 89.75C98.4706 89.95 98.7706 90.05 99.1406 90.05C99.5206 90.05 99.8206 89.965 100.041 89.795C100.261 89.615 100.371 89.37 100.371 89.06C100.371 88.8 100.281 88.585 100.101 88.415C99.9306 88.245 99.7156 88.105 99.4556 87.995C99.2056 87.885 98.8456 87.76 98.3756 87.62C97.6956 87.41 97.1406 87.2 96.7106 86.99C96.2806 86.78 95.9106 86.47 95.6006 86.06C95.2906 85.65 95.1356 85.115 95.1356 84.455C95.1356 83.475 95.4906 82.71 96.2006 82.16C96.9106 81.6 97.8356 81.32 98.9756 81.32C100.136 81.32 101.071 81.6 101.781 82.16C102.491 82.71 102.871 83.48 102.921 84.47H100.146C100.126 84.13 100.001 83.865 99.7706 83.675C99.5406 83.475 99.2456 83.375 98.8856 83.375C98.5756 83.375 98.3256 83.46 98.1356 83.63C97.9456 83.79 97.8506 84.025 97.8506 84.335C97.8506 84.675 98.0106 84.94 98.3306 85.13C98.6506 85.32 99.1506 85.525 99.8306 85.745C100.511 85.975 101.061 86.195 101.481 86.405C101.911 86.615 102.281 86.92 102.591 87.32C102.901 87.72 103.056 88.235 103.056 88.865C103.056 89.465 102.901 90.01 102.591 90.5C102.291 90.99 101.851 91.38 101.271 91.67C100.691 91.96 100.006 92.105 99.2156 92.105ZM112.524 87.68C112.524 87.92 112.509 88.17 112.479 88.43H106.674C106.714 88.95 106.879 89.35 107.169 89.63C107.469 89.9 107.834 90.035 108.264 90.035C108.904 90.035 109.349 89.765 109.599 89.225H112.329C112.189 89.775 111.934 90.27 111.564 90.71C111.204 91.15 110.749 91.495 110.199 91.745C109.649 91.995 109.034 92.12 108.354 92.12C107.534 92.12 106.804 91.945 106.164 91.595C105.524 91.245 105.024 90.745 104.664 90.095C104.304 89.445 104.124 88.685 104.124 87.815C104.124 86.945 104.299 86.185 104.649 85.535C105.009 84.885 105.509 84.385 106.149 84.035C106.789 83.685 107.524 83.51 108.354 83.51C109.164 83.51 109.884 83.68 110.514 84.02C111.144 84.36 111.634 84.845 111.984 85.475C112.344 86.105 112.524 86.84 112.524 87.68ZM109.899 87.005C109.899 86.565 109.749 86.215 109.449 85.955C109.149 85.695 108.774 85.565 108.324 85.565C107.894 85.565 107.529 85.69 107.229 85.94C106.939 86.19 106.759 86.545 106.689 87.005H109.899ZM117.282 92.12C116.552 92.12 115.902 91.995 115.332 91.745C114.762 91.495 114.312 91.155 113.982 90.725C113.652 90.285 113.467 89.795 113.427 89.255H115.962C115.992 89.545 116.127 89.78 116.367 89.96C116.607 90.14 116.902 90.23 117.252 90.23C117.572 90.23 117.817 90.17 117.987 90.05C118.167 89.92 118.257 89.755 118.257 89.555C118.257 89.315 118.132 89.14 117.882 89.03C117.632 88.91 117.227 88.78 116.667 88.64C116.067 88.5 115.567 88.355 115.167 88.205C114.767 88.045 114.422 87.8 114.132 87.47C113.842 87.13 113.697 86.675 113.697 86.105C113.697 85.625 113.827 85.19 114.087 84.8C114.357 84.4 114.747 84.085 115.257 83.855C115.777 83.625 116.392 83.51 117.102 83.51C118.152 83.51 118.977 83.77 119.577 84.29C120.187 84.81 120.537 85.5 120.627 86.36H118.257C118.217 86.07 118.087 85.84 117.867 85.67C117.657 85.5 117.377 85.415 117.027 85.415C116.727 85.415 116.497 85.475 116.337 85.595C116.177 85.705 116.097 85.86 116.097 86.06C116.097 86.3 116.222 86.48 116.472 86.6C116.732 86.72 117.132 86.84 117.672 86.96C118.292 87.12 118.797 87.28 119.187 87.44C119.577 87.59 119.917 87.84 120.207 88.19C120.507 88.53 120.662 88.99 120.672 89.57C120.672 90.06 120.532 90.5 120.252 90.89C119.982 91.27 119.587 91.57 119.067 91.79C118.557 92.01 117.962 92.12 117.282 92.12ZM125.647 92.12C124.917 92.12 124.267 91.995 123.697 91.745C123.127 91.495 122.677 91.155 122.347 90.725C122.017 90.285 121.832 89.795 121.792 89.255H124.327C124.357 89.545 124.492 89.78 124.732 89.96C124.972 90.14 125.267 90.23 125.617 90.23C125.937 90.23 126.182 90.17 126.352 90.05C126.532 89.92 126.622 89.755 126.622 89.555C126.622 89.315 126.497 89.14 126.247 89.03C125.997 88.91 125.592 88.78 125.032 88.64C124.432 88.5 123.932 88.355 123.532 88.205C123.132 88.045 122.787 87.8 122.497 87.47C122.207 87.13 122.062 86.675 122.062 86.105C122.062 85.625 122.192 85.19 122.452 84.8C122.722 84.4 123.112 84.085 123.622 83.855C124.142 83.625 124.757 83.51 125.467 83.51C126.517 83.51 127.342 83.77 127.942 84.29C128.552 84.81 128.902 85.5 128.992 86.36H126.622C126.582 86.07 126.452 85.84 126.232 85.67C126.022 85.5 125.742 85.415 125.392 85.415C125.092 85.415 124.862 85.475 124.702 85.595C124.542 85.705 124.462 85.86 124.462 86.06C124.462 86.3 124.587 86.48 124.837 86.6C125.097 86.72 125.497 86.84 126.037 86.96C126.657 87.12 127.162 87.28 127.552 87.44C127.942 87.59 128.282 87.84 128.572 88.19C128.872 88.53 129.027 88.99 129.037 89.57C129.037 90.06 128.897 90.5 128.617 90.89C128.347 91.27 127.952 91.57 127.432 91.79C126.922 92.01 126.327 92.12 125.647 92.12ZM131.896 82.76C131.446 82.76 131.076 82.63 130.786 82.37C130.506 82.1 130.366 81.77 130.366 81.38C130.366 80.98 130.506 80.65 130.786 80.39C131.076 80.12 131.446 79.985 131.896 79.985C132.336 79.985 132.696 80.12 132.976 80.39C133.266 80.65 133.411 80.98 133.411 81.38C133.411 81.77 133.266 82.1 132.976 82.37C132.696 82.63 132.336 82.76 131.896 82.76ZM133.171 83.63V92H130.606V83.63H133.171ZM138.84 92.12C138.02 92.12 137.28 91.945 136.62 91.595C135.97 91.245 135.455 90.745 135.075 90.095C134.705 89.445 134.52 88.685 134.52 87.815C134.52 86.955 134.71 86.2 135.09 85.55C135.47 84.89 135.99 84.385 136.65 84.035C137.31 83.685 138.05 83.51 138.87 83.51C139.69 83.51 140.43 83.685 141.09 84.035C141.75 84.385 142.27 84.89 142.65 85.55C143.03 86.2 143.22 86.955 143.22 87.815C143.22 88.675 143.025 89.435 142.635 90.095C142.255 90.745 141.73 91.245 141.06 91.595C140.4 91.945 139.66 92.12 138.84 92.12ZM138.84 89.9C139.33 89.9 139.745 89.72 140.085 89.36C140.435 89 140.61 88.485 140.61 87.815C140.61 87.145 140.44 86.63 140.1 86.27C139.77 85.91 139.36 85.73 138.87 85.73C138.37 85.73 137.955 85.91 137.625 86.27C137.295 86.62 137.13 87.135 137.13 87.815C137.13 88.485 137.29 89 137.61 89.36C137.94 89.72 138.35 89.9 138.84 89.9ZM149.68 83.54C150.66 83.54 151.44 83.86 152.02 84.5C152.61 85.13 152.905 86 152.905 87.11V92H150.355V87.455C150.355 86.895 150.21 86.46 149.92 86.15C149.63 85.84 149.24 85.685 148.75 85.685C148.26 85.685 147.87 85.84 147.58 86.15C147.29 86.46 147.145 86.895 147.145 87.455V92H144.58V83.63H147.145V84.74C147.405 84.37 147.755 84.08 148.195 83.87C148.635 83.65 149.13 83.54 149.68 83.54Z" fill="#02376D"/>
<path d="M204.74 92.105C203.97 92.105 203.28 91.98 202.67 91.73C202.06 91.48 201.57 91.11 201.2 90.62C200.84 90.13 200.65 89.54 200.63 88.85H203.36C203.4 89.24 203.535 89.54 203.765 89.75C203.995 89.95 204.295 90.05 204.665 90.05C205.045 90.05 205.345 89.965 205.565 89.795C205.785 89.615 205.895 89.37 205.895 89.06C205.895 88.8 205.805 88.585 205.625 88.415C205.455 88.245 205.24 88.105 204.98 87.995C204.73 87.885 204.37 87.76 203.9 87.62C203.22 87.41 202.665 87.2 202.235 86.99C201.805 86.78 201.435 86.47 201.125 86.06C200.815 85.65 200.66 85.115 200.66 84.455C200.66 83.475 201.015 82.71 201.725 82.16C202.435 81.6 203.36 81.32 204.5 81.32C205.66 81.32 206.595 81.6 207.305 82.16C208.015 82.71 208.395 83.48 208.445 84.47H205.67C205.65 84.13 205.525 83.865 205.295 83.675C205.065 83.475 204.77 83.375 204.41 83.375C204.1 83.375 203.85 83.46 203.66 83.63C203.47 83.79 203.375 84.025 203.375 84.335C203.375 84.675 203.535 84.94 203.855 85.13C204.175 85.32 204.675 85.525 205.355 85.745C206.035 85.975 206.585 86.195 207.005 86.405C207.435 86.615 207.805 86.92 208.115 87.32C208.425 87.72 208.58 88.235 208.58 88.865C208.58 89.465 208.425 90.01 208.115 90.5C207.815 90.99 207.375 91.38 206.795 91.67C206.215 91.96 205.53 92.105 204.74 92.105ZM214.824 89.825V92H213.519C212.589 92 211.864 91.775 211.344 91.325C210.824 90.865 210.564 90.12 210.564 89.09V85.76H209.544V83.63H210.564V81.59H213.129V83.63H214.809V85.76H213.129V89.12C213.129 89.37 213.189 89.55 213.309 89.66C213.429 89.77 213.629 89.825 213.909 89.825H214.824ZM215.742 87.8C215.742 86.94 215.902 86.185 216.222 85.535C216.552 84.885 216.997 84.385 217.557 84.035C218.117 83.685 218.742 83.51 219.432 83.51C220.022 83.51 220.537 83.63 220.977 83.87C221.427 84.11 221.772 84.425 222.012 84.815V83.63H224.577V92H222.012V90.815C221.762 91.205 221.412 91.52 220.962 91.76C220.522 92 220.007 92.12 219.417 92.12C218.737 92.12 218.117 91.945 217.557 91.595C216.997 91.235 216.552 90.73 216.222 90.08C215.902 89.42 215.742 88.66 215.742 87.8ZM222.012 87.815C222.012 87.175 221.832 86.67 221.472 86.3C221.122 85.93 220.692 85.745 220.182 85.745C219.672 85.745 219.237 85.93 218.877 86.3C218.527 86.66 218.352 87.16 218.352 87.8C218.352 88.44 218.527 88.95 218.877 89.33C219.237 89.7 219.672 89.885 220.182 89.885C220.692 89.885 221.122 89.7 221.472 89.33C221.832 88.96 222.012 88.455 222.012 87.815ZM231.098 89.825V92H229.793C228.863 92 228.138 91.775 227.618 91.325C227.098 90.865 226.838 90.12 226.838 89.09V85.76H225.818V83.63H226.838V81.59H229.403V83.63H231.083V85.76H229.403V89.12C229.403 89.37 229.463 89.55 229.583 89.66C229.703 89.77 229.903 89.825 230.183 89.825H231.098ZM233.817 82.76C233.367 82.76 232.997 82.63 232.707 82.37C232.427 82.1 232.287 81.77 232.287 81.38C232.287 80.98 232.427 80.65 232.707 80.39C232.997 80.12 233.367 79.985 233.817 79.985C234.257 79.985 234.617 80.12 234.897 80.39C235.187 80.65 235.332 80.98 235.332 81.38C235.332 81.77 235.187 82.1 234.897 82.37C234.617 82.63 234.257 82.76 233.817 82.76ZM235.092 83.63V92H232.527V83.63H235.092ZM240.761 92.12C239.941 92.12 239.201 91.945 238.541 91.595C237.891 91.245 237.376 90.745 236.996 90.095C236.626 89.445 236.441 88.685 236.441 87.815C236.441 86.955 236.631 86.2 237.011 85.55C237.391 84.89 237.911 84.385 238.571 84.035C239.231 83.685 239.971 83.51 240.791 83.51C241.611 83.51 242.351 83.685 243.011 84.035C243.671 84.385 244.191 84.89 244.571 85.55C244.951 86.2 245.141 86.955 245.141 87.815C245.141 88.675 244.946 89.435 244.556 90.095C244.176 90.745 243.651 91.245 242.981 91.595C242.321 91.945 241.581 92.12 240.761 92.12ZM240.761 89.9C241.251 89.9 241.666 89.72 242.006 89.36C242.356 89 242.531 88.485 242.531 87.815C242.531 87.145 242.361 86.63 242.021 86.27C241.691 85.91 241.281 85.73 240.791 85.73C240.291 85.73 239.876 85.91 239.546 86.27C239.216 86.62 239.051 87.135 239.051 87.815C239.051 88.485 239.211 89 239.531 89.36C239.861 89.72 240.271 89.9 240.761 89.9ZM251.601 83.54C252.581 83.54 253.361 83.86 253.941 84.5C254.531 85.13 254.826 86 254.826 87.11V92H252.276V87.455C252.276 86.895 252.131 86.46 251.841 86.15C251.551 85.84 251.161 85.685 250.671 85.685C250.181 85.685 249.791 85.84 249.501 86.15C249.211 86.46 249.066 86.895 249.066 87.455V92H246.501V83.63H249.066V84.74C249.326 84.37 249.676 84.08 250.116 83.87C250.556 83.65 251.051 83.54 251.601 83.54ZM271.712 81.47V92H269.147V85.685L266.792 92H264.722L262.352 85.67V92H259.787V81.47H262.817L265.772 88.76L268.697 81.47H271.712ZM273.047 87.8C273.047 86.94 273.207 86.185 273.527 85.535C273.857 84.885 274.302 84.385 274.862 84.035C275.422 83.685 276.047 83.51 276.737 83.51C277.327 83.51 277.842 83.63 278.282 83.87C278.732 84.11 279.077 84.425 279.317 84.815V83.63H281.882V92H279.317V90.815C279.067 91.205 278.717 91.52 278.267 91.76C277.827 92 277.312 92.12 276.722 92.12C276.042 92.12 275.422 91.945 274.862 91.595C274.302 91.235 273.857 90.73 273.527 90.08C273.207 89.42 273.047 88.66 273.047 87.8ZM279.317 87.815C279.317 87.175 279.137 86.67 278.777 86.3C278.427 85.93 277.997 85.745 277.487 85.745C276.977 85.745 276.542 85.93 276.182 86.3C275.832 86.66 275.657 87.16 275.657 87.8C275.657 88.44 275.832 88.95 276.182 89.33C276.542 89.7 276.977 89.885 277.487 89.885C277.997 89.885 278.427 89.7 278.777 89.33C279.137 88.96 279.317 88.455 279.317 87.815ZM288.838 83.54C289.818 83.54 290.598 83.86 291.178 84.5C291.768 85.13 292.063 86 292.063 87.11V92H289.513V87.455C289.513 86.895 289.368 86.46 289.078 86.15C288.788 85.84 288.398 85.685 287.908 85.685C287.418 85.685 287.028 85.84 286.738 86.15C286.448 86.46 286.303 86.895 286.303 87.455V92H283.738V83.63H286.303V84.74C286.563 84.37 286.913 84.08 287.353 83.87C287.793 83.65 288.288 83.54 288.838 83.54ZM293.335 87.8C293.335 86.94 293.495 86.185 293.815 85.535C294.145 84.885 294.59 84.385 295.15 84.035C295.71 83.685 296.335 83.51 297.025 83.51C297.615 83.51 298.13 83.63 298.57 83.87C299.02 84.11 299.365 84.425 299.605 84.815V83.63H302.17V92H299.605V90.815C299.355 91.205 299.005 91.52 298.555 91.76C298.115 92 297.6 92.12 297.01 92.12C296.33 92.12 295.71 91.945 295.15 91.595C294.59 91.235 294.145 90.73 293.815 90.08C293.495 89.42 293.335 88.66 293.335 87.8ZM299.605 87.815C299.605 87.175 299.425 86.67 299.065 86.3C298.715 85.93 298.285 85.745 297.775 85.745C297.265 85.745 296.83 85.93 296.47 86.3C296.12 86.66 295.945 87.16 295.945 87.8C295.945 88.44 296.12 88.95 296.47 89.33C296.83 89.7 297.265 89.885 297.775 89.885C298.285 89.885 298.715 89.7 299.065 89.33C299.425 88.96 299.605 88.455 299.605 87.815ZM307.206 83.51C307.796 83.51 308.311 83.63 308.751 83.87C309.201 84.11 309.546 84.425 309.786 84.815V83.63H312.351V91.985C312.351 92.755 312.196 93.45 311.886 94.07C311.586 94.7 311.121 95.2 310.491 95.57C309.871 95.94 309.096 96.125 308.166 96.125C306.926 96.125 305.921 95.83 305.151 95.24C304.381 94.66 303.941 93.87 303.831 92.87H306.366C306.446 93.19 306.636 93.44 306.936 93.62C307.236 93.81 307.606 93.905 308.046 93.905C308.576 93.905 308.996 93.75 309.306 93.44C309.626 93.14 309.786 92.655 309.786 91.985V90.8C309.536 91.19 309.191 91.51 308.751 91.76C308.311 92 307.796 92.12 307.206 92.12C306.516 92.12 305.891 91.945 305.331 91.595C304.771 91.235 304.326 90.73 303.996 90.08C303.676 89.42 303.516 88.66 303.516 87.8C303.516 86.94 303.676 86.185 303.996 85.535C304.326 84.885 304.771 84.385 305.331 84.035C305.891 83.685 306.516 83.51 307.206 83.51ZM309.786 87.815C309.786 87.175 309.606 86.67 309.246 86.3C308.896 85.93 308.466 85.745 307.956 85.745C307.446 85.745 307.011 85.93 306.651 86.3C306.301 86.66 306.126 87.16 306.126 87.8C306.126 88.44 306.301 88.95 306.651 89.33C307.011 89.7 307.446 89.885 307.956 89.885C308.466 89.885 308.896 89.7 309.246 89.33C309.606 88.96 309.786 88.455 309.786 87.815ZM322.096 87.68C322.096 87.92 322.081 88.17 322.051 88.43H316.246C316.286 88.95 316.451 89.35 316.741 89.63C317.041 89.9 317.406 90.035 317.836 90.035C318.476 90.035 318.921 89.765 319.171 89.225H321.901C321.761 89.775 321.506 90.27 321.136 90.71C320.776 91.15 320.321 91.495 319.771 91.745C319.221 91.995 318.606 92.12 317.926 92.12C317.106 92.12 316.376 91.945 315.736 91.595C315.096 91.245 314.596 90.745 314.236 90.095C313.876 89.445 313.696 88.685 313.696 87.815C313.696 86.945 313.871 86.185 314.221 85.535C314.581 84.885 315.081 84.385 315.721 84.035C316.361 83.685 317.096 83.51 317.926 83.51C318.736 83.51 319.456 83.68 320.086 84.02C320.716 84.36 321.206 84.845 321.556 85.475C321.916 86.105 322.096 86.84 322.096 87.68ZM319.471 87.005C319.471 86.565 319.321 86.215 319.021 85.955C318.721 85.695 318.346 85.565 317.896 85.565C317.466 85.565 317.101 85.69 316.801 85.94C316.511 86.19 316.331 86.545 316.261 87.005H319.471ZM334.13 83.54C335.17 83.54 335.995 83.855 336.605 84.485C337.225 85.115 337.535 85.99 337.535 87.11V92H334.985V87.455C334.985 86.915 334.84 86.5 334.55 86.21C334.27 85.91 333.88 85.76 333.38 85.76C332.88 85.76 332.485 85.91 332.195 86.21C331.915 86.5 331.775 86.915 331.775 87.455V92H329.225V87.455C329.225 86.915 329.08 86.5 328.79 86.21C328.51 85.91 328.12 85.76 327.62 85.76C327.12 85.76 326.725 85.91 326.435 86.21C326.155 86.5 326.015 86.915 326.015 87.455V92H323.45V83.63H326.015V84.68C326.275 84.33 326.615 84.055 327.035 83.855C327.455 83.645 327.93 83.54 328.46 83.54C329.09 83.54 329.65 83.675 330.14 83.945C330.64 84.215 331.03 84.6 331.31 85.1C331.6 84.64 331.995 84.265 332.495 83.975C332.995 83.685 333.54 83.54 334.13 83.54ZM347.218 87.68C347.218 87.92 347.203 88.17 347.173 88.43H341.368C341.408 88.95 341.573 89.35 341.863 89.63C342.163 89.9 342.528 90.035 342.958 90.035C343.598 90.035 344.043 89.765 344.293 89.225H347.023C346.883 89.775 346.628 90.27 346.258 90.71C345.898 91.15 345.443 91.495 344.893 91.745C344.343 91.995 343.728 92.12 343.048 92.12C342.228 92.12 341.498 91.945 340.858 91.595C340.218 91.245 339.718 90.745 339.358 90.095C338.998 89.445 338.818 88.685 338.818 87.815C338.818 86.945 338.993 86.185 339.343 85.535C339.703 84.885 340.203 84.385 340.843 84.035C341.483 83.685 342.218 83.51 343.048 83.51C343.858 83.51 344.578 83.68 345.208 84.02C345.838 84.36 346.328 84.845 346.678 85.475C347.038 86.105 347.218 86.84 347.218 87.68ZM344.593 87.005C344.593 86.565 344.443 86.215 344.143 85.955C343.843 85.695 343.468 85.565 343.018 85.565C342.588 85.565 342.223 85.69 341.923 85.94C341.633 86.19 341.453 86.545 341.383 87.005H344.593ZM353.672 83.54C354.652 83.54 355.432 83.86 356.012 84.5C356.602 85.13 356.897 86 356.897 87.11V92H354.347V87.455C354.347 86.895 354.202 86.46 353.912 86.15C353.622 85.84 353.232 85.685 352.742 85.685C352.252 85.685 351.862 85.84 351.572 86.15C351.282 86.46 351.137 86.895 351.137 87.455V92H348.572V83.63H351.137V84.74C351.397 84.37 351.747 84.08 352.187 83.87C352.627 83.65 353.122 83.54 353.672 83.54ZM363.344 89.825V92H362.039C361.109 92 360.384 91.775 359.864 91.325C359.344 90.865 359.084 90.12 359.084 89.09V85.76H358.064V83.63H359.084V81.59H361.649V83.63H363.329V85.76H361.649V89.12C361.649 89.37 361.709 89.55 361.829 89.66C361.949 89.77 362.149 89.825 362.429 89.825H363.344Z" fill="#02376D"/>
<path d="M403.43 93.8L402.08 91.985C401.68 92.065 401.29 92.105 400.91 92.105C399.92 92.105 399.01 91.875 398.18 91.415C397.36 90.955 396.705 90.315 396.215 89.495C395.735 88.665 395.495 87.735 395.495 86.705C395.495 85.675 395.735 84.75 396.215 83.93C396.705 83.11 397.36 82.47 398.18 82.01C399.01 81.55 399.92 81.32 400.91 81.32C401.9 81.32 402.805 81.55 403.625 82.01C404.455 82.47 405.105 83.11 405.575 83.93C406.055 84.75 406.295 85.675 406.295 86.705C406.295 87.605 406.11 88.43 405.74 89.18C405.38 89.92 404.875 90.535 404.225 91.025L406.535 93.8H403.43ZM398.12 86.705C398.12 87.635 398.37 88.38 398.87 88.94C399.38 89.49 400.06 89.765 400.91 89.765C401.75 89.765 402.42 89.485 402.92 88.925C403.43 88.365 403.685 87.625 403.685 86.705C403.685 85.775 403.43 85.035 402.92 84.485C402.42 83.925 401.75 83.645 400.91 83.645C400.06 83.645 399.38 83.92 398.87 84.47C398.37 85.02 398.12 85.765 398.12 86.705ZM416.016 83.63V92H413.451V90.86C413.191 91.23 412.836 91.53 412.386 91.76C411.946 91.98 411.456 92.09 410.916 92.09C410.276 92.09 409.711 91.95 409.221 91.67C408.731 91.38 408.351 90.965 408.081 90.425C407.811 89.885 407.676 89.25 407.676 88.52V83.63H410.226V88.175C410.226 88.735 410.371 89.17 410.661 89.48C410.951 89.79 411.341 89.945 411.831 89.945C412.331 89.945 412.726 89.79 413.016 89.48C413.306 89.17 413.451 88.735 413.451 88.175V83.63H416.016ZM425.749 87.68C425.749 87.92 425.734 88.17 425.704 88.43H419.899C419.939 88.95 420.104 89.35 420.394 89.63C420.694 89.9 421.059 90.035 421.489 90.035C422.129 90.035 422.574 89.765 422.824 89.225H425.554C425.414 89.775 425.159 90.27 424.789 90.71C424.429 91.15 423.974 91.495 423.424 91.745C422.874 91.995 422.259 92.12 421.579 92.12C420.759 92.12 420.029 91.945 419.389 91.595C418.749 91.245 418.249 90.745 417.889 90.095C417.529 89.445 417.349 88.685 417.349 87.815C417.349 86.945 417.524 86.185 417.874 85.535C418.234 84.885 418.734 84.385 419.374 84.035C420.014 83.685 420.749 83.51 421.579 83.51C422.389 83.51 423.109 83.68 423.739 84.02C424.369 84.36 424.859 84.845 425.209 85.475C425.569 86.105 425.749 86.84 425.749 87.68ZM423.124 87.005C423.124 86.565 422.974 86.215 422.674 85.955C422.374 85.695 421.999 85.565 421.549 85.565C421.119 85.565 420.754 85.69 420.454 85.94C420.164 86.19 419.984 86.545 419.914 87.005H423.124ZM430.507 92.12C429.777 92.12 429.127 91.995 428.557 91.745C427.987 91.495 427.537 91.155 427.207 90.725C426.877 90.285 426.692 89.795 426.652 89.255H429.187C429.217 89.545 429.352 89.78 429.592 89.96C429.832 90.14 430.127 90.23 430.477 90.23C430.797 90.23 431.042 90.17 431.212 90.05C431.392 89.92 431.482 89.755 431.482 89.555C431.482 89.315 431.357 89.14 431.107 89.03C430.857 88.91 430.452 88.78 429.892 88.64C429.292 88.5 428.792 88.355 428.392 88.205C427.992 88.045 427.647 87.8 427.357 87.47C427.067 87.13 426.922 86.675 426.922 86.105C426.922 85.625 427.052 85.19 427.312 84.8C427.582 84.4 427.972 84.085 428.482 83.855C429.002 83.625 429.617 83.51 430.327 83.51C431.377 83.51 432.202 83.77 432.802 84.29C433.412 84.81 433.762 85.5 433.852 86.36H431.482C431.442 86.07 431.312 85.84 431.092 85.67C430.882 85.5 430.602 85.415 430.252 85.415C429.952 85.415 429.722 85.475 429.562 85.595C429.402 85.705 429.322 85.86 429.322 86.06C429.322 86.3 429.447 86.48 429.697 86.6C429.957 86.72 430.357 86.84 430.897 86.96C431.517 87.12 432.022 87.28 432.412 87.44C432.802 87.59 433.142 87.84 433.432 88.19C433.732 88.53 433.887 88.99 433.897 89.57C433.897 90.06 433.757 90.5 433.477 90.89C433.207 91.27 432.812 91.57 432.292 91.79C431.782 92.01 431.187 92.12 430.507 92.12ZM440.131 89.825V92H438.826C437.896 92 437.171 91.775 436.651 91.325C436.131 90.865 435.871 90.12 435.871 89.09V85.76H434.851V83.63H435.871V81.59H438.436V83.63H440.116V85.76H438.436V89.12C438.436 89.37 438.496 89.55 438.616 89.66C438.736 89.77 438.936 89.825 439.216 89.825H440.131ZM442.85 82.76C442.4 82.76 442.03 82.63 441.74 82.37C441.46 82.1 441.32 81.77 441.32 81.38C441.32 80.98 441.46 80.65 441.74 80.39C442.03 80.12 442.4 79.985 442.85 79.985C443.29 79.985 443.65 80.12 443.93 80.39C444.22 80.65 444.365 80.98 444.365 81.38C444.365 81.77 444.22 82.1 443.93 82.37C443.65 82.63 443.29 82.76 442.85 82.76ZM444.125 83.63V92H441.56V83.63H444.125ZM449.794 92.12C448.974 92.12 448.234 91.945 447.574 91.595C446.924 91.245 446.409 90.745 446.029 90.095C445.659 89.445 445.474 88.685 445.474 87.815C445.474 86.955 445.664 86.2 446.044 85.55C446.424 84.89 446.944 84.385 447.604 84.035C448.264 83.685 449.004 83.51 449.824 83.51C450.644 83.51 451.384 83.685 452.044 84.035C452.704 84.385 453.224 84.89 453.604 85.55C453.984 86.2 454.174 86.955 454.174 87.815C454.174 88.675 453.979 89.435 453.589 90.095C453.209 90.745 452.684 91.245 452.014 91.595C451.354 91.945 450.614 92.12 449.794 92.12ZM449.794 89.9C450.284 89.9 450.699 89.72 451.039 89.36C451.389 89 451.564 88.485 451.564 87.815C451.564 87.145 451.394 86.63 451.054 86.27C450.724 85.91 450.314 85.73 449.824 85.73C449.324 85.73 448.909 85.91 448.579 86.27C448.249 86.62 448.084 87.135 448.084 87.815C448.084 88.485 448.244 89 448.564 89.36C448.894 89.72 449.304 89.9 449.794 89.9ZM460.634 83.54C461.614 83.54 462.394 83.86 462.974 84.5C463.564 85.13 463.859 86 463.859 87.11V92H461.309V87.455C461.309 86.895 461.164 86.46 460.874 86.15C460.584 85.84 460.194 85.685 459.704 85.685C459.214 85.685 458.824 85.84 458.534 86.15C458.244 86.46 458.099 86.895 458.099 87.455V92H455.534V83.63H458.099V84.74C458.359 84.37 458.709 84.08 459.149 83.87C459.589 83.65 460.084 83.54 460.634 83.54ZM472.631 92.105C471.861 92.105 471.171 91.98 470.561 91.73C469.951 91.48 469.461 91.11 469.091 90.62C468.731 90.13 468.541 89.54 468.521 88.85H471.251C471.291 89.24 471.426 89.54 471.656 89.75C471.886 89.95 472.186 90.05 472.556 90.05C472.936 90.05 473.236 89.965 473.456 89.795C473.676 89.615 473.786 89.37 473.786 89.06C473.786 88.8 473.696 88.585 473.516 88.415C473.346 88.245 473.131 88.105 472.871 87.995C472.621 87.885 472.261 87.76 471.791 87.62C471.111 87.41 470.556 87.2 470.126 86.99C469.696 86.78 469.326 86.47 469.016 86.06C468.706 85.65 468.551 85.115 468.551 84.455C468.551 83.475 468.906 82.71 469.616 82.16C470.326 81.6 471.251 81.32 472.391 81.32C473.551 81.32 474.486 81.6 475.196 82.16C475.906 82.71 476.286 83.48 476.336 84.47H473.561C473.541 84.13 473.416 83.865 473.186 83.675C472.956 83.475 472.661 83.375 472.301 83.375C471.991 83.375 471.741 83.46 471.551 83.63C471.361 83.79 471.266 84.025 471.266 84.335C471.266 84.675 471.426 84.94 471.746 85.13C472.066 85.32 472.566 85.525 473.246 85.745C473.926 85.975 474.476 86.195 474.896 86.405C475.326 86.615 475.696 86.92 476.006 87.32C476.316 87.72 476.471 88.235 476.471 88.865C476.471 89.465 476.316 90.01 476.006 90.5C475.706 90.99 475.266 91.38 474.686 91.67C474.106 91.96 473.421 92.105 472.631 92.105ZM485.939 87.68C485.939 87.92 485.924 88.17 485.894 88.43H480.089C480.129 88.95 480.294 89.35 480.584 89.63C480.884 89.9 481.249 90.035 481.679 90.035C482.319 90.035 482.764 89.765 483.014 89.225H485.744C485.604 89.775 485.349 90.27 484.979 90.71C484.619 91.15 484.164 91.495 483.614 91.745C483.064 91.995 482.449 92.12 481.769 92.12C480.949 92.12 480.219 91.945 479.579 91.595C478.939 91.245 478.439 90.745 478.079 90.095C477.719 89.445 477.539 88.685 477.539 87.815C477.539 86.945 477.714 86.185 478.064 85.535C478.424 84.885 478.924 84.385 479.564 84.035C480.204 83.685 480.939 83.51 481.769 83.51C482.579 83.51 483.299 83.68 483.929 84.02C484.559 84.36 485.049 84.845 485.399 85.475C485.759 86.105 485.939 86.84 485.939 87.68ZM483.314 87.005C483.314 86.565 483.164 86.215 482.864 85.955C482.564 85.695 482.189 85.565 481.739 85.565C481.309 85.565 480.944 85.69 480.644 85.94C480.354 86.19 480.174 86.545 480.104 87.005H483.314ZM489.857 80.9V92H487.292V80.9H489.857ZM499.606 87.68C499.606 87.92 499.591 88.17 499.561 88.43H493.756C493.796 88.95 493.961 89.35 494.251 89.63C494.551 89.9 494.916 90.035 495.346 90.035C495.986 90.035 496.431 89.765 496.681 89.225H499.411C499.271 89.775 499.016 90.27 498.646 90.71C498.286 91.15 497.831 91.495 497.281 91.745C496.731 91.995 496.116 92.12 495.436 92.12C494.616 92.12 493.886 91.945 493.246 91.595C492.606 91.245 492.106 90.745 491.746 90.095C491.386 89.445 491.206 88.685 491.206 87.815C491.206 86.945 491.381 86.185 491.731 85.535C492.091 84.885 492.591 84.385 493.231 84.035C493.871 83.685 494.606 83.51 495.436 83.51C496.246 83.51 496.966 83.68 497.596 84.02C498.226 84.36 498.716 84.845 499.066 85.475C499.426 86.105 499.606 86.84 499.606 87.68ZM496.981 87.005C496.981 86.565 496.831 86.215 496.531 85.955C496.231 85.695 495.856 85.565 495.406 85.565C494.976 85.565 494.611 85.69 494.311 85.94C494.021 86.19 493.841 86.545 493.771 87.005H496.981ZM500.449 87.815C500.449 86.945 500.624 86.185 500.974 85.535C501.334 84.885 501.829 84.385 502.459 84.035C503.099 83.685 503.829 83.51 504.649 83.51C505.699 83.51 506.574 83.785 507.274 84.335C507.984 84.885 508.449 85.66 508.669 86.66H505.939C505.709 86.02 505.264 85.7 504.604 85.7C504.134 85.7 503.759 85.885 503.479 86.255C503.199 86.615 503.059 87.135 503.059 87.815C503.059 88.495 503.199 89.02 503.479 89.39C503.759 89.75 504.134 89.93 504.604 89.93C505.264 89.93 505.709 89.61 505.939 88.97H508.669C508.449 89.95 507.984 90.72 507.274 91.28C506.564 91.84 505.689 92.12 504.649 92.12C503.829 92.12 503.099 91.945 502.459 91.595C501.829 91.245 501.334 90.745 500.974 90.095C500.624 89.445 500.449 88.685 500.449 87.815ZM514.706 89.825V92H513.401C512.471 92 511.746 91.775 511.226 91.325C510.706 90.865 510.446 90.12 510.446 89.09V85.76H509.426V83.63H510.446V81.59H513.011V83.63H514.691V85.76H513.011V89.12C513.011 89.37 513.071 89.55 513.191 89.66C513.311 89.77 513.511 89.825 513.791 89.825H514.706ZM517.425 82.76C516.975 82.76 516.605 82.63 516.315 82.37C516.035 82.1 515.895 81.77 515.895 81.38C515.895 80.98 516.035 80.65 516.315 80.39C516.605 80.12 516.975 79.985 517.425 79.985C517.865 79.985 518.225 80.12 518.505 80.39C518.795 80.65 518.94 80.98 518.94 81.38C518.94 81.77 518.795 82.1 518.505 82.37C518.225 82.63 517.865 82.76 517.425 82.76ZM518.7 83.63V92H516.135V83.63H518.7ZM524.369 92.12C523.549 92.12 522.809 91.945 522.149 91.595C521.499 91.245 520.984 90.745 520.604 90.095C520.234 89.445 520.049 88.685 520.049 87.815C520.049 86.955 520.239 86.2 520.619 85.55C520.999 84.89 521.519 84.385 522.179 84.035C522.839 83.685 523.579 83.51 524.399 83.51C525.219 83.51 525.959 83.685 526.619 84.035C527.279 84.385 527.799 84.89 528.179 85.55C528.559 86.2 528.749 86.955 528.749 87.815C528.749 88.675 528.554 89.435 528.164 90.095C527.784 90.745 527.259 91.245 526.589 91.595C525.929 91.945 525.189 92.12 524.369 92.12ZM524.369 89.9C524.859 89.9 525.274 89.72 525.614 89.36C525.964 89 526.139 88.485 526.139 87.815C526.139 87.145 525.969 86.63 525.629 86.27C525.299 85.91 524.889 85.73 524.399 85.73C523.899 85.73 523.484 85.91 523.154 86.27C522.824 86.62 522.659 87.135 522.659 87.815C522.659 88.485 522.819 89 523.139 89.36C523.469 89.72 523.879 89.9 524.369 89.9ZM535.21 83.54C536.19 83.54 536.97 83.86 537.55 84.5C538.14 85.13 538.435 86 538.435 87.11V92H535.885V87.455C535.885 86.895 535.74 86.46 535.45 86.15C535.16 85.84 534.77 85.685 534.28 85.685C533.79 85.685 533.4 85.84 533.11 86.15C532.82 86.46 532.675 86.895 532.675 87.455V92H530.11V83.63H532.675V84.74C532.935 84.37 533.285 84.08 533.725 83.87C534.165 83.65 534.66 83.54 535.21 83.54Z" fill="#02376D"/>
<path d="M602.485 90.14H598.555L597.925 92H595.24L599.05 81.47H602.02L605.83 92H603.115L602.485 90.14ZM601.825 88.16L600.52 84.305L599.23 88.16H601.825ZM610.395 92.12C609.665 92.12 609.015 91.995 608.445 91.745C607.875 91.495 607.425 91.155 607.095 90.725C606.765 90.285 606.58 89.795 606.54 89.255H609.075C609.105 89.545 609.24 89.78 609.48 89.96C609.72 90.14 610.015 90.23 610.365 90.23C610.685 90.23 610.93 90.17 611.1 90.05C611.28 89.92 611.37 89.755 611.37 89.555C611.37 89.315 611.245 89.14 610.995 89.03C610.745 88.91 610.34 88.78 609.78 88.64C609.18 88.5 608.68 88.355 608.28 88.205C607.88 88.045 607.535 87.8 607.245 87.47C606.955 87.13 606.81 86.675 606.81 86.105C606.81 85.625 606.94 85.19 607.2 84.8C607.47 84.4 607.86 84.085 608.37 83.855C608.89 83.625 609.505 83.51 610.215 83.51C611.265 83.51 612.09 83.77 612.69 84.29C613.3 84.81 613.65 85.5 613.74 86.36H611.37C611.33 86.07 611.2 85.84 610.98 85.67C610.77 85.5 610.49 85.415 610.14 85.415C609.84 85.415 609.61 85.475 609.45 85.595C609.29 85.705 609.21 85.86 609.21 86.06C609.21 86.3 609.335 86.48 609.585 86.6C609.845 86.72 610.245 86.84 610.785 86.96C611.405 87.12 611.91 87.28 612.3 87.44C612.69 87.59 613.03 87.84 613.32 88.19C613.62 88.53 613.775 88.99 613.785 89.57C613.785 90.06 613.645 90.5 613.365 90.89C613.095 91.27 612.7 91.57 612.18 91.79C611.67 92.01 611.075 92.12 610.395 92.12ZM618.759 92.12C618.029 92.12 617.379 91.995 616.809 91.745C616.239 91.495 615.789 91.155 615.459 90.725C615.129 90.285 614.944 89.795 614.904 89.255H617.439C617.469 89.545 617.604 89.78 617.844 89.96C618.084 90.14 618.379 90.23 618.729 90.23C619.049 90.23 619.294 90.17 619.464 90.05C619.644 89.92 619.734 89.755 619.734 89.555C619.734 89.315 619.609 89.14 619.359 89.03C619.109 88.91 618.704 88.78 618.144 88.64C617.544 88.5 617.044 88.355 616.644 88.205C616.244 88.045 615.899 87.8 615.609 87.47C615.319 87.13 615.174 86.675 615.174 86.105C615.174 85.625 615.304 85.19 615.564 84.8C615.834 84.4 616.224 84.085 616.734 83.855C617.254 83.625 617.869 83.51 618.579 83.51C619.629 83.51 620.454 83.77 621.054 84.29C621.664 84.81 622.014 85.5 622.104 86.36H619.734C619.694 86.07 619.564 85.84 619.344 85.67C619.134 85.5 618.854 85.415 618.504 85.415C618.204 85.415 617.974 85.475 617.814 85.595C617.654 85.705 617.574 85.86 617.574 86.06C617.574 86.3 617.699 86.48 617.949 86.6C618.209 86.72 618.609 86.84 619.149 86.96C619.769 87.12 620.274 87.28 620.664 87.44C621.054 87.59 621.394 87.84 621.684 88.19C621.984 88.53 622.139 88.99 622.149 89.57C622.149 90.06 622.009 90.5 621.729 90.89C621.459 91.27 621.064 91.57 620.544 91.79C620.034 92.01 619.439 92.12 618.759 92.12ZM625.008 82.76C624.558 82.76 624.188 82.63 623.898 82.37C623.618 82.1 623.478 81.77 623.478 81.38C623.478 80.98 623.618 80.65 623.898 80.39C624.188 80.12 624.558 79.985 625.008 79.985C625.448 79.985 625.808 80.12 626.088 80.39C626.378 80.65 626.523 80.98 626.523 81.38C626.523 81.77 626.378 82.1 626.088 82.37C625.808 82.63 625.448 82.76 625.008 82.76ZM626.283 83.63V92H623.718V83.63H626.283ZM631.322 83.51C631.912 83.51 632.427 83.63 632.867 83.87C633.317 84.11 633.662 84.425 633.902 84.815V83.63H636.467V91.985C636.467 92.755 636.312 93.45 636.002 94.07C635.702 94.7 635.237 95.2 634.607 95.57C633.987 95.94 633.212 96.125 632.282 96.125C631.042 96.125 630.037 95.83 629.267 95.24C628.497 94.66 628.057 93.87 627.947 92.87H630.482C630.562 93.19 630.752 93.44 631.052 93.62C631.352 93.81 631.722 93.905 632.162 93.905C632.692 93.905 633.112 93.75 633.422 93.44C633.742 93.14 633.902 92.655 633.902 91.985V90.8C633.652 91.19 633.307 91.51 632.867 91.76C632.427 92 631.912 92.12 631.322 92.12C630.632 92.12 630.007 91.945 629.447 91.595C628.887 91.235 628.442 90.73 628.112 90.08C627.792 89.42 627.632 88.66 627.632 87.8C627.632 86.94 627.792 86.185 628.112 85.535C628.442 84.885 628.887 84.385 629.447 84.035C630.007 83.685 630.632 83.51 631.322 83.51ZM633.902 87.815C633.902 87.175 633.722 86.67 633.362 86.3C633.012 85.93 632.582 85.745 632.072 85.745C631.562 85.745 631.127 85.93 630.767 86.3C630.417 86.66 630.242 87.16 630.242 87.8C630.242 88.44 630.417 88.95 630.767 89.33C631.127 89.7 631.562 89.885 632.072 89.885C632.582 89.885 633.012 89.7 633.362 89.33C633.722 88.96 633.902 88.455 633.902 87.815ZM643.423 83.54C644.403 83.54 645.183 83.86 645.763 84.5C646.353 85.13 646.648 86 646.648 87.11V92H644.098V87.455C644.098 86.895 643.953 86.46 643.663 86.15C643.373 85.84 642.983 85.685 642.493 85.685C642.003 85.685 641.613 85.84 641.323 86.15C641.033 86.46 640.888 86.895 640.888 87.455V92H638.323V83.63H640.888V84.74C641.148 84.37 641.498 84.08 641.938 83.87C642.378 83.65 642.873 83.54 643.423 83.54ZM655.419 92.105C654.649 92.105 653.959 91.98 653.349 91.73C652.739 91.48 652.249 91.11 651.879 90.62C651.519 90.13 651.329 89.54 651.309 88.85H654.039C654.079 89.24 654.214 89.54 654.444 89.75C654.674 89.95 654.974 90.05 655.344 90.05C655.724 90.05 656.024 89.965 656.244 89.795C656.464 89.615 656.574 89.37 656.574 89.06C656.574 88.8 656.484 88.585 656.304 88.415C656.134 88.245 655.919 88.105 655.659 87.995C655.409 87.885 655.049 87.76 654.579 87.62C653.899 87.41 653.344 87.2 652.914 86.99C652.484 86.78 652.114 86.47 651.804 86.06C651.494 85.65 651.339 85.115 651.339 84.455C651.339 83.475 651.694 82.71 652.404 82.16C653.114 81.6 654.039 81.32 655.179 81.32C656.339 81.32 657.274 81.6 657.984 82.16C658.694 82.71 659.074 83.48 659.124 84.47H656.349C656.329 84.13 656.204 83.865 655.974 83.675C655.744 83.475 655.449 83.375 655.089 83.375C654.779 83.375 654.529 83.46 654.339 83.63C654.149 83.79 654.054 84.025 654.054 84.335C654.054 84.675 654.214 84.94 654.534 85.13C654.854 85.32 655.354 85.525 656.034 85.745C656.714 85.975 657.264 86.195 657.684 86.405C658.114 86.615 658.484 86.92 658.794 87.32C659.104 87.72 659.259 88.235 659.259 88.865C659.259 89.465 659.104 90.01 658.794 90.5C658.494 90.99 658.054 91.38 657.474 91.67C656.894 91.96 656.209 92.105 655.419 92.105ZM665.502 89.825V92H664.197C663.267 92 662.542 91.775 662.022 91.325C661.502 90.865 661.242 90.12 661.242 89.09V85.76H660.222V83.63H661.242V81.59H663.807V83.63H665.487V85.76H663.807V89.12C663.807 89.37 663.867 89.55 663.987 89.66C664.107 89.77 664.307 89.825 664.587 89.825H665.502ZM675.196 83.63V92H672.631V90.86C672.371 91.23 672.016 91.53 671.566 91.76C671.126 91.98 670.636 92.09 670.096 92.09C669.456 92.09 668.891 91.95 668.401 91.67C667.911 91.38 667.531 90.965 667.261 90.425C666.991 89.885 666.856 89.25 666.856 88.52V83.63H669.406V88.175C669.406 88.735 669.551 89.17 669.841 89.48C670.131 89.79 670.521 89.945 671.011 89.945C671.511 89.945 671.906 89.79 672.196 89.48C672.486 89.17 672.631 88.735 672.631 88.175V83.63H675.196ZM676.528 87.8C676.528 86.94 676.688 86.185 677.008 85.535C677.338 84.885 677.783 84.385 678.343 84.035C678.903 83.685 679.528 83.51 680.218 83.51C680.768 83.51 681.268 83.625 681.718 83.855C682.178 84.085 682.538 84.395 682.798 84.785V80.9H685.363V92H682.798V90.8C682.558 91.2 682.213 91.52 681.763 91.76C681.323 92 680.808 92.12 680.218 92.12C679.528 92.12 678.903 91.945 678.343 91.595C677.783 91.235 677.338 90.73 677.008 90.08C676.688 89.42 676.528 88.66 676.528 87.8ZM682.798 87.815C682.798 87.175 682.618 86.67 682.258 86.3C681.908 85.93 681.478 85.745 680.968 85.745C680.458 85.745 680.023 85.93 679.663 86.3C679.313 86.66 679.138 87.16 679.138 87.8C679.138 88.44 679.313 88.95 679.663 89.33C680.023 89.7 680.458 89.885 680.968 89.885C681.478 89.885 681.908 89.7 682.258 89.33C682.618 88.96 682.798 88.455 682.798 87.815ZM695.109 87.68C695.109 87.92 695.094 88.17 695.064 88.43H689.259C689.299 88.95 689.464 89.35 689.754 89.63C690.054 89.9 690.419 90.035 690.849 90.035C691.489 90.035 691.934 89.765 692.184 89.225H694.914C694.774 89.775 694.519 90.27 694.149 90.71C693.789 91.15 693.334 91.495 692.784 91.745C692.234 91.995 691.619 92.12 690.939 92.12C690.119 92.12 689.389 91.945 688.749 91.595C688.109 91.245 687.609 90.745 687.249 90.095C686.889 89.445 686.709 88.685 686.709 87.815C686.709 86.945 686.884 86.185 687.234 85.535C687.594 84.885 688.094 84.385 688.734 84.035C689.374 83.685 690.109 83.51 690.939 83.51C691.749 83.51 692.469 83.68 693.099 84.02C693.729 84.36 694.219 84.845 694.569 85.475C694.929 86.105 695.109 86.84 695.109 87.68ZM692.484 87.005C692.484 86.565 692.334 86.215 692.034 85.955C691.734 85.695 691.359 85.565 690.909 85.565C690.479 85.565 690.114 85.69 689.814 85.94C689.524 86.19 689.344 86.545 689.274 87.005H692.484ZM701.562 83.54C702.542 83.54 703.322 83.86 703.902 84.5C704.492 85.13 704.787 86 704.787 87.11V92H702.237V87.455C702.237 86.895 702.092 86.46 701.802 86.15C701.512 85.84 701.122 85.685 700.632 85.685C700.142 85.685 699.752 85.84 699.462 86.15C699.172 86.46 699.027 86.895 699.027 87.455V92H696.462V83.63H699.027V84.74C699.287 84.37 699.637 84.08 700.077 83.87C700.517 83.65 701.012 83.54 701.562 83.54ZM711.235 89.825V92H709.93C709 92 708.275 91.775 707.755 91.325C707.235 90.865 706.975 90.12 706.975 89.09V85.76H705.955V83.63H706.975V81.59H709.54V83.63H711.22V85.76H709.54V89.12C709.54 89.37 709.6 89.55 709.72 89.66C709.84 89.77 710.04 89.825 710.32 89.825H711.235ZM716.068 92.12C715.338 92.12 714.688 91.995 714.118 91.745C713.548 91.495 713.098 91.155 712.768 90.725C712.438 90.285 712.253 89.795 712.213 89.255H714.748C714.778 89.545 714.913 89.78 715.153 89.96C715.393 90.14 715.688 90.23 716.038 90.23C716.358 90.23 716.603 90.17 716.773 90.05C716.953 89.92 717.043 89.755 717.043 89.555C717.043 89.315 716.918 89.14 716.668 89.03C716.418 88.91 716.013 88.78 715.453 88.64C714.853 88.5 714.353 88.355 713.953 88.205C713.553 88.045 713.208 87.8 712.918 87.47C712.628 87.13 712.483 86.675 712.483 86.105C712.483 85.625 712.613 85.19 712.873 84.8C713.143 84.4 713.533 84.085 714.043 83.855C714.563 83.625 715.178 83.51 715.888 83.51C716.938 83.51 717.763 83.77 718.363 84.29C718.973 84.81 719.323 85.5 719.413 86.36H717.043C717.003 86.07 716.873 85.84 716.653 85.67C716.443 85.5 716.163 85.415 715.813 85.415C715.513 85.415 715.283 85.475 715.123 85.595C714.963 85.705 714.883 85.86 714.883 86.06C714.883 86.3 715.008 86.48 715.258 86.6C715.518 86.72 715.918 86.84 716.458 86.96C717.078 87.12 717.583 87.28 717.973 87.44C718.363 87.59 718.703 87.84 718.993 88.19C719.293 88.53 719.448 88.99 719.458 89.57C719.458 90.06 719.318 90.5 719.038 90.89C718.768 91.27 718.373 91.57 717.853 91.79C717.343 92.01 716.748 92.12 716.068 92.12Z" fill="#02376D"/>
<circle cx="78" cy="33" r="23" fill="#02376D" stroke="#02376D" stroke-width="4"/>
<path d="M265 42.0131V30.0538C265 29.1617 265.381 28.409 266.143 27.7957C266.906 27.1824 267.805 26.9036 268.84 26.9594C271.4 27.2939 273.839 27.9423 276.157 28.9047C278.475 29.867 280.589 31.1142 282.5 32.6464C284.412 31.1131 286.527 29.8653 288.845 28.903C291.162 27.9407 293.601 27.2928 296.16 26.9594C297.197 26.9036 298.096 27.1824 298.859 27.7957C299.621 28.409 300.001 29.1617 300 30.0538V42.0131C300 42.9052 299.66 43.6652 298.979 44.293C298.299 44.9207 297.44 45.262 296.403 45.3166C294.329 45.5954 292.319 46.0554 290.375 46.6965C288.431 47.3377 286.616 48.188 284.931 49.2473C284.574 49.4982 284.194 49.6861 283.789 49.811C283.385 49.9359 282.955 49.9989 282.5 50C282.046 50 281.617 49.9376 281.211 49.8127C280.805 49.6878 280.425 49.4993 280.069 49.2473C278.384 48.188 276.569 47.3377 274.625 46.6965C272.681 46.0554 270.671 45.5954 268.597 45.3166C267.56 45.2609 266.701 44.9196 266.021 44.293C265.34 43.6663 265 42.9063 265 42.0131ZM282.5 46.6129C284.542 45.3027 286.713 44.2573 289.014 43.4767C291.315 42.6961 293.681 42.1804 296.111 41.9295V30.3883C293.745 30.7507 291.42 31.4828 289.134 32.5845C286.849 33.6862 284.638 35.1564 282.5 36.9952C280.361 35.1553 278.15 33.6851 275.866 32.5845C273.581 31.4839 271.256 30.7518 268.889 30.3883V41.9295C271.319 42.1804 273.685 42.6961 275.986 43.4767C278.287 44.2573 280.458 45.3027 282.5 46.6129ZM282.5 28.3811C280.361 28.3811 278.53 27.726 277.007 26.4158C275.484 25.1055 274.722 23.5305 274.722 21.6906C274.722 19.8507 275.484 18.2756 277.007 16.9654C278.53 15.6551 280.361 15 282.5 15C284.639 15 286.47 15.6551 287.993 16.9654C289.516 18.2756 290.278 19.8507 290.278 21.6906C290.278 23.5305 289.516 25.1055 287.993 26.4158C286.47 27.726 284.639 28.3811 282.5 28.3811ZM282.5 25.0358C283.569 25.0358 284.485 24.7086 285.247 24.054C286.01 23.3994 286.39 22.6116 286.389 21.6906C286.389 20.7706 286.008 19.9834 285.247 19.3288C284.487 18.6742 283.571 18.3464 282.5 18.3453C281.431 18.3453 280.515 18.6731 279.754 19.3288C278.994 19.9845 278.612 20.7717 278.611 21.6906C278.611 22.6105 278.992 23.3983 279.754 24.054C280.517 24.7097 281.432 25.037 282.5 25.0358Z" fill="#02376D"/>
<circle cx="282" cy="33" r="23" stroke="#02376D" stroke-width="4"/>
<circle cx="658" cy="34" r="23" stroke="#02376D" stroke-width="4"/>
<line x1="100" y1="33" x2="257" y2="33" stroke="#02376D" stroke-width="6"/>
<line x1="307" y1="33" x2="444" y2="33" stroke="#EBEBEB" stroke-width="6"/>
<line x1="488" y1="33" x2="633" y2="33" stroke="#EBEBEB" stroke-width="6"/>
<path d="M675.079 22.6691L658.926 17.0718C658.649 16.9761 658.35 16.9761 658.074 17.0718L641.92 22.6691C641.652 22.762 641.419 22.9402 641.254 23.1785C641.089 23.4168 641 23.703 641 23.9967V37.99C641 38.3611 641.142 38.717 641.394 38.9795C641.647 39.2419 641.989 39.3893 642.346 39.3893C642.703 39.3893 643.046 39.2419 643.298 38.9795C643.55 38.717 643.692 38.3611 643.692 37.99V25.9383L649.344 27.8956C647.843 30.4175 647.365 33.4559 648.017 36.3435C648.668 39.2311 650.395 41.732 652.819 43.2969C649.79 44.5318 647.172 46.7655 645.257 49.8195C645.158 49.9734 645.088 50.1463 645.054 50.3282C645.019 50.5101 645.019 50.6973 645.055 50.8791C645.09 51.0608 645.16 51.2334 645.26 51.3868C645.361 51.5402 645.489 51.6714 645.639 51.7727C645.788 51.874 645.955 51.9435 646.131 51.977C646.306 52.0105 646.486 52.0074 646.661 51.9679C646.835 51.9284 647 51.8533 647.146 51.7469C647.292 51.6406 647.417 51.505 647.512 51.3483C650.048 47.3042 654.053 44.9866 658.5 44.9866C662.947 44.9866 666.952 47.3042 669.488 51.3483C669.685 51.6533 669.99 51.8653 670.337 51.9385C670.683 52.0116 671.044 51.94 671.34 51.7392C671.636 51.5383 671.845 51.2244 671.92 50.8651C671.995 50.5059 671.931 50.1303 671.743 49.8195C669.828 46.7655 667.199 44.5318 664.181 43.2969C666.602 41.732 668.328 39.2328 668.979 36.3473C669.63 33.4618 669.154 30.4255 667.655 27.9043L675.079 25.3331C675.347 25.2403 675.581 25.0621 675.746 24.8238C675.911 24.5855 676 24.2992 676 24.0055C676 23.7117 675.911 23.4254 675.746 23.1872C675.581 22.9489 675.347 22.7707 675.079 22.6779V22.6691ZM666.577 33.792C666.577 35.1194 666.275 36.4279 665.694 37.6102C665.114 38.7926 664.272 39.8151 663.238 40.5938C662.204 41.3725 661.007 41.8852 659.745 42.0899C658.484 42.2946 657.193 42.1854 655.98 41.7714C654.767 41.3573 653.666 40.6501 652.766 39.7079C651.867 38.7656 651.195 37.6151 650.806 36.3508C650.418 35.0864 650.323 33.7443 650.53 32.4345C650.736 31.1246 651.239 29.8845 651.996 28.8157L658.074 30.9146C658.35 31.0104 658.649 31.0104 658.926 30.9146L665.003 28.8157C666.026 30.257 666.578 32.001 666.577 33.792ZM658.5 28.1195L646.603 23.9967L658.5 19.874L670.396 23.9967L658.5 28.1195Z" fill="#02376D"/>
<path d="M469.885 42.5C469.885 43.0705 469.715 43.6282 469.398 44.1026C469.082 44.577 468.631 44.9467 468.104 45.165C467.577 45.3834 466.997 45.4405 466.437 45.3292C465.878 45.2179 465.364 44.9431 464.96 44.5397C464.557 44.1363 464.282 43.6223 464.171 43.0628C464.06 42.5032 464.117 41.9232 464.335 41.3961C464.553 40.869 464.923 40.4185 465.397 40.1015C465.872 39.7846 466.429 39.6154 467 39.6154C467.765 39.6154 468.499 39.9193 469.04 40.4603C469.581 41.0012 469.885 41.7349 469.885 42.5ZM467 16.5385C461.697 16.5385 457.385 20.4207 457.385 25.1923V26.1538C457.385 26.6639 457.587 27.153 457.948 27.5137C458.309 27.8743 458.798 28.0769 459.308 28.0769C459.818 28.0769 460.307 27.8743 460.668 27.5137C461.028 27.153 461.231 26.6639 461.231 26.1538V25.1923C461.231 22.5481 463.82 20.3846 467 20.3846C470.18 20.3846 472.769 22.5481 472.769 25.1923C472.769 27.8365 470.18 30 467 30C466.49 30 466.001 30.2026 465.64 30.5632C465.28 30.9239 465.077 31.413 465.077 31.9231V33.8461C465.077 34.3562 465.28 34.8453 465.64 35.206C466.001 35.5666 466.49 35.7692 467 35.7692C467.51 35.7692 467.999 35.5666 468.36 35.206C468.72 34.8453 468.923 34.3562 468.923 33.8461V33.6731C473.308 32.8678 476.615 29.3702 476.615 25.1923C476.615 20.4207 472.303 16.5385 467 16.5385ZM492 30C492 34.9445 490.534 39.778 487.787 43.8892C485.04 48.0005 481.135 51.2048 476.567 53.097C471.999 54.9892 466.972 55.4842 462.123 54.5196C457.273 53.555 452.819 51.174 449.322 47.6777C445.826 44.1814 443.445 39.7268 442.48 34.8773C441.516 30.0277 442.011 25.0011 443.903 20.4329C445.795 15.8648 449 11.9603 453.111 9.21326C457.222 6.46622 462.055 5 467 5C473.628 5.007 479.983 7.64317 484.67 12.3301C489.357 17.017 491.993 23.3717 492 30ZM488.154 30C488.154 25.8162 486.913 21.7263 484.589 18.2475C482.264 14.7688 478.961 12.0575 475.095 10.4564C471.23 8.85531 466.977 8.43639 462.873 9.25262C458.77 10.0688 455 12.0836 452.042 15.042C449.084 18.0004 447.069 21.7696 446.253 25.8731C445.436 29.9765 445.855 34.2299 447.456 38.0952C449.057 41.9606 451.769 45.2644 455.248 47.5888C458.726 49.9132 462.816 51.1538 467 51.1538C472.608 51.1475 477.985 48.9167 481.951 44.951C485.917 40.9853 488.147 35.6084 488.154 30Z" fill="#02376D"/>
<path d="M92.5126 24.5459C93.1625 23.8179 93.1625 22.6046 92.5126 21.9139L88.6131 17.546C87.9965 16.818 86.9133 16.818 86.2634 17.546L83.1972 20.9619L89.4463 27.9618M63 43.6042V50.6041H69.2491L87.6799 29.9405L81.4308 22.9406L63 43.6042Z" fill="#F9FDFF"/>
</svg>
