<svg width="163" height="23" viewBox="0 0 163 23" fill="none" xmlns="http://www.w3.org/2000/svg">
<g clip-path="url(#clip0_5_2)">
<path d="M3.4453 5.17578L6.7324 14.457L10.0019 5.17578H13.4648V17.9727H10.8193V14.4746L11.083 8.43653L7.6289 17.9727H5.8184L2.3731 8.44531L2.6367 14.4746V17.9727H0V5.17578H3.4453ZM23.1504 15.3359H18.5273L17.6484 17.9727H14.8447L19.6084 5.17578H22.0517L26.8418 17.9727H24.0381L23.1504 15.3359ZM19.2392 13.2002H22.4385L20.8301 8.41016L19.2392 13.2002ZM36.6152 7.31153H32.6953V17.9727H30.0586V7.31153H26.1914V5.17578H36.6152V7.31153ZM45.8262 12.4268H40.7637V15.8545H46.7051V17.9727H38.1269V5.17578H46.6875V7.31153H40.7637V10.3613H45.8262V12.4268ZM52.9892 13.2881H50.8887V17.9727H48.2519V5.17578H53.0068C54.5185 5.17578 55.6846 5.5127 56.5049 6.18653C57.3252 6.86035 57.7353 7.8125 57.7353 9.04297C57.7353 9.916 57.5449 10.6455 57.1641 11.2314C56.7891 11.8115 56.2178 12.2744 55.4502 12.6201L58.2187 17.8496V17.9727H55.3887L52.9892 13.2881ZM50.8887 11.1523H53.0156C53.6777 11.1523 54.1904 10.9853 54.5537 10.6514C54.917 10.3115 55.0986 9.8457 55.0986 9.25391C55.0986 8.65039 54.9258 8.17578 54.5801 7.83008C54.2402 7.48438 53.7158 7.31153 53.0068 7.31153H50.8887V11.1523ZM62.552 17.9727H59.915V5.17578H62.552V17.9727ZM72.387 15.3359H67.764L66.885 17.9727H64.081L68.845 5.17578H71.288L76.078 17.9727H73.274L72.387 15.3359ZM68.476 13.2002H71.675L70.066 8.41016L68.476 13.2002ZM79.91 15.8545H85.509V17.9727H77.273V5.17578H79.91V15.8545ZM88.585 12.7607V17.9727H87.504V5.17578H91.863C93.193 5.17578 94.242 5.51563 95.01 6.19531C95.783 6.875 96.17 7.80957 96.17 8.99903C96.17 10.2002 95.798 11.1289 95.054 11.7852C94.315 12.4355 93.243 12.7607 91.837 12.7607H88.585ZM88.585 11.8467H91.863C92.912 11.8467 93.712 11.5977 94.263 11.0996C94.814 10.6016 95.089 9.9072 95.089 9.0166C95.089 8.13184 94.814 7.42871 94.263 6.90723C93.718 6.37989 92.941 6.11035 91.934 6.09864H88.585V11.8467ZM103.377 12.6465H99.659V17.9727H98.569V5.17578H102.726C104.092 5.17578 105.158 5.50684 105.926 6.16895C106.693 6.83106 107.077 7.75684 107.077 8.94629C107.077 9.7666 106.837 10.4902 106.356 11.1172C105.876 11.7441 105.231 12.1777 104.423 12.418L107.622 17.8584V17.9727H106.47L103.377 12.6465ZM99.659 11.7236H102.972C103.881 11.7236 104.61 11.4658 105.161 10.9502C105.712 10.4346 105.987 9.7666 105.987 8.94629C105.987 8.04395 105.7 7.34375 105.126 6.84571C104.552 6.34766 103.746 6.09864 102.709 6.09864H99.659V11.7236ZM119.478 12.2686C119.478 13.4463 119.273 14.4805 118.863 15.3711C118.459 16.2617 117.879 16.9473 117.123 17.4277C116.367 17.9082 115.494 18.1484 114.504 18.1484C113.01 18.1484 111.803 17.6152 110.883 16.5488C109.963 15.4766 109.503 14.0322 109.503 12.2158V10.8975C109.503 9.7314 109.708 8.7002 110.118 7.80371C110.534 6.90137 111.12 6.20996 111.876 5.72949C112.632 5.24317 113.502 5 114.486 5C115.47 5 116.338 5.23731 117.088 5.71192C117.844 6.18653 118.427 6.85742 118.837 7.72461C119.247 8.5918 119.461 9.5967 119.478 10.7393V12.2686ZM118.397 10.8799C118.397 9.33887 118.049 8.13184 117.351 7.25879C116.654 6.38574 115.699 5.94922 114.486 5.94922C113.297 5.94922 112.347 6.38867 111.638 7.26758C110.935 8.14063 110.584 9.36231 110.584 10.9326V12.2686C110.584 13.7861 110.935 14.9902 111.638 15.8809C112.342 16.7656 113.297 17.208 114.504 17.208C115.728 17.208 116.683 16.7715 117.369 15.8984C118.054 15.0195 118.397 13.7979 118.397 12.2334V10.8799Z" fill="white"/>
<mask id="mask0_5_2" style="mask-type:luminance" maskUnits="userSpaceOnUse" x="133" y="0" width="30" height="23">
<path d="M163 0H133V23H163V0Z" fill="white"/>
</mask>
<g mask="url(#mask0_5_2)">
<path d="M133 2.72515C133 5.07515 133.8 6.22515 137 8.32515C140.55 10.6752 141 11.4252 141 14.9252C141 19.8252 142.5 22.7252 145.05 22.7252C146.8 22.7252 147 22.0252 147 14.9752L146.95 7.22515L140.55 3.47515C132.85 -1.02485 133 -1.02485 133 2.72515Z" fill="white"/>
<path d="M155.25 3.52516L149.05 7.22516L149 14.9752C149 22.0252 149.2 22.7252 150.95 22.7252C153.5 22.7252 155 19.8252 155 14.9252C155 11.4252 155.45 10.6752 159 8.32516C162.2 6.22516 163 5.07516 163 2.72516C163 -1.02484 162.85 -0.974835 155.25 3.52516Z" fill="white"/>
</g>
</g>
<defs>
<clipPath id="clip0_5_2">
<rect width="163" height="23" fill="white"/>
</clipPath>
</defs>
</svg>
