<svg width="334" height="96" viewBox="0 0 334 96" fill="none" xmlns="http://www.w3.org/2000/svg">
<path d="M64.9117 0H5.34897C2.39658 0 0 2.43204 0 5.42493V57.0739C0 76.724 15.7614 92.7082 35.1329 92.7082C54.5044 92.7082 70.2607 76.724 70.2607 57.0739V5.42493C70.2607 2.43714 67.859 0 64.9117 0ZM67.7009 57.0739C67.7009 75.2913 53.092 90.1079 35.1329 90.1079C17.1738 90.1079 2.55976 75.2913 2.55976 57.0739V47.4732H7.05207C6.15973 44.0979 5.89967 40.4932 6.41469 36.7406C8.11779 24.3306 19.3715 14.4444 31.7216 14.2914C45.4178 14.1232 57.4517 26.0284 55.6874 40.2026C56.6257 43.0884 60.4857 45.2247 61.5922 47.4732H67.7009V57.0739Z" fill="white"/>
<path d="M19.1417 64.5664V71.3679C19.2403 71.4699 19.3389 71.5736 19.4374 71.6789C24.353 71.3934 46.2996 72.0511 48.4922 71.6789C51.0877 71.2354 52.4236 68.2935 52.5511 65.8053C53.3925 64.9131 54.2338 64.0208 55.0803 63.1286C55.3352 60.1459 55.5902 57.1632 55.8451 54.1805C56.4162 53.3443 59.6032 49.8823 59.7256 49.6019C60.0621 48.8626 59.9856 48.159 59.6542 47.4707H57.8338C58.155 47.9857 58.3182 48.4904 58.1958 48.985C58.0428 49.607 53.1069 54.2927 54.7845 55.7865C54.4327 58.137 54.0808 60.4875 53.7239 62.8379L52.8417 64.0106C49.92 65.3618 51.8168 69.4967 47.6661 70.0729C44.5557 70.5063 26.1224 69.7466 20.8448 70.0729C20.8652 61.5786 21.0947 64.5766 16.4902 60.5487C12.6709 57.2091 9.98879 52.5285 8.65792 47.4707H7.0415C8.8109 54.3793 13.1757 60.3192 19.1315 64.5715L19.1417 64.5664Z" fill="white"/>
<path d="M35.5818 44.4107C35.5359 44.375 35.3931 44.3801 35.1076 44.375C34.6792 44.375 34.46 44.375 34.1591 44.426C34.0367 44.4464 33.8685 44.4821 33.6798 44.5433C33.5472 44.7166 33.4044 44.8951 33.2566 45.0888C33.1138 45.2724 32.9761 45.4559 32.8333 45.6395C31.9206 46.8274 31.0487 48.0103 30.2124 49.183H31.941C32.7314 48.0256 33.5217 46.8631 34.3121 45.7057C35.7806 46.9957 36.3058 44.9206 35.5818 44.4158V44.4107Z" fill="white"/>
<path d="M39.4207 35.5153C39.4207 35.5153 39.6042 35.2859 39.6144 35.1992C39.8031 33.1445 37.5187 33.4096 37.8246 35.1992C37.8909 35.5918 38.1357 35.6428 38.1459 35.6734C38.2479 36.0966 38.0694 42.8369 38.1459 44.2543C39.5073 45.9318 40.0529 46.5997 40.7617 47.4716H42.4495C41.5062 46.2938 41.0371 45.7075 39.4258 43.6986C39.5175 41.0779 39.3034 38.085 39.4258 35.5153H39.4207Z" fill="white"/>
<path d="M55.9326 43.544C52.4397 39.1439 55.183 37.2778 53.4952 31.4246C50.7519 21.9106 40.8953 15.624 31.36 15.8993C19.7952 16.2307 9.10745 25.6989 7.88366 37.4818C7.53692 40.801 7.84287 44.2119 8.73012 47.47H10.6219C10.836 44.4771 10.729 39.5008 10.8717 38.8992C11.9069 37.3288 13.7221 35.8808 13.6253 33.7037C15.4066 31.4093 17.1878 29.1132 18.9691 26.8155H21.8501C23.1079 25.0038 24.3674 23.1937 25.6286 21.3854H31.5792L33.369 23.3535H40.2171C41.033 24.567 47.5905 31.8988 47.7383 32.5208C47.7842 32.7197 47.7026 33.4233 47.7383 33.7802C46.9803 33.7938 46.2222 33.8074 45.4641 33.821C45.561 28.5286 42.4404 29.8491 42.0732 29.6503C41.8693 29.4209 42.0375 28.8192 41.9763 28.5082C41.9101 28.1411 39.5747 24.7862 39.2585 24.6893H32.0892C31.3209 25.6853 30.5526 26.6829 29.7844 27.6822L26.5821 27.7587C24.7056 30.0429 22.9413 32.4596 21.1108 34.805C20.3306 35.7992 18.6938 36.9668 19.6065 37.9916C19.887 38.3026 20.4275 38.3179 20.7589 38.0681C21.1567 37.7724 21.0445 37.0637 21.3657 36.6915C22.1357 35.891 26.6943 29.3954 27.092 29.2526C27.2858 29.1812 28.1271 29.3036 28.4994 29.2526L28.5963 29.3699C27.658 30.6547 26.628 31.8631 25.8427 33.306C25.7986 34.3291 25.7561 35.3522 25.7153 36.3754C24.8076 37.5413 23.9017 38.7088 22.9974 39.8781C20.5023 39.9053 18.0054 39.9308 15.5068 39.9546C15.3029 39.7965 16.0066 38.7564 16.1136 38.578C16.7867 37.4869 25.1187 26.5452 25.8121 25.8671C25.8376 25.8416 26.2048 25.9436 26.4189 25.5153C26.8218 24.6995 26.2507 23.6645 25.4909 23.8226C25.1697 23.8889 23.8286 26.1424 23.4768 26.6166C22.3193 28.1768 14.5533 38.0324 14.3238 38.8176C14.1964 39.2459 14.3136 39.8883 14.227 39.9597C13.0338 40.1891 12.7176 39.3632 12.0496 39.5671C11.4275 39.7558 11.193 41.2038 11.9222 41.6117C12.4729 41.9176 13.5437 41.2955 14.2576 41.5709C14.2474 42.3968 14.2372 43.2228 14.227 44.0488C12.8145 44.3037 11.3511 43.2126 11.1216 44.5587C10.7494 46.7358 12.9981 45.3948 14.1964 45.7415C14.2066 46.4706 14.2117 47.0111 14.2168 47.4649H15.4966C15.4966 47.0315 15.5017 46.5369 15.5119 45.7007H23.9612C25.3277 44.0488 26.6926 42.3951 28.0558 40.7398C29.4631 40.7126 30.8705 40.6871 32.2778 40.6633C32.6552 40.546 33.1804 40.3115 33.3384 39.8526C33.7209 38.7309 31.3957 37.7265 30.9011 35.5851C30.5084 33.8872 31.0336 31.3583 32.4053 31.0575C33.1039 30.9046 39.0647 31.1391 40.6965 31.0983C40.8239 33.0511 40.5384 39.6487 40.6302 40.388C40.7882 41.6422 44.4596 45.7313 45.301 47.0009C45.2857 47.1437 45.2755 47.2966 45.2653 47.4649H46.6114C46.6114 46.9703 46.6012 46.6236 46.5808 46.5267C45.493 45.1093 44.4052 43.6919 43.3174 42.2745C44.0568 40.9794 46.178 39.1184 46.2596 38.889C46.5502 38.0783 46.0505 37.2217 45.3978 37.3543C45.0205 37.4308 43.0625 40.5205 42.5831 41.0559C42.4404 41.0814 41.9865 40.3574 41.9763 40.3064C41.8642 39.771 42.0579 32.7655 41.9763 31.1748C44.9338 30.7057 43.9599 32.8165 44.1843 35.3862C45.391 35.3998 46.5961 35.4134 47.7995 35.427V47.0774C47.7332 47.215 47.6873 47.3425 47.6517 47.4649H49.263C49.1865 47.3119 49.0794 47.108 49.0794 47.0774C48.9009 44.8952 49.212 38.4199 49.0794 35.5086C50.7876 35.3403 51.7666 35.3302 52.7253 37.2421V44.7218C51.7666 46.0067 51.1802 46.7918 50.6754 47.47H52.3122C52.4295 47.3119 52.5519 47.1487 52.6896 46.9652C52.6896 47.1437 52.6998 47.3068 52.71 47.47H59.6958C58.8646 46.1902 56.9779 44.8646 55.9224 43.5389L55.9326 43.544ZM40.6353 29.533C40.4058 29.9307 33.7158 29.3138 32.7316 29.4158C29.8812 29.7064 28.7645 34.1779 30.075 36.9311C30.4727 37.7724 31.2631 38.3128 31.6455 39.1745H27.7396C25.547 41.7136 24.8178 42.5549 23.4513 44.1355C20.7963 44.0947 18.1397 44.0556 15.4813 44.0182C15.4915 43.165 15.5017 42.3119 15.5119 41.4587H23.3187C23.6501 41.372 26.99 37.0535 27.0614 36.6201V33.7088C28.8461 31.2666 30.6359 28.8141 32.4053 26.3515C33.0274 26.4076 33.6444 26.3056 34.2614 26.275C35.7707 26.1883 37.2954 26.3413 38.8047 26.275C39.2483 26.7849 41.0789 28.7682 40.6302 29.5432L40.6353 29.533ZM52.093 34.494C51.1649 33.7496 50.0992 33.9025 49.0539 33.9025C48.9213 32.7757 49.2579 32.5463 48.7021 31.5827C48.3196 30.9198 41.8285 23.226 40.6047 21.7066H33.6903L31.9617 19.8202H25.1748C23.8524 21.6557 22.53 23.4929 21.2076 25.3318H18.5816C17.6638 26.377 12.3913 32.8471 12.2791 33.6374C12.1312 34.6673 12.8655 34.1167 10.9686 36.5895C10.9788 35.3421 10.989 34.0963 10.9992 32.8522C13.768 29.2628 16.5318 25.6479 19.3516 22.1094C19.4739 22.2216 20.0247 22.2216 20.1215 22.1859C20.3357 22.1094 22.8037 18.6883 23.3238 18.3314H40.2222C44.1792 23.0663 48.1361 27.8012 52.093 32.5361V34.5042V34.494Z" fill="white"/>
<path d="M25.0525 51.0634C25.0066 51.0481 24.9199 51.0634 24.8587 51.0634C23.8593 51.1093 23.9307 53.0111 23.1964 53.1896C22.2174 53.4292 21.9522 51.7772 21.1466 51.3796C19.4061 51.4203 17.6673 51.4594 15.9302 51.4968C17.861 53.8728 19.7919 56.247 21.7228 58.6196H26.0111C26.3069 57.6712 25.3125 56.7586 26.1386 56.0244C26.6995 55.5247 27.4746 55.9938 27.5766 56.6158C27.704 57.3449 27.189 57.967 27.3522 58.7012C28.27 58.8949 29.0298 58.227 29.657 58.5431C30.1108 58.7725 30.3811 59.9044 29.8814 60.3123V64.1669C30.5952 65.0387 29.8406 66.4154 28.887 66.0177C27.7856 65.5537 28.5862 64.3555 28.6015 64.2485C28.7341 63.295 28.6219 61.3372 28.6678 60.2359L27.291 60.1951C27.3012 61.0363 27.1737 64.223 27.2604 64.6411C27.2961 64.8195 28.1833 65.3345 27.2604 67.0017C28.4434 67.0425 29.6281 67.0816 30.8145 67.119C30.8247 64.1686 30.8349 61.2165 30.8451 58.2627C30.0853 57.4775 25.4553 51.1807 25.0525 51.0634Z" fill="white"/>
<path d="M43.9644 49.3725V54.8025C45.438 56.893 44.6833 59.2077 44.8618 61.808C44.9026 61.91 45.7592 61.8845 45.9836 61.7672C46.5037 61.5021 52.6991 52.8446 53.7598 51.7331C53.2957 50.122 52.8164 49.138 52.7195 47.4758H52.3218C50.8533 49.4388 50.7207 49.6121 49.0176 51.8912C49.1043 53.0945 48.8187 54.8637 49.2114 55.7458C49.3133 57.0102 47.9213 57.4334 47.4828 56.3729C47.0952 55.4449 47.7173 55.0625 47.7377 54.9555C47.8397 54.4711 47.6102 52.2022 47.804 51.3355C49.3082 49.3164 49.8946 48.5312 50.685 47.4707H49.2674C49.3082 47.5523 49.3388 47.6186 49.3388 47.6339C49.5479 49.3062 47.0799 49.347 47.651 47.4707H46.6159C46.6261 49.4439 46.5292 53.8644 46.5853 55.1135C46.5853 55.2155 47.1411 56.3219 46.2998 56.8828C45.9989 57.0867 45.5604 57.0459 45.2748 56.8063C44.4998 56.1588 45.2289 55.0625 45.2442 54.9555C45.3717 53.9205 45.1525 49.6631 45.2748 47.4707H42.4448C42.8324 47.9551 43.3015 48.5414 43.9644 49.3674V49.3725Z" fill="white"/>
<path d="M22.8079 51.0601C23.9144 49.969 24.9087 48.725 25.8929 47.4707H15.5009C15.5009 48.108 15.4907 48.6077 15.4805 49.8416C17.6272 50.2749 21.6198 48.934 22.8079 51.0601Z" fill="white"/>
<path d="M27.6886 47.4707C27.1073 48.1692 26.7962 48.5414 25.7866 49.76C27.8977 52.4113 30.0104 55.0608 32.1248 57.7087V67.0749C33.2976 67.0477 34.4704 67.0222 35.6432 66.9984V59.0497C30.9775 54.5425 28.9022 51.9269 29.4172 51.2029C29.5345 51.0346 29.7894 50.9735 30.1821 51.004C32.4104 53.5024 34.6336 56.0007 36.8619 58.499V67.08L39.0698 67.1973C39.0392 65.841 39.3554 64.0361 38.7843 62.9858C38.8709 60.9973 42.0375 62.221 43.4907 61.7672C43.5213 60.1527 43.5536 58.5398 43.5876 56.9286C43.2885 56.5887 42.9893 56.2471 42.6902 55.9038V49.8416C41.7825 48.725 41.2369 48.0519 40.7627 47.4707H31.3192C32.0789 48.6281 32.8438 49.7855 33.6036 50.9429C33.6393 51.1162 35.4138 53.2117 35.684 53.5024C36.301 54.1703 37.3361 54.9198 37.382 55.037C37.7134 55.8885 37.0659 56.8522 36.3265 56.5717C36.0511 56.4698 32.8795 52.0493 32.3237 51.4935C32.7571 50.1526 33.1854 48.8116 33.6189 47.4707H27.6988H27.6886Z" fill="white"/>
<path d="M23.3837 64.9131L25.9741 64.8723V60.2274L21.2064 60.1102C18.8914 57.238 16.5764 54.3657 14.2614 51.4935C14.2359 49.347 14.2308 48.8065 14.2155 47.4707H10.6155C10.5543 48.2967 10.4727 48.9748 10.3555 49.3674C14.6965 54.5476 19.0376 59.7295 23.3786 64.9131H23.3837Z" fill="white"/>
<path d="M29.035 44.483C29.0809 44.4473 29.2237 44.4524 29.5092 44.4473C29.9376 44.4473 30.1568 44.4473 30.4577 44.4983C30.5801 44.5186 30.7483 44.5543 30.937 44.6155C31.0696 44.7889 31.2123 44.9673 31.3602 45.1611C31.503 45.3446 31.6407 45.5282 31.7835 45.7117C32.6962 46.8997 33.5681 48.0826 34.4044 49.2553H32.6758C31.8854 48.0979 31.0951 46.9354 30.3047 45.778C28.8362 47.068 28.311 44.9928 29.035 44.4881V44.483Z" fill="white"/>
<path d="M35.7032 50.9225C35.6573 50.9582 35.5145 50.9531 35.229 50.9582C34.8006 50.9582 34.5814 50.9582 34.2805 50.9072C34.1582 50.8868 33.9899 50.8511 33.8012 50.7899C33.6686 50.6166 33.5259 50.4381 33.378 50.2444C33.1485 49.9486 32.9752 49.7243 32.9548 49.6937C32.5162 49.1227 31.7106 47.8582 31.4658 47.4707C31.8381 47.4707 32.2154 47.4758 32.5876 47.4809C33.2046 48.1947 33.8216 48.9136 34.4335 49.6274C35.902 48.3375 36.4273 50.4126 35.7032 50.9174V50.9225Z" fill="#02376D"/>
<path d="M28.8863 50.9225C28.9322 50.9582 29.075 50.9531 29.3605 50.9582C29.7889 50.9582 30.0081 50.9582 30.309 50.9072C30.4313 50.8868 30.5996 50.8511 30.7883 50.7899C30.9209 50.6166 31.0636 50.4381 31.2115 50.2444C31.441 49.9486 31.6143 49.7243 31.6347 49.6937C32.0733 49.1227 32.8789 47.8582 33.1237 47.4707C32.6699 47.4809 32.216 47.486 31.7571 47.4962C31.2217 48.21 30.6863 48.9187 30.1509 49.6325C28.6824 48.3426 28.1571 50.4177 28.8812 50.9225H28.8863Z" fill="#02376D"/>
<path d="M35.1031 41.677C35.1031 41.677 34.9195 41.9064 34.9093 41.9931C34.7207 44.0478 37.0051 43.7827 36.6991 41.9931C36.6328 41.6005 36.3881 41.5495 36.3779 41.5189C36.2759 41.0957 36.4544 34.3553 36.3779 32.9379C35.0164 31.2605 34.4708 30.5926 33.762 29.7207H32.0742C33.0176 30.8985 33.4867 31.4848 35.098 33.4937C35.0062 36.1144 35.2204 39.1073 35.098 41.677H35.1031Z" fill="white"/>
<path d="M92.5634 24.0955H86.73V14.1328H115.897C127.834 14.1328 136.181 22.4792 136.181 34.8638C136.181 47.2483 127.834 55.865 115.897 55.865H104.317V77.8502H92.5583V24.0955H92.5634ZM113.745 45.8105C120.384 45.8105 124.157 41.5022 124.157 34.8638C124.157 28.2254 120.389 24.0955 113.929 24.0955H104.327V45.8105H113.75H113.745Z" fill="white"/>
<path d="M145.426 43.751C145.426 42.405 144.707 41.7778 143.453 41.7778H139.863V32.0854H150.276C154.314 32.0854 156.379 33.7883 156.379 37.6479V40.34C156.379 42.043 156.201 43.2105 156.201 43.2105H156.379C158.444 36.6588 163.916 31.4531 170.917 31.4531C171.906 31.4531 172.982 31.6316 172.982 31.6316V42.8485C172.982 42.8485 171.814 42.6701 170.198 42.6701C165.354 42.6701 159.786 45.4539 157.72 52.2708C157.093 54.5142 156.731 57.0278 156.731 59.7199V77.8455H145.421V43.7459L145.426 43.751Z" fill="white"/>
<path d="M199.365 31.0031C212.47 31.0031 219.649 40.6038 219.649 52.7182C219.649 54.0642 219.379 56.9347 219.379 56.9347H187.785C188.682 65.0109 194.608 69.2275 201.517 69.2275C208.875 69.2275 214.351 64.1136 214.351 64.1136L219.109 72.0113C219.109 72.0113 212.108 78.92 200.711 78.92C185.541 78.92 176.118 67.9732 176.118 54.9564C176.118 40.869 185.633 30.998 199.365 30.998V31.0031ZM207.983 49.0421C207.804 43.5661 204.031 39.7983 199.365 39.7983C193.532 39.7983 189.401 43.2959 188.147 49.0421H207.983Z" fill="white"/>
<path d="M230.684 43.7505C230.684 42.4044 229.965 41.7773 228.71 41.7773H225.121V32.0848H235.263C239.48 32.0848 241.004 33.9713 241.004 36.4798V38.2745H241.183C241.183 38.2745 245.043 31.0039 255.72 31.0039C268.106 31.0039 276.091 40.7882 276.091 54.9623C276.091 69.1365 267.117 78.9258 255.088 78.9258C246.022 78.9258 241.983 72.9145 241.983 72.9145H241.805C241.805 72.9145 241.983 74.5308 241.983 76.8609V95.7971H230.674V43.7454L230.684 43.7505ZM253.033 69.3251C259.315 69.3251 264.613 64.2112 264.613 55.1459C264.613 46.0805 259.948 40.7882 253.217 40.7882C247.292 40.7882 241.728 45.0965 241.728 55.2376C241.728 62.3247 245.497 69.3251 253.038 69.3251H253.033Z" fill="white"/>
<path d="M299.16 45.5462L287.314 26.253C286.147 24.2798 285.428 24.1014 283.454 24.1014H280.762V14.1387H288.12C292.429 14.1387 294.132 15.1278 296.289 18.8039L302.392 29.3937C304.458 33.0749 306.431 37.113 306.431 37.113H306.609C306.609 37.113 308.312 33.0749 310.469 29.3937L316.66 18.8039C318.812 15.036 320.612 14.1387 324.915 14.1387H332.187V24.1014H329.494C327.521 24.1014 326.802 24.3716 325.634 26.253L313.697 45.5462L333.533 77.851H320.341L310.469 61.0714C308.318 57.3036 306.431 53.6224 306.431 53.6224H306.252C306.252 53.6224 304.549 57.3902 302.392 61.0714L292.612 77.851H279.421L299.165 45.5462H299.16Z" fill="white"/>
</svg>
