<svg width="16" height="19" viewBox="0 0 16 19" fill="none" xmlns="http://www.w3.org/2000/svg">
<path d="M13.0511 17.78C12.0711 18.73 11.0011 18.58 9.97114 18.13C8.88114 17.67 7.88114 17.65 6.73114 18.13C5.29114 18.75 4.53114 18.57 3.67114 17.78C-1.20886 12.75 -0.488859 5.09 5.05114 4.81C6.40114 4.88 7.34114 5.55 8.13114 5.61C9.31114 5.37 10.4411 4.68 11.7011 4.77C13.2111 4.89 14.3511 5.49 15.1011 6.57C11.9811 8.44 12.7211 12.55 15.5811 13.7C15.0111 15.2 14.2711 16.69 13.0411 17.79L13.0511 17.78ZM8.03114 4.75C7.88114 2.52 9.69114 0.68 11.7711 0.5C12.0611 3.08 9.43114 5 8.03114 4.75Z" fill="#02376D"/>
</svg>
