<svg width="25" height="25" viewBox="0 0 25 25" fill="none" xmlns="http://www.w3.org/2000/svg">
<g clip-path="url(#clip0_7952_42911)">
<path d="M8.85909 1.28992C6.46112 2.1218 4.39311 3.70073 2.95882 5.7948C1.52454 7.88887 0.799573 10.3877 0.890418 12.9242C0.981264 15.4608 1.88313 17.9013 3.46355 19.8874C5.04396 21.8735 7.21962 23.3005 9.67096 23.9587C11.6583 24.4715 13.7405 24.494 15.7385 24.0243C17.5484 23.6177 19.2218 22.7481 20.5947 21.5005C22.0236 20.1624 23.0608 18.4602 23.5947 16.5768C24.1751 14.5287 24.2783 12.3748 23.8966 10.2805H12.7366V14.9099H19.1997C19.0705 15.6483 18.7937 16.353 18.3859 16.9819C17.978 17.6107 17.4474 18.1509 16.826 18.5699C16.0367 19.092 15.1471 19.4432 14.2141 19.6012C13.2784 19.7752 12.3186 19.7752 11.3828 19.6012C10.4344 19.4051 9.53727 19.0137 8.74846 18.4518C7.48124 17.5548 6.52973 16.2804 6.02971 14.8105C5.52124 13.3132 5.52124 11.6898 6.02971 10.1924C6.38564 9.14283 6.97403 8.18717 7.75096 7.39679C8.64007 6.4757 9.76571 5.81729 11.0044 5.49381C12.2431 5.17034 13.5469 5.19429 14.7728 5.56305C15.7305 5.85703 16.6063 6.37068 17.3303 7.06305C18.0591 6.33805 18.7866 5.61117 19.5128 4.88242C19.8878 4.49055 20.2966 4.11742 20.666 3.71617C19.5608 2.68769 18.2635 1.8874 16.8485 1.36117C14.2717 0.425527 11.4522 0.400382 8.85909 1.28992Z" fill="#02376D"/>
<path d="M8.85875 1.29083C11.4516 0.400689 14.2711 0.425171 16.8481 1.36021C18.2634 1.89001 19.5601 2.69415 20.6638 3.72646C20.2888 4.12771 19.8931 4.50271 19.5106 4.89271C18.7831 5.61896 18.0563 6.34271 17.33 7.06396C16.606 6.37159 15.7302 5.85794 14.7725 5.56396C13.547 5.19391 12.2432 5.16857 11.0042 5.49072C9.76516 5.81288 8.63883 6.47007 7.74875 7.39021C6.97181 8.18059 6.38342 9.13624 6.0275 10.1858L2.14062 7.17646C3.53189 4.41751 5.94078 2.30713 8.85875 1.29083Z" fill="#E33629"/>
<path d="M1.10749 10.157C1.31641 9.12164 1.66325 8.11896 2.13874 7.17578L6.02562 10.1927C5.51715 11.69 5.51715 13.3134 6.02562 14.8108C4.73062 15.8108 3.43499 16.8158 2.13874 17.8258C0.948402 15.4564 0.585368 12.7567 1.10749 10.157Z" fill="#F8BD00"/>
<path d="M12.7352 10.2773H23.8952C24.277 12.3716 24.1737 14.5255 23.5933 16.5736C23.0594 18.457 22.0222 20.1592 20.5933 21.4973C19.339 20.5186 18.079 19.5473 16.8246 18.5686C17.4465 18.1491 17.9773 17.6084 18.3852 16.9788C18.7931 16.3493 19.0696 15.6439 19.1983 14.9048H12.7352C12.7333 13.3636 12.7352 11.8205 12.7352 10.2773Z" fill="#587DBD"/>
<path d="M2.14062 17.8236C3.43687 16.8236 4.7325 15.8186 6.0275 14.8086C6.52851 16.279 7.48138 17.5534 8.75 18.4498C9.54127 19.0091 10.4404 19.3973 11.39 19.5898C12.3257 19.7638 13.2855 19.7638 14.2213 19.5898C15.1542 19.4319 16.0439 19.0807 16.8331 18.5586C18.0875 19.5373 19.3475 20.5086 20.6019 21.4873C19.2292 22.7356 17.5558 23.6059 15.7456 24.013C13.7476 24.4827 11.6655 24.4601 9.67813 23.9473C8.10632 23.5277 6.63814 22.7878 5.36563 21.7742C4.01874 20.7049 2.91867 19.3573 2.14062 17.8236Z" fill="#319F43"/>
</g>
<defs>
<clipPath id="clip0_7952_42911">
<rect width="24" height="24" fill="white" transform="translate(0.5 0.5)"/>
</clipPath>
</defs>
</svg>
